<?xml version="1.0" standalone="no"?>
<!DOCTYPE svg PUBLIC "-//W3C//DTD SVG 1.1//EN" "http://www.w3.org/Graphics/SVG/1.1/DTD/svg11.dtd" >
<svg xmlns="http://www.w3.org/2000/svg">
<metadata></metadata>
<defs>
<font id="Whoismono" horiz-adv-x="998" >
<font-face units-per-em="2048" ascent="1587" descent="-461" />
<missing-glyph horiz-adv-x="500" />
<glyph />
<glyph />
<glyph unicode="&#xd;" />
<glyph />
<glyph />
<glyph />
<glyph />
<glyph />
<glyph />
<glyph />
<glyph />
<glyph unicode="&#x9;" />
<glyph unicode="&#xa;" />
<glyph />
<glyph />
<glyph />
<glyph />
<glyph />
<glyph />
<glyph />
<glyph />
<glyph />
<glyph />
<glyph />
<glyph />
<glyph />
<glyph />
<glyph />
<glyph />
<glyph />
<glyph />
<glyph />
<glyph />
<glyph unicode=" " />
<glyph unicode="!" d="M376 125q0 52 36 89t87 37t87 -37t36 -89t-35.5 -88.5t-87.5 -36.5t-87.5 36.5t-35.5 88.5zM422 745v586h149v-586l-23 -297h-103z" />
<glyph unicode="&#x22;" d="M315 999v332h120v-332h-120zM563 999v332h121v-332h-121z" />
<glyph unicode="#" d="M84 266v113h789v-113h-789zM136 781v112h775v-112h-775zM220 0l97 1162h113l-97 -1162h-113zM566 0l97 1162h113l-98 -1162h-112z" />
<glyph unicode="$" d="M128 210l115 59q38 -63 68 -88q48 -43 140 -49v499q-374 164 -282 443q44 133 149 201q60 38 133 49v130h122v-130q143 -20 236 -132q18 -23 38 -60l-112 -64q-15 61 -95 104q-30 16 -67 23v-475q140 -62 213 -129.5t86.5 -162t-17.5 -184.5t-105 -156t-177 -83v-146 h-122v143q-212 17 -298 162q-11 18 -25 46zM281.5 957q0.5 -98 169.5 -183v420q-78 -18 -124 -78.5t-45.5 -158.5zM573 139q66 17 109 64q81 89 63 209q-4 27 -13.5 47.5t-49 56t-109.5 70.5v-447z" />
<glyph unicode="%" d="M36 1085q0 102 67.5 174t163.5 72t163.5 -72t67.5 -174t-67.5 -174t-163.5 -72t-163.5 72t-67.5 174zM94 208l644 912l162 -1l-644 -912zM151 1085q0 -53 34 -89.5t83 -36.5t83 36.5t34 89.5t-34 89.5t-83 36.5t-83 -36.5t-34 -89.5zM501 246q0 102 67.5 174t163.5 72 t163.5 -72t67.5 -174t-67.5 -174t-163.5 -72t-163.5 72t-67.5 174zM616 246q0 -52 34 -89t83 -37t83 37t34 89t-34 89t-83 37t-83 -37t-34 -89z" />
<glyph unicode="&#x26;" />
<glyph unicode="'" d="M439 999v332h120v-332h-120z" />
<glyph unicode="(" d="M195 660q0 193 53 376q53 178 169 305q118 129 291 137v-113q-102 -9 -191.5 -119t-139.5 -268.5t-50 -295t30.5 -261t81 -226t123 -169t149.5 -74.5v-112q-243 11 -391 275q-80 145 -111 354q-14 95 -14 191z" />
<glyph unicode=")" d="M286 -48v-112q243 11 391 275q80 145 111 354q14 95 14 191q0 193 -53 376q-53 178 -169 305q-118 129 -291 137v-113q102 -9 191.5 -119t139.5 -268.5t50 -295t-30.5 -261t-81 -226t-123 -169t-149.5 -74.5z" />
<glyph unicode="*" d="M277 1168l27 84l153 -54l-6 155h96l-6 -155l153 54l27 -84l-159 -39l93 -134l-76 -55l-80 156l-80 -156l-76 55l93 134z" />
<glyph unicode="+" d="M138 402v136h293v293h136v-293h293v-136h-293v-293h-136v293h-293z" />
<glyph unicode="," d="M360 -148l79 391l200 -31l-156 -360h-123z" />
<glyph unicode="-" d="M138 402v136h722v-136h-722z" />
<glyph unicode="." d="M376 125q0 52 36 89t87 37t87 -37t36 -89t-35.5 -88.5t-87.5 -36.5t-87.5 36.5t-35.5 88.5z" />
<glyph unicode="/" d="M27 -128l793 1460l152 -1l-793 -1460z" />
<glyph unicode="0" d="M82 668q0 455 225 606q85 57 192 57t193 -57q224 -150 224 -606q0 -454 -230 -611q-83 -57 -187 -57t-189 57q-228 154 -228 611zM212 664.5q0 -250.5 77 -393.5q39 -72 88.5 -106t121 -34t120.5 33.5t88 106.5q79 147 79 396.5t-74 392.5q-38 73 -88 107t-125 34 t-124.5 -34t-87.5 -107q-75 -145 -75 -395.5zM361 668q0 58 40.5 99.5t97.5 41.5t97.5 -41.5t40.5 -99.5t-40 -98t-98 -40t-98 40t-40 98z" />
<glyph unicode="1" d="M77 0v131h363l2 1003q-85 -102 -148 -163t-140 -101l-59 116q180 93 333 345h142l1 -1200h351v-131h-845z" />
<glyph unicode="2" d="M77 0l2 128l430 453q33 36 56.5 59.5t43 44.5t28.5 31t24 26.5t23 26.5t18 23q79 103 58 247q-7 51 -52 91t-110.5 60.5t-137.5 12t-125 -45.5q-87 -62 -105 -153l-128 25q29 146 157 233q72 49 177.5 64.5t200 -12t165 -94t86.5 -160.5q27 -163 -46 -287 q-40 -68 -97 -129q-103 -112 -277 -296t-207 -217h661v-131h-845z" />
<glyph unicode="3" d="M100 223l115 56q22 -46 68 -82q85 -68 221.5 -67t216.5 97t44 229q-27 93 -118.5 137t-221.5 44l13 118q67 4 138.5 20.5t111 45t60.5 86t10 127.5q-21 123 -167 162q-88 29 -201 -11q-48 -17 -89 -61.5t-60 -108.5l-126 26q17 78 60 137t98 91.5t119 49t123 16 t134 -20.5t148 -88.5t89.5 -168.5t-13.5 -182t-97 -133q-31 -25 -75 -43q53 -12 111.5 -73t81 -148.5t4 -176.5t-75 -157.5t-139 -106t-170.5 -38t-158.5 18.5t-118.5 52q-96 66 -136 153z" />
<glyph unicode="4" d="M79 330v200l553 801h131v-867h156v-134h-156v-330h-128v330h-556zM218 464h417v649l-415 -611z" />
<glyph unicode="5" d="M79 264l121 25q30 -152 240 -163q64 -4 123 10q108 23 166.5 105.5t58.5 210.5t-55.5 206.5t-182.5 99.5q-123 11 -205 -21t-153 -120l-97 38l66 676h653v-130h-535l-33 -372q168 81 336 55.5t252.5 -144.5t84.5 -286.5t-88.5 -289.5t-252.5 -155.5t-299 19.5 q-76 30 -129.5 90.5t-70.5 145.5z" />
<glyph unicode="6" d="M91.5 454q12.5 68 23.5 106.5t18 57.5q9 25 72 183l207 530h141l-225 -576q-2 -3 -9.5 -13t-8.5 -12q98 51 189 51q169 0 289.5 -115.5t120.5 -276.5t-120.5 -275t-289.5 -114q-137 4 -249 82q-121 82 -154 228q-17 76 -4.5 144zM220 389q0 -109 81.5 -186.5t197 -77.5 t196.5 77t81 187t-81 187t-196.5 77t-197 -77.5t-81.5 -186.5z" />
<glyph unicode="7" d="M77 1201v130h845v-138l-658 -1193h-146l660 1201h-701z" />
<glyph unicode="8" d="M87 389q0 106 55 197t147 144q-128 102 -128 251.5t100 249.5t238 100t238 -101t100 -250.5t-128 -249.5q92 -53 147 -144t55 -197q0 -161 -121.5 -275t-290.5 -114t-290.5 114t-121.5 275zM220 389.5q0 -121.5 80 -193t199.5 -71.5t200 71.5t78.5 193.5t-82 199 t-197.5 77t-198 -77.5t-80.5 -199zM292 992.5q0 -86.5 60.5 -150.5t146.5 -64t147 64t61 150.5t-61 147.5t-147 61t-146.5 -61t-60.5 -147.5z" />
<glyph unicode="9" d="M97 942q0 161 120.5 275t289.5 114q137 -4 249 -81q121 -83 154 -230q17 -75 4.5 -143t-23.5 -106.5t-18 -58.5q-9 -24 -72 -182l-207 -530h-141l225 576q2 3 9.5 13.5t8.5 12.5q-100 -52 -189 -52q-169 0 -289.5 115.5t-120.5 276.5zM230 942q0 -110 81 -187t196.5 -77 t197 77.5t81.5 186.5t-81.5 186.5t-197 77.5t-196.5 -77t-81 -187z" />
<glyph unicode=":" d="M166 125q0 52 36 89t87 37t87 -37t36 -89t-35.5 -88.5t-87.5 -36.5t-87.5 36.5t-35.5 88.5zM166 873q0 52 35.5 88.5t87.5 36.5t87.5 -36.5t35.5 -88.5t-35.5 -88.5t-87.5 -36.5t-87.5 36.5t-35.5 88.5z" />
<glyph unicode=";" d="M67 -148l79 391l200 -31l-157 -360h-122zM115 873q0 52 35.5 88.5t87.5 36.5t87.5 -36.5t35.5 -88.5t-35.5 -88.5t-87.5 -36.5t-87.5 36.5t-35.5 88.5z" />
<glyph unicode="&#x3c;" d="M148 428l625 -428l69 105l-563 392v15l563 381l-69 105l-625 -427v-143z" />
<glyph unicode="=" d="M138 236v135h722v-135h-722zM138 604v136h722v-136h-722z" />
<glyph unicode="&#x3e;" d="M156 105l563 392v15l-563 381l69 105l625 -427v-143l-625 -428z" />
<glyph unicode="?" d="M72 968q-24 64 8.5 154.5t103.5 138.5t170.5 64.5t193.5 -9.5q205 -62 243 -238q14 -72 0 -129.5t-50 -110.5t-100.5 -111.5t-95.5 -92.5t-39.5 -49.5t-14 -35.5t-8 -32t-5.5 -35.5t-4 -30.5l-136 2q2 3 -0.5 15.5t2.5 41.5t13 59q20 74 73 130t95 92t63.5 56t42.5 53 q33 53 33 147q-2 52 -42.5 90.5t-108.5 58.5q-140 42 -250 -36q-32 -23 -49 -56q-21 -44 -21 -108zM284 125q0 52 36 89t87 37t87 -37t36 -89t-35.5 -88.5t-87.5 -36.5t-87.5 36.5t-35.5 88.5z" />
<glyph unicode="@" d="M54 633q0 259 122 430q60 85 158 134.5t209.5 50.5t206.5 -48t130.5 -109t50 -109.5t14.5 -120.5v-285q0 -74 -23 -131t-55.5 -88t-74.5 -51q-64 -30 -147 -30t-156.5 46.5t-104.5 110t-32 134.5t17 110q35 100 101 141q67 43 122.5 47.5t83.5 4.5l138 -4q0 84 -34 140 q-7 12 -9 16q-22 37 -81 66t-131.5 29t-131 -20t-96.5 -52t-67 -78t-44 -90.5t-24 -98.5q-14 -83 -14 -173q0 -216 94.5 -351.5t258.5 -135.5q83 0 181 15.5t134 20.5v-118q-35 -5 -83 -13.5t-73 -12.5q-61 -10 -162 -10t-181 33.5t-134.5 92t-91.5 138.5q-71 155 -71 369z M485 568q7 -163 181 -164q94 -3 129 78q26 61 22 162q-3 71 -3 99q-110 0 -163 -2t-101 -30.5t-61 -82.5q-6 -12 -4 -60z" />
<glyph unicode="A" d="M82 0l335 1331h164l335 -1331h-133l-92 361h-384l-92 -361h-133zM340 492h318l-156 624l-3 18z" />
<glyph unicode="B" d="M77 0v1331q134 2 235 2t169 -2q180 0 275.5 -100t95.5 -263.5t-99 -255.5q-8 -8 -16.5 -11.5t-9.5 -4.5q2 -1 11 -2q21 -4 71 -46q113 -105 113 -276.5t-100 -271.5t-279 -100h-466zM205 128h338q123 0 187 64t64 178.5t-71 180.5t-201 66h-317v-489zM207 753h274 q126 0 184.5 55.5t58.5 161t-60.5 169.5t-182.5 64h-274v-450z" />
<glyph unicode="C" d="M82 701.5q0 222.5 60.5 355.5t162 207.5t225.5 74.5t226 -69.5t155 -242.5l-115 -31q-19 65 -50 103t-81 73.5t-140 35.5q-173 0 -266 -210q-47 -105 -47 -300.5t47.5 -318t116.5 -180.5t162.5 -58t165.5 69.5t84 155.5l128 -18q-20 -136 -125 -237t-244.5 -101 t-243.5 86.5t-162.5 234.5t-58.5 370.5z" />
<glyph unicode="D" d="M84 0v1331h179.5t77 -0.5t30.5 -1.5t33.5 -2.5t30.5 -3.5q28 -3 67 -10q412 -101 412 -624q0 -299 -105.5 -460t-324.5 -214q-90 -22 -182 -22q-53 0 -107 7h-111zM212 128q13 -3 54 -3q21 0 48 1q277 7 385 171q87 132 87 381t-97 377q-75 99 -218 133q-60 15 -172 15 q-39 0 -84 -2z" />
<glyph unicode="E" d="M113 0v1331h787v-128h-657v-458h532v-131h-532v-483h654v-131h-784z" />
<glyph unicode="F" d="M127 0v1331h773v-128h-645v-466h582v-130h-582v-607h-128z" />
<glyph unicode="G" d="M82 689.5q0 221.5 61.5 357t162.5 209.5q99 74 228 74h3q131 -1 232 -80.5t145 -230.5l-118 -31q-28 98 -97 155.5t-174 57.5q-171 0 -264 -210q-49 -109 -49 -307q0 -190 47.5 -313.5t116.5 -181.5t159.5 -58t160.5 62t90 142v210h-312v131h442v-673h-104l-16 138 q-34 -57 -102 -99t-151 -42q-137 0 -240.5 86t-162 234t-58.5 369.5z" />
<glyph unicode="H" d="M79 0v1331h131v-594h578v594h131v-1331h-131v607h-578v-607h-131z" />
<glyph unicode="I" d="M87 0v131h348v1070h-348v130h824v-130h-348v-1070h348v-131h-824z" />
<glyph unicode="J" d="M79 371h128q0 -80 76.5 -161.5t182.5 -81.5q147 0 225 82q100 105 100 322v671h-558v131h686v-802q0 -276 -128 -404t-309 -128t-303 131q-100 107 -100 240z" />
<glyph unicode="K" d="M72 0v1331h130v-755l561 755h161l-412 -555l415 -776h-146l-351 663l-228 -305v-358h-130z" />
<glyph unicode="L" d="M150 0v1331h131v-1200h643v-131h-774z" />
<glyph unicode="M" d="M72 0v1331h123l302 -619l2 -16l3 16l302 619h123v-1336h-128v1047l-300 -643l-299 638v-1037h-128z" />
<glyph unicode="N" d="M79 0v1331h123l586 -1067v1067h131v-1331h-123l-586 1068v-1068h-131z" />
<glyph unicode="O" d="M82 668q0 455 225 606q85 57 192 57t193 -57q224 -150 224 -606q0 -453 -230 -608q-83 -57 -187 -57t-189 57q-228 152 -228 608zM212 666q0 -249 77 -392q39 -73 88.5 -107t121.5 -34t121.5 34t88.5 107q77 143 77 393t-74 393q-38 73 -88 108t-125 35t-124.5 -35 t-87.5 -108q-75 -145 -75 -394z" />
<glyph unicode="P" d="M87 0v1331h451q183 0 278 -112.5t95 -258.5q0 -190 -96.5 -289.5t-276.5 -99.5h-320v-571h-131zM218 701h320q122 0 182.5 60.5t60.5 179.5t-59.5 188t-183.5 69h-320v-497z" />
<glyph unicode="Q" d="M82 660q0 463 225 614q85 57 192 57t193 -57q224 -150 224 -608q0 -273 -94 -454q57 -103 87 -212h-136q-27 90 -38 110l-23 -23q-47 -42 -96.5 -64.5t-128 -22.5t-161.5 48t-139 144q-105 181 -105 468zM212 662q0 -253 75 -393q39 -73 88.5 -107t121.5 -34 q105 0 171 84q-35 47 -74.5 80t-107.5 68l41 108q126 -48 208 -133q51 148 51 365t-74 360q-38 73 -88 107t-125 34t-124.5 -34t-87.5 -107q-75 -145 -75 -398z" />
<glyph unicode="R" d="M82 3v1328h453q187 0 280.5 -110.5t93.5 -276t-103 -271.5q-50 -50 -112 -71l222 -599h-138l-215 570h-351v-570h-130zM212 704h323q120 0 181.5 61.5t61.5 180t-60 188t-183 69.5h-323v-499z" />
<glyph unicode="S" d="M84 218l116 58q15 -31 64 -69q98 -76 247 -76t217 85q56 69 56 154q0 20 -3 40q-14 94 -170 158q-35 15 -79 31.5t-61 23.5t-53 21.5t-58 23.5q-247 107 -252 300v13q0 145 106 245q112 104 295 103q142 0 241 -71q85 -60 119 -108l14 -21l-112 -64q-9 18 -35 44.5 t-54 44.5q-71 47 -188.5 47t-186.5 -64.5t-69 -166.5q0 -78 85 -135q60 -40 179 -86q181 -68 235 -99q153 -85 172 -222q4 -31 4 -60q0 -128 -78 -227q-113 -141 -317 -141q-251 0 -389 158q-25 28 -45 60z" />
<glyph unicode="T" d="M77 1198v133h845v-133h-359v-1198h-128v1198h-358z" />
<glyph unicode="U" d="M82 568v763h130v-763q0 -336 160 -413q50 -24 127 -24q145 0 216 103.5t71 333.5v763h130v-763q0 -417 -231 -528q-83 -40 -186 -40q-215 0 -316 149.5t-101 418.5z" />
<glyph unicode="V" d="M84 1331h134l279 -1142l2 -20l282 1162h133l-333 -1331h-164z" />
<glyph unicode="W" d="M82 1331h130l67 -1042l151 487l69 238l69 -236l151 -489l67 1042h130l-84 -1331h-156l-172 568l-5 39l-5 -39l-171 -568h-157z" />
<glyph unicode="X" d="M87 0l341 668l-336 663h146l261 -543l261 543h146l-333 -663l338 -668h-146l-266 548l-266 -548h-146z" />
<glyph unicode="Y" d="M90 1334h140l269 -602l266 602h144l-346 -745v-589h-128v589z" />
<glyph unicode="Z" d="M77 0v128l676 1070h-658v133h806v-138l-668 -1062h689v-131h-845z" />
<glyph unicode="[" d="M225 -162h479v131h-348v1398h350v133h-481v-1662z" />
<glyph unicode="\" d="M54 1331l793 -1459h151l-793 1459h-151z" />
<glyph unicode="]" d="M292 1367v133h481v-1662h-479v131h348v1398h-350z" />
<glyph unicode="^" d="M145 1083l250 248h175l250 -248h-153l-185 152l-184 -152h-153z" />
<glyph unicode="_" d="M100 -77h798v-131h-798v131z" />
<glyph unicode="`" d="M238 1266l125 65l250 -248h-153z" />
<glyph unicode="a" d="M116 367q59 172 237 206q51 8 156 8l154 -2v24q0 166 -19.5 199t-54 49.5t-108.5 16.5q-120 0 -176 -62q-34 -38 -44 -110l-120 21q0 97 64 174q89 107 281.5 107t271.5 -135q24 -44 28 -81l6 -52q2 -22 2 -56v-400q-1 -16 -1 -30q1 -48 9 -65q10 -23 17 -33 q20 -26 77 -36v-113q-60 4 -105.5 26.5t-60.5 42.5l-16 21h-5q-53 -53 -186 -77q-51 -10 -129 -10t-151 46t-107 115q-33 68 -33 130q0 39 13 76zM238 284q11 -151 182 -156h19q129 0 186 51q27 22 38 59v210q-29 0 -91 2q-37 1 -69 1q-80 0 -126 -7q-64 -10 -93.5 -30.5 t-42.5 -75.5q-4 -8 -4 -29q0 -11 1 -25z" />
<glyph unicode="b" d="M92 0v1331h128v-450q109 117 277 117q103 0 186 -48.5t131 -125.5q92 -146 92 -325t-92 -325q-49 -78 -131 -126t-186 -48q-168 0 -277 118l-25 -118h-103zM220 499q0 -143 72 -256q36 -56 83 -84t122 -28q139 0 207.5 108t68.5 260.5t-69 260.5t-207 108 q-74 0 -121.5 -28.5t-83.5 -84.5q-72 -113 -72 -256z" />
<glyph unicode="c" d="M128 506q0 324 197 444q80 48 182 48q154 0 247 -90t106 -232l-128 -10q-8 92 -67.5 147t-145.5 55t-130 -27t-77 -83q-56 -94 -56 -252t69 -266.5t207 -108.5q182 0 210 181l128 -20q-22 -125 -108.5 -208.5t-229.5 -83.5q-104 0 -186 48t-131 126q-87 138 -87 332z" />
<glyph unicode="d" d="M95 499q0 187 87 325q48 77 131 125.5t186 48.5q173 0 277 -117v450h128v-1331h-105l-23 118q-109 -118 -277 -118q-104 0 -186 48t-131 126q-87 138 -87 325zM225 496.5q0 -153.5 67.5 -259.5t205.5 -106t208 110t70 258t-69 256q-72 113 -208 113t-205 -109t-69 -262.5 z" />
<glyph unicode="e" d="M118 494q0 338 194 453q79 47 182 49h3q381 -11 381 -472v-17v-62h-627q19 -301 246 -314q187 0 238 163l125 -38q-33 -104 -121 -180t-242 -76h-3q-192 8 -292 159q-84 127 -84 335zM256 573h489q-7 151 -69 228q-30 38 -92 54q-36 9 -76 9q-28 0 -58 -4 q-72 -12 -129.5 -85.5t-64.5 -201.5z" />
<glyph unicode="f" d="M92 727v131h231q-14 106 -17 139q-2 14 -2 31q0 21 2 46q5 43 24 89t51 81q72 79 218 85q108 -2 191 -66.5t116 -189.5l-94 -39q-32 95 -104 136q-55 31 -112 31q-18 0 -35 -3q-131 -22 -131 -154q0 -19 3 -40q4 -32 12.5 -79.5t10.5 -66.5h309v-131h-297v-727h-130v727 h-246z" />
<glyph unicode="g" d="M81 -92q0 85 55 144q57 61 140 76v3q-78 20 -96 63q-13 32 -13 63q0 33 15 66q17 39 45 59q27 19 49 28v2q-93 62 -132 166q-16 42 -16 102t27 121t68 96.5t93 59.5q89 41 190 41t185 -38q36 4 63 32t29 73h131q0 -27 -8 -59q-33 -89 -125 -115q82 -70 82 -228 q0 -142 -135 -246q-92 -72 -229 -74q-20 0 -56 3.5t-51 1.5q-91 -11 -100 -69q-1 -8 -1 -15q0 -92 195 -92q286 0 382 -123q46 -59 46 -121t-16 -103t-39 -67t-62 -44.5t-70.5 -28t-80.5 -14.5q-58 -6 -122 -6t-88.5 0.5t-73 5.5t-81 13.5t-73.5 27t-66 44.5q-61 62 -61 152 zM212 -84q0 -144 285.5 -144t285.5 142t-286 142q-129 0 -170 -15.5t-65 -30.5q-50 -30 -50 -94zM256 663q0 -55 48 -117q57 -75 195 -75q171 0 225 137q11 30 11 55q0 210 -238 210q-103 0 -172 -54t-69 -156z" />
<glyph unicode="h" d="M118 0v1331h128v-507q21 68 104.5 119.5t176.5 51.5t154 -33t105 -91t69.5 -142t25.5 -163v-566h-133v566q0 105 -50.5 200.5t-185 95.5t-207.5 -114q-59 -93 -59 -254v-494h-128z" />
<glyph unicode="i" d="M84 0v133h351v735h-299v130h427v-865h351v-133h-830zM375 1329q0 52 35.5 87.5t87.5 35.5t87.5 -35.5t35.5 -87.5t-36 -89t-87 -37t-87 37t-36 89z" />
<glyph unicode="j" d="M132 -54q-2 20 -2 37q0 20 3 33l5 25l115 -21q-2 -17 -2 -33q0 -96 65 -163q42 -42 142 -42t145 36t63 86q32 85 32 220l1 45v699h-428v130h564v-829q1 -14 1 -29q0 -55 -9 -128q-11 -92 -31 -140q-36 -89 -121.5 -147t-212.5 -58t-204 55q-116 84 -126 224zM622 1331 q0 52 36 89t87 37t87 -37t36 -89t-35.5 -88.5t-87.5 -36.5t-87.5 36.5t-35.5 88.5z" />
<glyph unicode="k" d="M92 0v1331h131v-903l530 568l94 -87l-355 -384l414 -512v-13h-161l-346 428l-176 -190v-238h-131z" />
<glyph unicode="l" d="M74 0v131h361v1072h-361v128h489v-1200h361v-131h-850z" />
<glyph unicode="m" d="M72 0v998h105l25 -74q38 38 72 57q31 17 75 17h9q89 -4 149 -102q77 102 192 102q66 0 119 -42q109 -88 109 -239v-717h-133v717q0 65 -11 89q-26 57 -81 63q-6 1 -12 1q-48 0 -91 -43q-25 -25 -33 -90v-737h-133v717q0 65 -11 89q-26 57 -82 62q-9 1 -18 1 q-50 0 -92 -42q-28 -31 -28 -74v-753h-130z" />
<glyph unicode="n" d="M143 0v998h113l18 -89q106 89 264 89t253 -148q41 -64 52.5 -135t11.5 -172v-543h-131v543q0 164 -29 216.5t-62 76t-81 29.5q-48 7 -84 7h-2q-35 0 -69 -16q-35 -16 -63 -40q-60 -57 -60 -186v-630h-131z" />
<glyph unicode="o" d="M92 498q0 191 87 329q48 77 131.5 124t188.5 47t187.5 -47t130.5 -124q89 -142 89 -327.5t-89 -327.5q-48 -77 -131.5 -124.5t-188.5 -47.5t-188.5 47.5t-131.5 124.5q-85 135 -85 326zM223 502q0 -160 64 -261q36 -56 84.5 -84.5t125.5 -28.5t125.5 28.5t82.5 81.5 q71 111 71 261.5t-69.5 259.5t-206.5 109t-207 -110.5t-70 -255.5z" />
<glyph unicode="p" d="M95 -333v1331h105l25 -125q109 123 274 123q103 0 186.5 -47.5t131.5 -124.5q87 -138 87 -327.5t-87 -327.5q-48 -77 -130.5 -124.5t-187.5 -47.5q-166 0 -274 121v-451h-130zM225 497q0 -176 51 -256q72 -113 216.5 -113t212.5 106.5t68 262.5t-67.5 262t-206.5 106 q-274 0 -274 -368z" />
<glyph unicode="q" d="M95 497.5q0 191.5 87 329.5q48 76 131 123.5t186 47.5q166 0 274 -122l28 122h103v-1331h-131v453q-107 -120 -274 -120q-105 0 -188.5 47.5t-131.5 124.5q-84 134 -84 325.5zM225 499q0 -151 67 -256q71 -112 215 -112t215 112q49 77 49 256t-49 256q-72 113 -215.5 113 t-212.5 -109t-69 -260z" />
<glyph unicode="r" d="M182 0v998h110l20 -89q85 85 232 92q12 1 24 0q130 0 206 -69q42 -39 67 -75.5t54 -102.5l-108 -61q-53 85 -91 123q-40 39 -92 51q-32 7 -58 7q-17 0 -31 -2q-37 -8 -61 -16t-52 -28t-44 -50q-38 -70 -38 -202v-576h-138z" />
<glyph unicode="s" d="M120 274l121 10q9 -69 43 -100q62 -56 214.5 -56t207.5 60q41 45 41 96q0 18 -5 36q-7 30 -27 46.5t-71.5 33.5t-282.5 79q-169 45 -207 156q-16 43 -16 84q0 108 110 200q52 44 135 64q64 15 125 15q18 0 36 -1q78 -6 140 -38q126 -64 153 -188l-105 -44q-34 90 -94 119 q-48 23 -127 23q-20 1 -43 -1q-110 -8 -163 -69q-31 -36 -30 -78q1 -41 27 -73q28 -33 69.5 -44.5t156 -39.5t176.5 -46q123 -36 164 -170q10 -33 10 -66q0 -31 -8 -63q-18 -66 -66 -117q-102 -102 -305.5 -102t-301.5 90q-77 71 -77 184z" />
<glyph unicode="t" d="M123 865v133h261v231l131 36v-267h350v-133h-350v-734h348v-131h-479v865h-261z" />
<glyph unicode="u" d="M143 453v545h131v-545q0 -162 29.5 -215.5t62 -77t80.5 -29.5q48 -7 84 -7h2q35 0 69 15q35 15 63 40q60 55 60 185v634h131v-998h-110l-21 82q-102 -85 -262.5 -85t-256.5 149q-45 69 -52 132q-10 90 -10 175z" />
<glyph unicode="v" d="M87 998h138l272 -801l6 -33l6 33l264 801h138l-332 -998h-151z" />
<glyph unicode="w" d="M77 998h133l61 -750l167 436h123l166 -433l64 747h131l-85 -998h-138l-197 512l-3 10l-197 -522h-138z" />
<glyph unicode="x" d="M77 0l343 507l-333 491h159l251 -378v-3h2v3l256 378h156l-332 -491l343 -507h-159l-261 389v5h-3l-2 -5l-261 -389h-159z" />
<glyph unicode="y" d="M87 998h138l272 -719l5 -28l5 28l266 719h138l-363 -993q-64 -146 -108 -205q-92 -123 -286 -148v130q133 26 184 95q41 53 82 165l15 37z" />
<glyph unicode="z" d="M97 0v128l604 740h-583v130h752v-128l-599 -739h630v-131h-804z" />
<glyph unicode="{" d="M241 658v72q59 8 72 14q34 17 39.5 70.5t5.5 103.5v381q0 82 10 101t22.5 35t31.5 24q47 21 110 19h176v-100h-155q-64 0 -76.5 -15.5t-12.5 -95.5v-413q0 -77 -55 -138q-4 -5 -19 -22q1 -2 13 -14.5t23 -27.5q38 -51 38 -118v-486q0 -78 8 -89.5t21 -15.5q16 -5 60 -5 h155v-100h-176q-106 -3 -142 43q-32 42 -32 136v453q0 144 -35 167q-21 14 -48.5 17t-33.5 4z" />
<glyph unicode="|" d="M432 -162h131v1662h-131v-1662z" />
<glyph unicode="}" d="M290 -62v-100h176q106 -3 142 43q32 42 32 136v453q0 144 35 167q21 14 48.5 17t33.5 4v72q-59 8 -72 14q-34 17 -39.5 70.5t-5.5 103.5v381q0 82 -10 101t-22.5 35t-31.5 24q-47 21 -110 19h-176v-100h155q64 0 76.5 -15.5t12.5 -95.5v-413q0 -77 55 -138q4 -5 19 -22 q-1 -2 -13 -14.5t-23 -27.5q-38 -51 -38 -118v-486q0 -78 -8 -89.5t-21 -15.5q-16 -5 -60 -5h-155z" />
<glyph unicode="~" d="M154 1154l50 -65q47 45 79.5 64.5t63.5 19.5t105 -45t114 -45q103 0 206 109l-51 70q-41 -44 -75.5 -63.5t-76.5 -19.5t-109.5 46.5t-113.5 46.5q-84 0 -192 -118z" />
<glyph />
<glyph />
<glyph />
<glyph />
<glyph />
<glyph />
<glyph unicode="&#x85;" />
<glyph />
<glyph />
<glyph />
<glyph />
<glyph />
<glyph />
<glyph />
<glyph />
<glyph />
<glyph />
<glyph />
<glyph />
<glyph />
<glyph />
<glyph />
<glyph />
<glyph />
<glyph />
<glyph />
<glyph />
<glyph />
<glyph />
<glyph />
<glyph />
<glyph />
<glyph />
<glyph unicode="&#xa0;" />
<glyph unicode="&#xa1;" />
<glyph unicode="&#xa2;" />
<glyph unicode="&#xa3;" />
<glyph unicode="&#xa4;" />
<glyph unicode="&#xa5;" />
<glyph unicode="&#xa6;" />
<glyph unicode="&#xa7;" />
<glyph unicode="&#xa8;" d="M200 1220.5q0 46.5 32.5 78.5t79 32t78.5 -32t32 -78.5t-32 -80t-78.5 -33.5t-79 33.5t-32.5 80zM576 1220.5q0 46.5 32 78.5t79 32t79 -32t32 -78.5t-32.5 -80t-78.5 -33.5t-78.5 33.5t-32.5 80z" />
<glyph unicode="&#xa9;" />
<glyph unicode="&#xaa;" />
<glyph unicode="&#xab;" />
<glyph unicode="&#xac;" />
<glyph unicode="&#xad;" />
<glyph unicode="&#xae;" />
<glyph unicode="&#xaf;" />
<glyph unicode="&#xb0;" d="M369 1197.5q0 52.5 38 89.5t91 37t91 -37t38 -89.5t-38 -89.5t-91 -37t-91 37t-38 89.5zM430 1197q0 -28 20 -47.5t48 -19.5t48 19.5t20 47.5t-20 48t-48 20t-48 -20t-20 -48z" />
<glyph unicode="&#xb1;" />
<glyph unicode="&#xb2;" />
<glyph unicode="&#xb3;" />
<glyph unicode="&#xb4;" d="M384 1083h153l222 183l-125 65z" />
<glyph unicode="&#xb5;" />
<glyph unicode="&#xb6;" />
<glyph unicode="&#xb7;" />
<glyph unicode="&#xb8;" />
<glyph unicode="&#xb9;" />
<glyph unicode="&#xba;" />
<glyph unicode="&#xbb;" />
<glyph unicode="&#xbc;" />
<glyph unicode="&#xbd;" />
<glyph unicode="&#xbe;" />
<glyph unicode="&#xbf;" />
<glyph unicode="&#xc0;" d="M82 0l335 1331h164l335 -1331h-133l-92 361h-384l-92 -361h-133zM200 1636l125 65l250 -248h-153zM340 492h318l-156 624l-3 18z" />
<glyph unicode="&#xc1;" d="M82 0l335 1331h164l335 -1331h-133l-92 361h-384l-92 -361h-133zM340 492h318l-156 624l-3 18zM422 1453h153l222 183l-125 65z" />
<glyph unicode="&#xc2;" d="M82 0l335 1331h164l335 -1331h-133l-92 361h-384l-92 -361h-133zM161 1453l250 248h175l250 -248h-153l-185 152l-184 -152h-153zM340 492h318l-156 624l-3 18z" />
<glyph unicode="&#xc3;" d="M82 0l335 1331h164l335 -1331h-133l-92 361h-384l-92 -361h-133zM190 1524l50 -65q47 45 79.5 64.5t63.5 19.5t105 -45t114 -45q103 0 206 109l-51 70q-41 -44 -75.5 -63.5t-76.5 -19.5t-109.5 46.5t-113.5 46.5q-84 0 -192 -118zM340 492h318l-156 624l-3 18z" />
<glyph unicode="&#xc4;" d="M82 0l335 1331h164l335 -1331h-133l-92 361h-384l-92 -361h-133zM200 1566.5q0 46.5 32.5 78.5t79 32t78.5 -32t32 -78.5t-32 -80t-78.5 -33.5t-79 33.5t-32.5 80zM340 492h318l-156 624l-3 18zM576 1566.5q0 46.5 32 78.5t79 32t79 -32t32 -78.5t-32.5 -80t-78.5 -33.5 t-78.5 33.5t-32.5 80z" />
<glyph unicode="&#xc5;" d="M82 0l335 1331h164l335 -1331h-133l-92 361h-384l-92 -361h-133zM340 492h318l-156 624l-3 18zM370 1545.5q0 52.5 38 89.5t91 37t91 -37t38 -89.5t-38 -89.5t-91 -37t-91 37t-38 89.5zM431 1545q0 -28 20 -47.5t48 -19.5t48 19.5t20 47.5t-20 48t-48 20t-48 -20t-20 -48 z" />
<glyph unicode="&#xc6;" />
<glyph unicode="&#xc7;" />
<glyph unicode="&#xc8;" />
<glyph unicode="&#xc9;" />
<glyph unicode="&#xca;" />
<glyph unicode="&#xcb;" />
<glyph unicode="&#xcc;" />
<glyph unicode="&#xcd;" />
<glyph unicode="&#xce;" />
<glyph unicode="&#xcf;" />
<glyph unicode="&#xd0;" />
<glyph unicode="&#xd1;" />
<glyph unicode="&#xd2;" />
<glyph unicode="&#xd3;" />
<glyph unicode="&#xd4;" />
<glyph unicode="&#xd5;" />
<glyph unicode="&#xd6;" />
<glyph unicode="&#xd7;" />
<glyph unicode="&#xd8;" />
<glyph unicode="&#xd9;" />
<glyph unicode="&#xda;" />
<glyph unicode="&#xdb;" />
<glyph unicode="&#xdc;" />
<glyph unicode="&#xdd;" />
<glyph unicode="&#xde;" />
<glyph unicode="&#xdf;" />
<glyph unicode="&#xe0;" d="M116 367q59 172 237 206q51 8 156 8l154 -2v24q0 166 -19.5 199t-54 49.5t-108.5 16.5q-120 0 -176 -62q-34 -38 -44 -110l-120 21q0 97 64 174q89 107 281.5 107t271.5 -135q24 -44 28 -81l6 -52q2 -22 2 -56v-400q-3 -72 7.5 -95t17.5 -33q20 -26 77 -36v-113 q-60 4 -105.5 26.5t-60.5 42.5l-16 21h-5q-53 -53 -186 -77q-51 -10 -129 -10t-151 46t-107 115q-53 110 -20 206zM214 1268l125 65l250 -248h-153zM238 284q11 -151 182 -156q144 -4 205 51q27 22 38 59v210q-29 0 -91 2q-131 4 -195 -6t-93.5 -30.5t-42.5 -75.5 q-6 -12 -3 -54z" />
<glyph unicode="&#xe1;" d="M116 367q59 172 237 206q51 8 156 8l154 -2v24q0 166 -19.5 199t-54 49.5t-108.5 16.5q-120 0 -176 -62q-34 -38 -44 -110l-120 21q0 97 64 174q89 107 281.5 107t271.5 -135q24 -44 28 -81l6 -52q2 -22 2 -56v-400q-3 -72 7.5 -95t17.5 -33q20 -26 77 -36v-113 q-60 4 -105.5 26.5t-60.5 42.5l-16 21h-5q-53 -53 -186 -77q-51 -10 -129 -10t-151 46t-107 115q-53 110 -20 206zM238 284q11 -151 182 -156q144 -4 205 51q27 22 38 59v210q-29 0 -91 2q-131 4 -195 -6t-93.5 -30.5t-42.5 -75.5q-6 -12 -3 -54zM340 1085h153l222 183 l-125 65z" />
<glyph unicode="&#xe2;" d="M116 367q59 172 237 206q51 8 156 8l154 -2v24q0 166 -19.5 199t-54 49.5t-108.5 16.5q-120 0 -176 -62q-34 -38 -44 -110l-120 21q0 97 64 174q89 107 281.5 107t271.5 -135q24 -44 28 -81l6 -52q2 -22 2 -56v-400q-3 -72 7.5 -95t17.5 -33q20 -26 77 -36v-113 q-60 4 -105.5 26.5t-60.5 42.5l-16 21h-5q-53 -53 -186 -77q-51 -10 -129 -10t-151 46t-107 115q-53 110 -20 206zM143 1084l250 248h175l250 -248h-153l-185 152l-184 -152h-153zM238 284q11 -151 182 -156q144 -4 205 51q27 22 38 59v210q-29 0 -91 2q-131 4 -195 -6 t-93.5 -30.5t-42.5 -75.5q-6 -12 -3 -54z" />
<glyph unicode="&#xe3;" d="M116 367q59 172 237 206q51 8 156 8l154 -2v24q0 166 -19.5 199t-54 49.5t-108.5 16.5q-120 0 -176 -62q-34 -38 -44 -110l-120 21q0 97 64 174q89 107 281.5 107t271.5 -135q24 -44 28 -81l6 -52q2 -22 2 -56v-400q-3 -72 7.5 -95t17.5 -33q20 -26 77 -36v-113 q-60 4 -105.5 26.5t-60.5 42.5l-16 21h-5q-53 -53 -186 -77q-51 -10 -129 -10t-151 46t-107 115q-53 110 -20 206zM172 1155l50 -65q47 45 79.5 64.5t63.5 19.5t105 -45t114 -45q103 0 206 109l-51 70q-41 -44 -75.5 -63.5t-76.5 -19.5t-109.5 46.5t-113.5 46.5 q-84 0 -192 -118zM238 284q11 -151 182 -156q144 -4 205 51q27 22 38 59v210q-29 0 -91 2q-131 4 -195 -6t-93.5 -30.5t-42.5 -75.5q-6 -12 -3 -54z" />
<glyph unicode="&#xe4;" d="M116 367q59 172 237 206q51 8 156 8l154 -2v24q0 166 -19.5 199t-54 49.5t-108.5 16.5q-120 0 -176 -62q-34 -38 -44 -110l-120 21q0 97 64 174q89 107 281.5 107t271.5 -135q24 -44 28 -81l6 -52q2 -22 2 -56v-400q-3 -72 7.5 -95t17.5 -33q20 -26 77 -36v-113 q-60 4 -105.5 26.5t-60.5 42.5l-16 21h-5q-53 -53 -186 -77q-51 -10 -129 -10t-151 46t-107 115q-53 110 -20 206zM182 1222.5q0 46.5 32.5 78.5t79 32t78.5 -32t32 -78.5t-32 -80t-78.5 -33.5t-79 33.5t-32.5 80zM238 284q11 -151 182 -156q144 -4 205 51q27 22 38 59v210 q-29 0 -91 2q-131 4 -195 -6t-93.5 -30.5t-42.5 -75.5q-6 -12 -3 -54zM558 1222.5q0 46.5 32 78.5t79 32t79 -32t32 -78.5t-32.5 -80t-78.5 -33.5t-78.5 33.5t-32.5 80z" />
<glyph unicode="&#xe5;" d="M116 367q59 172 237 206q51 8 156 8l154 -2v24q0 166 -19.5 199t-54 49.5t-108.5 16.5q-120 0 -176 -62q-34 -38 -44 -110l-120 21q0 97 64 174q89 107 281.5 107t271.5 -135q24 -44 28 -81l6 -52q2 -22 2 -56v-400q-3 -72 7.5 -95t17.5 -33q20 -26 77 -36v-113 q-60 4 -105.5 26.5t-60.5 42.5l-16 21h-5q-53 -53 -186 -77q-51 -10 -129 -10t-151 46t-107 115q-53 110 -20 206zM238 284q11 -151 182 -156q144 -4 205 51q27 22 38 59v210q-29 0 -91 2q-131 4 -195 -6t-93.5 -30.5t-42.5 -75.5q-6 -12 -3 -54zM352 1209.5q0 52.5 38 89.5 t91 37t91 -37t38 -89.5t-38 -89.5t-91 -37t-91 37t-38 89.5zM413 1209q0 -28 20 -47.5t48 -19.5t48 19.5t20 47.5t-20 48t-48 20t-48 -20t-20 -48z" />
<glyph unicode="&#xe6;" />
<glyph unicode="&#xe7;" />
<glyph unicode="&#xe8;" d="M118 494q0 338 194 453q79 47 182 49h3q388 -11 381 -489v-62h-627q19 -301 246 -314q187 0 238 163l125 -38q-33 -104 -121 -180t-242 -76h-3q-192 8 -292 159q-84 127 -84 335zM243 1268l125 65l250 -248h-153zM256 573h489q-7 151 -69 228q-31 38 -92.5 54t-134 4.5 t-129.5 -85t-64 -201.5z" />
<glyph unicode="&#xe9;" d="M118 494q0 338 194 453q79 47 182 49h3q388 -11 381 -489v-62h-627q19 -301 246 -314q187 0 238 163l125 -38q-33 -104 -121 -180t-242 -76h-3q-192 8 -292 159q-84 127 -84 335zM256 573h489q-7 151 -69 228q-31 38 -92.5 54t-134 4.5t-129.5 -85t-64 -201.5zM375 1084 h153l222 183l-125 65z" />
<glyph unicode="&#xea;" d="M118 494q0 338 194 453q79 47 182 49h3q388 -11 381 -489v-62h-627q19 -301 246 -314q187 0 238 163l125 -38q-33 -104 -121 -180t-242 -76h-3q-192 8 -292 159q-84 127 -84 335zM158 1083l250 248h175l250 -248h-153l-185 152l-184 -152h-153zM256 573h489 q-7 151 -69 228q-31 38 -92.5 54t-134 4.5t-129.5 -85t-64 -201.5z" />
<glyph unicode="&#xeb;" d="M118 494q0 338 194 453q79 47 182 49h3q388 -11 381 -489v-62h-627q19 -301 246 -314q187 0 238 163l125 -38q-33 -104 -121 -180t-242 -76h-3q-192 8 -292 159q-84 127 -84 335zM202 1263.5q0 46.5 32.5 78.5t79 32t78.5 -32t32 -78.5t-32 -80t-78.5 -33.5t-79 33.5 t-32.5 80zM256 573h489q-7 151 -69 228q-31 38 -92.5 54t-134 4.5t-129.5 -85t-64 -201.5zM578 1263.5q0 46.5 32 78.5t79 32t79 -32t32 -78.5t-32.5 -80t-78.5 -33.5t-78.5 33.5t-32.5 80z" />
<glyph unicode="&#xec;" />
<glyph unicode="&#xed;" />
<glyph unicode="&#xee;" />
<glyph unicode="&#xef;" />
<glyph unicode="&#xf0;" />
<glyph unicode="&#xf1;" />
<glyph unicode="&#xf2;" />
<glyph unicode="&#xf3;" />
<glyph unicode="&#xf4;" />
<glyph unicode="&#xf5;" />
<glyph unicode="&#xf6;" />
<glyph unicode="&#xf7;" />
<glyph unicode="&#xf8;" />
<glyph unicode="&#xf9;" />
<glyph unicode="&#xfa;" />
<glyph unicode="&#xfb;" />
<glyph unicode="&#xfc;" />
<glyph unicode="&#xfd;" />
<glyph unicode="&#xfe;" />
<glyph unicode="&#xff;" />
<glyph unicode="&#x2000;" horiz-adv-x="850" />
<glyph unicode="&#x2001;" horiz-adv-x="1701" />
<glyph unicode="&#x2002;" horiz-adv-x="850" />
<glyph unicode="&#x2003;" horiz-adv-x="1701" />
<glyph unicode="&#x2004;" horiz-adv-x="567" />
<glyph unicode="&#x2005;" horiz-adv-x="425" />
<glyph unicode="&#x2006;" horiz-adv-x="283" />
<glyph unicode="&#x2007;" horiz-adv-x="283" />
<glyph unicode="&#x2008;" horiz-adv-x="212" />
<glyph unicode="&#x2009;" horiz-adv-x="340" />
<glyph unicode="&#x200a;" horiz-adv-x="94" />
<glyph unicode="&#x2010;" d="M138 402v136h722v-136h-722z" />
<glyph unicode="&#x2011;" d="M138 402v136h722v-136h-722z" />
<glyph unicode="&#x2012;" d="M138 402v136h722v-136h-722z" />
<glyph unicode="&#x2013;" horiz-adv-x="1300" d="M138 402v136h1024v-136h-1024z" />
<glyph unicode="&#x2014;" horiz-adv-x="2324" d="M138 402v136h2048v-136h-2048z" />
<glyph unicode="&#x202f;" horiz-adv-x="340" />
<glyph unicode="&#x205f;" horiz-adv-x="425" />
<glyph unicode="&#xe000;" horiz-adv-x="1000" d="M0 0v1000h1000v-1000h-1000z" />
</font>
</defs>
</svg>
