<?xml version="1.0" encoding="UTF-8" standalone="no"?>
<!-- Created with Inkscape (http://www.inkscape.org/) -->

<svg
   xmlns:dc="http://purl.org/dc/elements/1.1/"
   xmlns:cc="http://creativecommons.org/ns#"
   xmlns:rdf="http://www.w3.org/1999/02/22-rdf-syntax-ns#"
   xmlns:svg="http://www.w3.org/2000/svg"
   xmlns="http://www.w3.org/2000/svg"
   xmlns:sodipodi="http://sodipodi.sourceforge.net/DTD/sodipodi-0.dtd"
   xmlns:inkscape="http://www.inkscape.org/namespaces/inkscape"
   width="1052.3622"
   height="744.09448"
   id="svg4791"
   version="1.1"
   inkscape:version="0.48.1 r9760"
   sodipodi:docname="Nouveau document 6">
  <defs
     id="defs3" />
  <sodipodi:namedview
     inkscape:document-units="mm"
     id="base"
     pagecolor="#ffffff"
     bordercolor="#666666"
     borderopacity="1.0"
     inkscape:pageopacity="0.0"
     inkscape:pageshadow="2"
     inkscape:zoom="0.49497475"
     inkscape:cx="567.00906"
     inkscape:cy="360.07484"
     inkscape:current-layer="layer1"
     showgrid="false"
     units="mm"
     inkscape:window-width="1028"
     inkscape:window-height="713"
     inkscape:window-x="26"
     inkscape:window-y="20"
     inkscape:window-maximized="0" />
  <metadata
     id="metadata4">
    <rdf:RDF>
      <cc:Work
         rdf:about="">
        <dc:format>image/svg+xml</dc:format>
        <dc:type
           rdf:resource="http://purl.org/dc/dcmitype/StillImage" />
        <dc:title></dc:title>
      </cc:Work>
    </rdf:RDF>
  </metadata>
  <g
     inkscape:label="Layer 1"
     inkscape:groupmode="layer"
     id="layer1"
     transform="translate(0,-308.2677)">
    <g
       transform="translate(-7620.1333,-5563.0137)"
       id="layer1-4" />
    <path
       style="font-size:medium;font-style:normal;font-variant:normal;font-weight:normal;font-stretch:normal;text-indent:0;text-align:start;text-decoration:none;line-height:normal;letter-spacing:normal;word-spacing:normal;text-transform:none;direction:ltr;block-progression:tb;writing-mode:lr-tb;text-anchor:start;baseline-shift:baseline;color:#000000;fill:#000000;fill-opacity:1;stroke:none;stroke-width:5.375;marker:none;visibility:visible;display:inline;overflow:visible;enable-background:accumulate;font-family:Sans;-inkscape-font-specification:Sans"
       d="m 47.399654,381.67007 -9.818422,39.00798 3.922909,0 2.659639,-10.59424 11.303414,0 2.681807,10.59424 3.922937,0 -9.818422,-39.00798 z m 2.415861,5.66489 0.05463,0.51396 4.643967,18.42274 -9.37522,0 4.623714,-18.42915 z"
       id="path4028"
       inkscape:connector-curvature="0"
       sodipodi:nodetypes="ccccccccccccccc" />
    <path
       style="font-size:medium;font-style:normal;font-variant:normal;font-weight:normal;font-stretch:normal;text-indent:0;text-align:start;text-decoration:none;line-height:normal;letter-spacing:normal;word-spacing:normal;text-transform:none;direction:ltr;block-progression:tb;writing-mode:lr-tb;text-anchor:start;baseline-shift:baseline;color:#000000;fill:#000000;fill-opacity:1;stroke:none;stroke-width:5.375;marker:none;visibility:visible;display:inline;overflow:visible;enable-background:accumulate;font-family:Sans;-inkscape-font-specification:Sans"
       d="m 75.666811,381.67007 0,39.00798 c 0,0 9.13933,-0.0223 13.741415,-0.0223 3.296574,0 6.165084,-0.98267 8.156194,-2.94784 1.99112,-1.96506 2.96991,-4.79825 2.96991,-8.02323 0,-3.28072 -1.16866,-6.1349 -3.3024,-8.06755 -0.5091,-0.461 -1.0833,-0.83876 -1.67374,-1.20212 -0.29871,-0.18386 -0.64062,-0.16147 -0.78639,-0.2384 0.12512,-0.10359 0.39574,-0.0372 0.73138,-0.3104 2.0077,-1.86807 2.99211,-4.68082 2.99211,-8.04534 0,-2.4939 -0.80562,-5.07289 -2.65964,-7.02588 -1.854,-1.9529 -4.71713,-3.13412 -8.311386,-3.13412 -3.998925,-0.0446 -11.857453,0.009 -11.857453,0.009 z m 3.812118,3.76783 8.045335,0 c 2.772896,0 4.453226,0.84898 5.540926,1.99471 1.08774,1.14582 1.61796,2.71854 1.61796,4.38844 0,2.65667 -0.67561,4.23153 -1.7731,5.25276 -1.09753,1.02123 -2.83698,1.61797 -5.385786,1.61797 l -8.045335,0 z m 0,17.08814 9.308699,0 c 2.639342,0 4.601672,0.73405 5.895522,1.90607 1.29384,1.17183 2.03906,2.83226 2.03906,5.25276 0,2.47642 -0.68527,4.17996 -1.83962,5.31927 -1.1543,1.13932 -2.90531,1.83946 -5.474364,1.83965 l -9.929297,0 z"
       id="path4034"
       inkscape:connector-curvature="0"
       sodipodi:nodetypes="cccsscsccscccccsscscccccsscccc" />
    <path
       style="font-size:medium;font-style:normal;font-variant:normal;font-weight:normal;font-stretch:normal;text-indent:0;text-align:start;text-decoration:none;line-height:normal;letter-spacing:normal;word-spacing:normal;text-transform:none;direction:ltr;block-progression:tb;writing-mode:lr-tb;text-anchor:start;baseline-shift:baseline;color:#000000;fill:#000000;fill-opacity:1;stroke:none;stroke-width:5.375;marker:none;visibility:visible;display:inline;overflow:visible;enable-background:accumulate;font-family:Sans;-inkscape-font-specification:Sans"
       d="m 127.14122,381.67007 c -4.56429,0 -8.78607,2.93957 -11.2591,8.42218 -1.33406,2.9574 -1.78684,6.80968 -1.75095,10.68278 0.0361,3.87318 0.58814,7.70019 1.72874,10.57203 2.16062,5.43996 6.25347,9.33099 11.81322,9.33099 5.82176,0 10.23082,-4.79696 10.99313,-9.88509 l -3.7678,-0.554 c -0.48411,3.23111 -3.6105,6.62685 -7.22533,6.62694 -3.8769,0 -6.44663,-2.35388 -8.26704,-6.93725 -0.84988,-2.13982 -1.43023,-5.69109 -1.4628,-9.19785 -0.0326,-3.50685 0.48832,-7.02486 1.41849,-9.0872 2.05548,-4.55679 4.72405,-6.16138 7.77944,-6.16138 1.65033,0 3.11262,0.32963 4.3884,1.21903 1.27575,0.88921 2.73345,2.23217 3.59049,5.07549 l 3.391,-0.93102 c -1.03811,-3.44405 -2.7134,-5.82395 -4.78736,-7.26967 -2.07385,-1.44563 -4.42314,-1.90598 -6.58253,-1.90598 z"
       id="path4092"
       inkscape:connector-curvature="0"
       sodipodi:nodetypes="ssssscccsscsscccs" />
    <path
       style="font-size:medium;font-style:normal;font-variant:normal;font-weight:normal;font-stretch:normal;text-indent:0;text-align:start;text-decoration:none;line-height:normal;letter-spacing:normal;word-spacing:normal;text-transform:none;direction:ltr;block-progression:tb;writing-mode:lr-tb;text-anchor:start;baseline-shift:baseline;color:#000000;fill:#000000;fill-opacity:1;stroke:none;stroke-width:5.375;marker:none;visibility:visible;display:inline;overflow:visible;enable-background:accumulate;font-family:Sans;-inkscape-font-specification:Sans"
       d="m 155.87379,381.53461 -3.61262,0 0,39.00798 3.2359,0 c 0.68305,0.0678 4.86938,0.43945 8.53292,-0.44335 3.96859,-0.95629 7.29712,-2.93957 9.46388,-6.22791 2.16674,-3.28852 3.16937,-7.70177 3.16937,-13.45335 0,-5.81855 -1.3411,-10.05723 -3.61262,-13.0321 -2.27154,-2.97506 -5.41019,-4.55773 -8.51083,-5.31928 -2.99361,-0.6169 -5.5506,-0.53199 -8.666,-0.53199 z m 7.75726,4.2333 c 2.51424,0.61745 4.72747,1.75454 6.38311,3.92289 1.65571,2.16844 2.83693,5.48864 2.83693,10.72718 0,5.30572 -0.95491,8.92871 -2.54874,11.34781 -1.59396,2.41901 -3.84329,3.81103 -7.15889,4.61003 -2.4721,0.59572 -6.01198,0.42096 -7.07015,0.35462 l 0,-31.38368 c 2.3565,-0.0446 5.12494,-0.15209 7.55774,0.42115 z"
       id="path4094"
       inkscape:connector-curvature="0"
       sodipodi:nodetypes="ccccccsscccssssccc" />
    <path
       style="font-size:medium;font-style:normal;font-variant:normal;font-weight:normal;font-stretch:normal;text-indent:0;text-align:start;text-decoration:none;line-height:normal;letter-spacing:normal;word-spacing:normal;text-transform:none;direction:ltr;block-progression:tb;writing-mode:lr-tb;text-anchor:start;baseline-shift:baseline;color:#000000;fill:#000000;fill-opacity:1;stroke:none;stroke-width:5.375;marker:none;visibility:visible;display:inline;overflow:visible;enable-background:accumulate;font-family:Sans;-inkscape-font-specification:Sans"
       d="m 190.25812,381.65902 0,39.01903 24.60157,0 0,-3.81215 -20.78945,0 0,-14.05176 17.04377,0 0,-3.81205 -17.04377,0 0,-13.54198 20.78945,0 0,-3.80109 z"
       id="path4098"
       inkscape:connector-curvature="0"
       sodipodi:nodetypes="ccccccccccccc" />
    <path
       style="font-size:medium;font-style:normal;font-variant:normal;font-weight:normal;font-stretch:normal;text-indent:0;text-align:start;text-decoration:none;line-height:normal;letter-spacing:normal;word-spacing:normal;text-transform:none;direction:ltr;block-progression:tb;writing-mode:lr-tb;text-anchor:start;baseline-shift:baseline;color:#000000;fill:#000000;fill-opacity:1;stroke:none;stroke-width:5.375;marker:none;visibility:visible;display:inline;overflow:visible;enable-background:accumulate;font-family:Sans;-inkscape-font-specification:Sans"
       d="m 228.45459,381.65902 0,39.01903 3.81209,0 0,-17.86391 17.02165,0 0,-3.81205 -17.02165,0 0,-13.54198 20.76727,0 0,-3.80109 z"
       id="path4106"
       inkscape:connector-curvature="0"
       sodipodi:nodetypes="ccccccccccc" />
    <path
       style="font-size:medium;font-style:normal;font-variant:normal;font-weight:normal;font-stretch:normal;text-indent:0;text-align:start;text-decoration:none;line-height:normal;letter-spacing:normal;word-spacing:normal;text-transform:none;direction:ltr;block-progression:tb;writing-mode:lr-tb;text-anchor:start;baseline-shift:baseline;color:#000000;fill:#000000;fill-opacity:1;stroke:none;stroke-width:5.375;marker:none;visibility:visible;display:inline;overflow:visible;enable-background:accumulate;font-family:Sans;-inkscape-font-specification:Sans"
       d="m 279.64077,381.67007 c -4.56426,0 -8.76388,2.93957 -11.23696,8.42218 -1.334,2.9574 -1.80898,6.80978 -1.77309,10.68278 0.0361,3.87318 0.58817,7.70019 1.72877,10.57203 2.16062,5.43996 6.27566,9.33099 11.83533,9.33099 3.49519,0 6.21693,-2.11279 7.40584,-4.17188 l 0.44005,4.10526 3.06972,0 0,-19.76988 -12.97678,0 0,3.81214 9.15354,0 0,6.18368 c -0.75316,3.03536 -3.70344,6.02844 -7.09237,6.02853 -3.87688,0 -6.46869,-2.35388 -8.28915,-6.93725 -0.84988,-2.13982 -1.43026,-5.69109 -1.46281,-9.19785 -0.0326,-3.50695 0.48825,-7.02476 1.41847,-9.0872 2.05551,-4.5567 4.72408,-6.16147 7.77944,-6.16138 4.30066,-0.0372 6.85285,2.64301 7.91235,6.29452 l 3.45752,-0.93102 c -1.76129,-5.98217 -5.84429,-9.12919 -11.36987,-9.17565 z"
       id="path4112"
       inkscape:connector-curvature="0"
       sodipodi:nodetypes="csssscccccccccssccccc" />
    <path
       inkscape:connector-curvature="0"
       style="font-size:medium;font-style:normal;font-variant:normal;font-weight:normal;font-stretch:normal;text-indent:0;text-align:start;text-decoration:none;line-height:normal;letter-spacing:normal;word-spacing:normal;text-transform:none;direction:ltr;block-progression:tb;writing-mode:lr-tb;text-anchor:start;baseline-shift:baseline;color:#000000;fill:#000000;fill-opacity:1;stroke:none;stroke-width:5.375;marker:none;visibility:visible;display:inline;overflow:visible;enable-background:accumulate;font-family:Sans;-inkscape-font-specification:Sans"
       d="m 304.70533,381.67007 0,39.00798 3.81216,0 0,-17.86391 17.02161,0 0,17.86391 3.81212,0 0,-39.00798 -3.81212,0 0,17.33202 -17.02161,0 0,-17.33202 -3.81216,0 z"
       id="path4118" />
    <path
       sodipodi:nodetypes="ccccccccccccc"
       inkscape:connector-curvature="0"
       style="font-size:medium;font-style:normal;font-variant:normal;font-weight:normal;font-stretch:normal;text-indent:0;text-align:start;text-decoration:none;line-height:normal;letter-spacing:normal;word-spacing:normal;text-transform:none;direction:ltr;block-progression:tb;writing-mode:lr-tb;text-anchor:start;baseline-shift:baseline;color:#000000;fill:#000000;fill-opacity:1;stroke:none;stroke-width:5.375;marker:none;visibility:visible;display:inline;overflow:visible;enable-background:accumulate;font-family:Sans;-inkscape-font-specification:Sans"
       d="m 342.94613,381.57521 0,3.81215 10.52775,0 0,31.47854 -10.52775,0 0,3.81215 24.84541,0 0,-3.81215 -10.50554,0 0,-31.47854 10.50554,0 0,-3.81215 z"
       id="path4124" />
    <path
       style="font-size:medium;font-style:normal;font-variant:normal;font-weight:normal;font-stretch:normal;text-indent:0;text-align:start;text-decoration:none;line-height:normal;letter-spacing:normal;word-spacing:normal;text-transform:none;direction:ltr;block-progression:tb;writing-mode:lr-tb;text-anchor:start;baseline-shift:baseline;color:#000000;fill:#000000;fill-opacity:1;stroke:none;stroke-width:5.375;marker:none;visibility:visible;display:inline;overflow:visible;enable-background:accumulate;font-family:Sans;-inkscape-font-specification:Sans"
       d="m 385.9298,381.69163 0,3.81205 16.40103,0 c -0.007,3.18261 -0.0221,10.85614 -0.0221,19.54821 0,4.85354 -1.24244,7.73717 -2.92562,9.44183 -1.6832,1.70437 -3.95581,2.39587 -6.5826,2.37144 -2.42842,-0.0223 -4.26476,-1.08701 -5.58521,-2.5488 -1.3204,-1.46198 -2.01684,-3.36545 -2.01684,-4.54351 l -3.81215,0 c 0,2.4126 1.07167,4.96614 2.99203,7.09231 1.92038,2.12617 4.82024,3.77879 8.37785,3.81214 3.35935,0.0316 6.80978,-0.94857 9.35304,-3.52404 2.54325,-2.57556 4.01162,-6.579 4.01162,-12.10137 -0.007,-7.77945 0.0221,-23.33815 0.0221,-23.33815 l 0,-0.0223 z"
       id="path4130"
       inkscape:connector-curvature="0"
       sodipodi:nodetypes="cccscccccscccccc" />
    <path
       style="font-size:medium;font-style:normal;font-variant:normal;font-weight:normal;font-stretch:normal;text-indent:0;text-align:start;text-decoration:none;line-height:normal;letter-spacing:normal;word-spacing:normal;text-transform:none;direction:ltr;block-progression:tb;writing-mode:lr-tb;text-anchor:start;baseline-shift:baseline;color:#000000;fill:#000000;fill-opacity:1;stroke:none;stroke-width:5.375;marker:none;visibility:visible;display:inline;overflow:visible;enable-background:accumulate;font-family:Sans;-inkscape-font-specification:Sans"
       d="m 419.73785,381.67007 0,39.00798 3.81215,0 0,-10.54993 6.67012,-8.95564 10.31038,19.50557 4.29974,0 -12.14886,-22.78415 12.10133,-16.22383 -4.74303,0 -16.48968,22.09711 0,-22.09711 z"
       id="path4134"
       inkscape:connector-curvature="0"
       sodipodi:nodetypes="ccccccccccccc" />
    <path
       style="font-size:medium;font-style:normal;font-variant:normal;font-weight:normal;font-stretch:normal;text-indent:0;text-align:start;text-decoration:none;line-height:normal;letter-spacing:normal;word-spacing:normal;text-transform:none;direction:ltr;block-progression:tb;writing-mode:lr-tb;text-anchor:start;baseline-shift:baseline;color:#000000;fill:#000000;fill-opacity:1;stroke:none;stroke-width:5.375;marker:none;visibility:visible;display:inline;overflow:visible;enable-background:accumulate;font-family:Sans;-inkscape-font-specification:Sans"
       d="m 458.42511,381.67007 0,39.00798 24.60157,0 0,-3.81215 -20.78945,0 0,-35.19583 z"
       id="path4140"
       inkscape:connector-curvature="0"
       sodipodi:nodetypes="ccccccc" />
    <path
       style="font-size:medium;font-style:normal;font-variant:normal;font-weight:normal;font-stretch:normal;text-indent:0;text-align:start;text-decoration:none;line-height:normal;letter-spacing:normal;word-spacing:normal;text-transform:none;direction:ltr;block-progression:tb;writing-mode:lr-tb;text-anchor:start;baseline-shift:baseline;color:#000000;fill:#000000;fill-opacity:1;stroke:none;stroke-width:5.375;marker:none;visibility:visible;display:inline;overflow:visible;enable-background:accumulate;font-family:Sans;-inkscape-font-specification:Sans"
       d="m 518.16458,381.4837 -8.87423,18.1089 -0.0799,0.42895 -0.082,-0.43341 -8.87205,-18.10444 -3.63483,0 0,39.01699 3.81214,0 0,-30.45276 8.77677,18.72831 8.77679,-18.90558 0,30.80739 3.81214,0 0,-39.19435 z"
       id="path4144"
       inkscape:connector-curvature="0"
       sodipodi:nodetypes="ccccccccccccccc" />
    <path
       style="font-size:medium;font-style:normal;font-variant:normal;font-weight:normal;font-stretch:normal;text-indent:0;text-align:start;text-decoration:none;line-height:normal;letter-spacing:normal;word-spacing:normal;text-transform:none;direction:ltr;block-progression:tb;writing-mode:lr-tb;text-anchor:start;baseline-shift:baseline;color:#000000;fill:#000000;fill-opacity:1;stroke:none;stroke-width:5.375;marker:none;visibility:visible;display:inline;overflow:visible;enable-background:accumulate;font-family:Sans;-inkscape-font-specification:Sans"
       d="m 538.98478,381.67016 -3.59049,0 0,39.00789 3.81212,0 0,-31.39669 17.22106,31.39669 3.56839,0 0,-39.00789 -3.81212,0 0,31.25966 z"
       id="path4146"
       inkscape:connector-curvature="0"
       sodipodi:nodetypes="ccccccccccc" />
    <path
       style="font-size:medium;font-style:normal;font-variant:normal;font-weight:normal;font-stretch:normal;text-indent:0;text-align:start;text-decoration:none;line-height:normal;letter-spacing:normal;word-spacing:normal;text-transform:none;direction:ltr;block-progression:tb;writing-mode:lr-tb;text-anchor:start;baseline-shift:baseline;color:#000000;fill:#000000;fill-opacity:1;stroke:none;stroke-width:5.37500048;marker:none;visibility:visible;display:inline;overflow:visible;enable-background:accumulate;font-family:Sans;-inkscape-font-specification:Sans"
       d="m 585.84723,381.62585 c -4.36924,0 -7.75033,2.56264 -9.64113,6.18359 -1.89086,3.62094 -2.61536,8.2829 -2.61536,13.34251 0,5.07976 0.82031,9.75668 2.74832,13.36462 1.92793,3.60794 5.26443,6.16148 9.50817,6.16148 4.2437,0 7.57414,-2.55391 9.50817,-6.16148 1.93406,-3.60766 2.77046,-8.28346 2.77046,-13.36462 0,-5.061 -0.74046,-9.72185 -2.63749,-13.34251 -1.89691,-3.62067 -5.27176,-6.18359 -9.64114,-6.18359 z m 0,3.81205 c 3.01105,0 4.82807,1.38803 6.27228,4.14457 1.4443,2.75654 2.19426,6.89915 2.19426,11.56948 0,4.64988 -0.82023,8.79974 -2.30505,11.56929 -1.4848,2.76964 -3.33571,4.14466 -6.16149,4.14466 -2.82576,0 -4.65943,-1.3753 -6.13927,-4.14466 -1.47986,-2.76927 -2.30508,-6.91801 -2.30508,-11.56929 0,-4.67172 0.7549,-8.81313 2.19424,-11.56948 1.43926,-2.75626 3.23912,-4.14457 6.25011,-4.14457 z"
       id="path4148"
       inkscape:connector-curvature="0" />
    <path
       style="font-size:medium;font-style:normal;font-variant:normal;font-weight:normal;font-stretch:normal;text-indent:0;text-align:start;text-decoration:none;line-height:normal;letter-spacing:normal;word-spacing:normal;text-transform:none;direction:ltr;block-progression:tb;writing-mode:lr-tb;text-anchor:start;baseline-shift:baseline;color:#000000;fill:#000000;fill-opacity:1;stroke:none;stroke-width:5.375;marker:none;visibility:visible;display:inline;overflow:visible;enable-background:accumulate;font-family:Sans;-inkscape-font-specification:Sans"
       d="m 611.72074,381.67007 0,39.00798 3.81215,0 0,-16.77783 9.46388,0 c 3.18915,0 6.03103,-0.87899 8.02315,-2.88131 1.99231,-2.00224 2.94785,-4.95351 2.94785,-8.53302 0,-2.63009 -0.77965,-5.31407 -2.61528,-7.40261 -1.83571,-2.08854 -4.72855,-3.43532 -8.35572,-3.43532 -4.44658,-0.026 -13.27603,0.0223 -13.27603,0.0223 z m 3.81215,3.79004 9.46388,0 c 2.73995,0 4.39055,0.86923 5.49647,2.12774 1.10614,1.25833 1.66239,3.03081 1.66239,4.89804 0,2.92415 -0.72664,4.73258 -1.83965,5.85126 -1.11298,1.1186 -2.79508,1.75083 -5.31921,1.75092 l -9.46388,0 z"
       id="path4150"
       inkscape:connector-curvature="0"
       sodipodi:nodetypes="ccccscsscccscssccc" />
    <path
       style="font-size:medium;font-style:normal;font-variant:normal;font-weight:normal;font-stretch:normal;text-indent:0;text-align:start;text-decoration:none;line-height:normal;letter-spacing:normal;word-spacing:normal;text-transform:none;direction:ltr;block-progression:tb;writing-mode:lr-tb;text-anchor:start;baseline-shift:baseline;color:#000000;fill:#000000;fill-opacity:1;stroke:none;stroke-width:5.37500048;marker:none;visibility:visible;display:inline;overflow:visible;enable-background:accumulate;font-family:Sans;-inkscape-font-specification:Sans"
       d="m 661.84125,381.71448 c -4.36919,0 -7.74722,2.56283 -9.64109,6.18359 -1.89396,3.62085 -2.63749,8.28226 -2.63749,13.34251 0,5.08032 0.84574,9.80258 3.21178,13.80342 2.36609,4.00084 5.92313,5.63405 9.01163,5.63405 3.08848,0 4.8562,-1.10903 6.40158,-2.55317 0.0369,-0.0344 0.61844,-0.64598 0.65459,-0.68054 0.47302,0.86394 0.78947,2.25354 1.11091,3.23371 l 3.9894,0 c -0.62983,-2.12394 -1.38061,-4.2634 -2.50444,-6.27232 1.85848,-3.5809 2.65962,-8.17439 2.65962,-13.16515 0,-5.06035 -0.72152,-9.72166 -2.61527,-13.34251 -1.89394,-3.62057 -5.27193,-6.18359 -9.64122,-6.18359 z m 0,3.81205 c 3.0111,0 4.80837,1.3884 6.25017,4.14457 1.44179,2.75654 2.19429,6.89841 2.19429,11.56948 0,3.65764 -0.52443,6.98677 -1.46292,9.59679 -1.56915,-1.64621 -3.54972,-3.07056 -6.07274,-4.07804 l -1.16781,3.17007 c 2.75466,1.46365 4.0237,2.80336 5.33455,4.52065 -1.29721,1.66712 -2.88144,2.50448 -5.07554,2.50448 -2.82572,0 -4.67906,-1.3752 -6.16143,-4.14466 -1.48232,-2.76926 -2.30506,-6.91875 -2.30506,-11.56929 0,-4.67107 0.7525,-8.81294 2.19422,-11.56948 1.44174,-2.75617 3.26127,-4.14457 6.27227,-4.14457 z"
       id="path4154"
       inkscape:connector-curvature="0"
       sodipodi:nodetypes="scszzsccccscsscsccccscscs" />
    <path
       inkscape:connector-curvature="0"
       style="font-size:medium;font-style:normal;font-variant:normal;font-weight:normal;font-stretch:normal;text-indent:0;text-align:start;text-decoration:none;line-height:normal;letter-spacing:normal;word-spacing:normal;text-transform:none;direction:ltr;block-progression:tb;writing-mode:lr-tb;text-anchor:start;baseline-shift:baseline;color:#000000;fill:#000000;fill-opacity:1;stroke:none;stroke-width:5.375;marker:none;visibility:visible;display:inline;overflow:visible;enable-background:accumulate;font-family:Sans;-inkscape-font-specification:Sans"
       d="m 692.65727,381.64805 c -2.76312,0.009 -4.96462,0.0223 -4.96462,0.0223 l 0,39.00798 3.81215,0 0,-16.77783 10.30615,0 6.31659,16.77783 4.05592,0 -6.56036,-17.5536 c 1.27463,-0.47039 2.42331,-1.1553 3.36881,-2.10555 1.9922,-2.00223 2.94777,-4.9535 2.94777,-8.53301 0,-2.63009 -0.77954,-5.31398 -2.61533,-7.40261 -1.83569,-2.08855 -4.72861,-3.43541 -8.35573,-3.43532 -2.22327,-0.0139 -5.54809,-0.009 -8.31135,0 z m -1.15247,3.81215 9.46382,0 c 2.74009,0 4.39066,0.86923 5.49661,2.12775 1.10614,1.25833 1.66231,3.0308 1.66231,4.89813 0,2.92414 -0.72655,4.73257 -1.83959,5.85117 -1.11299,1.11859 -2.79521,1.75082 -5.31933,1.75092 l -9.46382,0 0,-14.62797 z"
       id="path4158" />
    <path
       style="font-size:medium;font-style:normal;font-variant:normal;font-weight:normal;font-stretch:normal;text-indent:0;text-align:start;text-decoration:none;line-height:normal;letter-spacing:normal;word-spacing:normal;text-transform:none;direction:ltr;block-progression:tb;writing-mode:lr-tb;text-anchor:start;baseline-shift:baseline;color:#000000;fill:#000000;fill-opacity:1;stroke:none;stroke-width:5.375;marker:none;visibility:visible;display:inline;overflow:visible;enable-background:accumulate;font-family:Sans;-inkscape-font-specification:Sans"
       d="m 738.23428,381.60364 c -3.60318,0 -6.6026,1.07568 -8.68808,3.01427 -2.08536,1.93859 -3.14683,4.68983 -3.1029,7.62429 0.0482,3.19032 2.00157,5.53213 4.14464,7.00367 2.14294,1.47155 4.57075,2.33689 6.33877,3.05858 1.9555,0.79817 4.28408,1.54699 6.0949,2.57092 1.811,1.02392 2.91833,2.10563 3.14724,3.74562 0.27176,1.94686 -0.16686,4.03159 -1.37415,5.56316 -1.20713,1.53147 -3.16568,2.68175 -6.64908,2.68175 -3.5045,0 -5.71118,-1.14591 -7.11448,-2.2606 -1.40329,-1.11479 -1.88394,-2.08353 -1.88394,-2.08353 l -3.36886,1.77312 c 0,0 0.91223,1.73829 2.8813,3.30246 1.96904,1.56409 5.11682,3.0807 9.48598,3.0807 4.39047,0 7.7105,-1.66712 9.66338,-4.14457 1.95292,-2.47754 2.54753,-5.59577 2.14981,-8.44438 -0.44044,-3.1552 -2.73588,-5.22786 -5.05322,-6.53821 -2.31743,-1.31036 -4.84902,-2.08102 -6.53826,-2.77048 -1.87678,-0.76601 -4.05336,-1.57737 -5.6296,-2.65964 -1.57613,-1.08227 -2.45574,-2.15441 -2.48228,-3.92289 -0.0305,-2.02443 0.62211,-3.61434 1.88387,-4.78738 1.26187,-1.17304 3.22687,-1.99471 6.09496,-1.99471 5.50742,0 7.64651,3.96721 7.64651,3.96721 l 3.30231,-1.90598 c 0,0 -3.5136,-5.87338 -10.94882,-5.87338 z"
       id="path4164"
       inkscape:connector-curvature="0" />
    <path
       inkscape:connector-curvature="0"
       style="font-size:medium;font-style:normal;font-variant:normal;font-weight:normal;font-stretch:normal;text-indent:0;text-align:start;text-decoration:none;line-height:normal;letter-spacing:normal;word-spacing:normal;text-transform:none;direction:ltr;block-progression:tb;writing-mode:lr-tb;text-anchor:start;baseline-shift:baseline;color:#000000;fill:#000000;fill-opacity:1;stroke:none;stroke-width:5.375;marker:none;visibility:visible;display:inline;overflow:visible;enable-background:accumulate;font-family:Sans;-inkscape-font-specification:Sans"
       d="m 763.67045,381.64796 0,3.81215 10.52759,0 0,35.21794 3.81215,0 0,-35.21794 10.50565,0 0,-3.81215 -24.84539,0 z"
       id="path4166" />
    <path
       style="font-size:medium;font-style:normal;font-variant:normal;font-weight:normal;font-stretch:normal;text-indent:0;text-align:start;text-decoration:none;line-height:normal;letter-spacing:normal;word-spacing:normal;text-transform:none;direction:ltr;block-progression:tb;writing-mode:lr-tb;text-anchor:start;baseline-shift:baseline;color:#000000;fill:#000000;fill-opacity:1;stroke:none;stroke-width:5.37500048;marker:none;visibility:visible;display:inline;overflow:visible;enable-background:accumulate;font-family:Sans;-inkscape-font-specification:Sans"
       d="m 802.11071,381.62585 0,22.363 c 0,5.08051 0.81307,9.15122 2.85926,12.12348 2.04598,2.97227 5.43068,4.56572 9.4194,4.56572 3.98878,0 7.35128,-1.59345 9.39727,-4.56572 2.04612,-2.97226 2.8592,-7.04297 2.8592,-12.12348 l 0,-22.363 -3.81217,0 0,22.363 c 0,4.65063 -0.82683,7.96508 -2.19421,9.95142 -1.36731,1.98634 -3.16932,2.92563 -6.25009,2.92563 -3.08074,0 -4.90492,-0.93929 -6.27221,-2.92563 -1.3674,-1.98634 -2.19427,-5.30079 -2.19427,-9.95142 l 0,-22.363 -3.81218,0 z"
       id="path4170"
       inkscape:connector-curvature="0" />
    <path
       style="font-size:medium;font-style:normal;font-variant:normal;font-weight:normal;font-stretch:normal;text-indent:0;text-align:start;text-decoration:none;line-height:normal;letter-spacing:normal;word-spacing:normal;text-transform:none;direction:ltr;block-progression:tb;writing-mode:lr-tb;text-anchor:start;baseline-shift:baseline;color:#000000;fill:#000000;fill-opacity:1;stroke:none;stroke-width:5.375;marker:none;visibility:visible;display:inline;overflow:visible;enable-background:accumulate;font-family:Sans;-inkscape-font-specification:Sans"
       d="m 840.24072,381.67007 9.72982,39.00798 4.85389,0 9.75189,-39.00798 -3.92293,0 -8.19901,33.42299 -0.0681,0.61123 -0.0729,-0.61123 -8.17193,-33.42299 z"
       id="path4172"
       inkscape:connector-curvature="0"
       sodipodi:nodetypes="cccccccccc" />
    <path
       style="font-size:medium;font-style:normal;font-variant:normal;font-weight:normal;font-stretch:normal;text-indent:0;text-align:start;text-decoration:none;line-height:normal;letter-spacing:normal;word-spacing:normal;text-transform:none;direction:ltr;block-progression:tb;writing-mode:lr-tb;text-anchor:start;baseline-shift:baseline;color:#000000;fill:#000000;fill-opacity:1;stroke:none;stroke-width:5.375;marker:none;visibility:visible;display:inline;overflow:visible;enable-background:accumulate;font-family:Sans;-inkscape-font-specification:Sans"
       d="m 878.17116,381.67007 2.48247,39.00798 4.60993,0 5.01696,-16.67145 0.14717,-1.19246 0.14363,1.19246 5.02049,16.67145 4.61003,0 2.50448,-39.00798 -3.83435,0 -1.92818,30.51928 -4.49928,-14.36197 -2.00577,-6.94626 -2.00576,6.96818 -4.49919,14.33977 -1.95039,-30.51918 z"
       id="path4174"
       inkscape:connector-curvature="0"
       sodipodi:nodetypes="ccccccccccccccccc" />
    <path
       style="font-size:medium;font-style:normal;font-variant:normal;font-weight:normal;font-stretch:normal;text-indent:0;text-align:start;text-decoration:none;line-height:normal;letter-spacing:normal;word-spacing:normal;text-transform:none;direction:ltr;block-progression:tb;writing-mode:lr-tb;text-anchor:start;baseline-shift:baseline;color:#000000;fill:#000000;fill-opacity:1;stroke:none;stroke-width:5.375;marker:none;visibility:visible;display:inline;overflow:visible;enable-background:accumulate;font-family:Sans;-inkscape-font-specification:Sans"
       d="m 916.41201,381.67007 9.8406,19.39324 -9.95144,19.61474 4.27761,0 7.80149,-16.11299 7.82386,16.11299 4.2554,0 -9.92931,-19.61474 9.81838,-19.39324 -4.27761,0 -7.69072,15.8692 -7.69075,-15.8692 z"
       id="path4179"
       inkscape:connector-curvature="0"
       sodipodi:nodetypes="ccccccccccccc" />
    <path
       style="font-size:medium;font-style:normal;font-variant:normal;font-weight:normal;font-stretch:normal;text-indent:0;text-align:start;text-decoration:none;line-height:normal;letter-spacing:normal;word-spacing:normal;text-transform:none;direction:ltr;block-progression:tb;writing-mode:lr-tb;text-anchor:start;baseline-shift:baseline;color:#000000;fill:#000000;fill-opacity:1;stroke:none;stroke-width:5.375;marker:none;visibility:visible;display:inline;overflow:visible;enable-background:accumulate;font-family:Sans;-inkscape-font-specification:Sans"
       d="m 954.05447,381.51492 10.15089,21.87552 0,17.28761 3.81214,0 0,-17.28761 10.17309,-21.87552 -4.21099,0 -7.86817,17.62012 -7.86799,-17.62012 z"
       id="path4183"
       inkscape:connector-curvature="0"
       sodipodi:nodetypes="cccccccccc" />
    <path
       style="font-size:medium;font-style:normal;font-variant:normal;font-weight:normal;font-stretch:normal;text-indent:0;text-align:start;text-decoration:none;line-height:normal;letter-spacing:normal;word-spacing:normal;text-transform:none;direction:ltr;block-progression:tb;writing-mode:lr-tb;text-anchor:start;baseline-shift:baseline;color:#000000;fill:#000000;fill-opacity:1;stroke:none;stroke-width:5.375;marker:none;visibility:visible;display:inline;overflow:visible;enable-background:accumulate;font-family:Sans;-inkscape-font-specification:Sans"
       d="m 992.3612,381.62566 0,3.81215 19.3266,0 -19.8585,31.51672 -0.044,3.72352 24.8674,0 0,-3.81215 -20.2796,0 19.6369,-31.22853 0,-4.01171 -23.6486,0 z"
       id="path4187"
       inkscape:connector-curvature="0"
       sodipodi:nodetypes="cccccccccccc" />
    <path
       inkscape:connector-curvature="0"
       style="font-size:medium;font-style:normal;font-variant:normal;font-weight:normal;font-stretch:normal;text-indent:0;text-align:start;text-decoration:none;line-height:normal;letter-spacing:normal;word-spacing:normal;text-transform:none;direction:ltr;block-progression:tb;writing-mode:lr-tb;text-anchor:start;baseline-shift:baseline;color:#000000;fill:#000000;fill-opacity:1;stroke:none;stroke-width:5.375;marker:none;visibility:visible;display:inline;overflow:visible;enable-background:accumulate;font-family:Sans;-inkscape-font-specification:Sans"
       d="m 50.794556,446.24317 c -2.618695,4.32694 -6.677164,7.95736 -10.600993,10.00345 l 1.748345,3.36396 c 3.330499,-1.73661 6.587082,-4.38129 9.295274,-7.59112 l 0,29.39074 -12.769881,0 0,3.80657 24.787366,0 0,-3.80657 -8.210858,0 0,-35.16703 -4.249253,0 z"
       id="path4400" />
    <path
       style="font-size:medium;font-style:normal;font-variant:normal;font-weight:normal;font-stretch:normal;text-indent:0;text-align:start;text-decoration:none;line-height:normal;letter-spacing:normal;word-spacing:normal;text-transform:none;direction:ltr;block-progression:tb;writing-mode:lr-tb;text-anchor:start;baseline-shift:baseline;color:#000000;fill:#000000;fill-opacity:1;stroke:none;stroke-width:5.375;marker:none;visibility:visible;display:inline;overflow:visible;enable-background:accumulate;font-family:Sans;-inkscape-font-specification:Sans"
       d="m 82.021923,448.34565 c -2.836161,1.97873 -4.145922,4.65091 -4.603357,6.8829 l 3.740273,0.77456 c 0.308014,-1.50286 1.037099,-3.14517 3.032,-4.53691 2.109185,-1.47155 5.171351,-1.74479 7.746051,-0.97385 2.57475,0.77103 4.43175,2.42208 4.7804,4.47067 0.45446,2.66976 0.20973,4.06169 -0.86309,5.90905 -1.07279,1.84745 -3.19933,4.11483 -6.528847,7.5469 -4.267872,4.31198 -12.681359,13.05766 -12.681359,13.05766 l -0.02183,3.74014 24.787356,0 0,-3.80657 -19.387259,0 c 1.701269,-1.75055 5.447349,-5.61621 10.025559,-10.3354 3.33235,-3.43495 5.64403,-5.78493 7.10428,-8.29935 1.46018,-2.51452 1.8529,-5.23994 1.30574,-8.45432 -0.65285,-3.83565 -3.84503,-6.41168 -7.41405,-7.48038 -3.635459,-1.0884 -8.287964,-0.34134 -11.021613,1.5049 z"
       id="path4404"
       inkscape:connector-curvature="0"
       sodipodi:nodetypes="cccssscccccccscscc" />
    <path
       style="font-size:medium;font-style:normal;font-variant:normal;font-weight:normal;font-stretch:normal;text-indent:0;text-align:start;text-decoration:none;line-height:normal;letter-spacing:normal;word-spacing:normal;text-transform:none;direction:ltr;block-progression:tb;writing-mode:lr-tb;text-anchor:start;baseline-shift:baseline;color:#000000;fill:#000000;fill-opacity:1;stroke:none;stroke-width:5.37500048;marker:none;visibility:visible;display:inline;overflow:visible;enable-background:accumulate;font-family:Sans;-inkscape-font-specification:Sans"
       d="m 119.91128,448.25711 c -2.8691,2.01756 -4.4201,4.66308 -4.93531,7.03786 l 3.7181,0.79668 c 0.2942,-1.35588 1.2922,-3.226 3.40826,-4.71399 1.90737,-1.3413 4.99666,-1.78938 7.56901,-1.10652 2.57235,0.68277 4.46167,2.21443 4.89105,4.78033 0.47854,2.8592 -0.61112,5.13439 -2.19099,6.36484 -2.39666,1.66963 -7.26986,1.83454 -7.26986,1.83454 l -0.37563,3.3962 c 4.75734,0 8.95036,1.25991 10.10212,5.06936 0.76499,2.7754 0.14249,5.03926 -1.28364,6.75013 -1.4261,1.71079 -3.71773,2.83496 -6.32963,2.85493 -5.777,0.0437 -8.34462,-2.26868 -9.00758,-3.62958 l -3.43035,1.65987 c 1.52093,3.12213 5.66391,5.82841 12.46004,5.77628 3.6747,-0.0279 7.04795,-1.61081 9.22891,-4.22706 2.18092,-2.61625 3.10491,-6.32499 2.03608,-10.20273 -0.82789,-3.00349 -3.70805,-5.38924 -5.64961,-5.85182 1.15807,-0.42904 1.68583,-0.81479 2.21918,-1.23027 2.53861,-1.97715 3.90651,-5.28212 3.25339,-9.18457 -0.70226,-4.19566 -4.06406,-6.87481 -7.67969,-7.83454 -3.5473,-0.93975 -8.04217,-0.17345 -10.73385,1.66006 z"
       id="path4406"
       inkscape:connector-curvature="0"
       sodipodi:nodetypes="cccsssccccsccccssccscc" />
    <path
       style="font-size:medium;font-style:normal;font-variant:normal;font-weight:normal;font-stretch:normal;text-indent:0;text-align:start;text-decoration:none;line-height:normal;letter-spacing:normal;word-spacing:normal;text-transform:none;direction:ltr;block-progression:tb;writing-mode:lr-tb;text-anchor:start;baseline-shift:baseline;color:#000000;fill:#000000;fill-opacity:1;stroke:none;stroke-width:5.375;marker:none;visibility:visible;display:inline;overflow:visible;enable-background:accumulate;font-family:Sans;-inkscape-font-specification:Sans"
       d="m 169.13565,446.24317 -16.20406,23.33815 0,5.93135 16.27043,-0.0344 0,9.6937 3.80661,0 0,-9.6937 4.5591,0 0,-3.80666 -4.5591,0 0,-25.42911 z m 0.0665,6.6615 0,18.76761 -12.19452,0 0.0221,-0.90733 z"
       id="path4408"
       inkscape:connector-curvature="0"
       sodipodi:nodetypes="ccccccccccccccccc" />
    <path
       style="font-size:medium;font-style:normal;font-variant:normal;font-weight:normal;font-stretch:normal;text-indent:0;text-align:start;text-decoration:none;line-height:normal;letter-spacing:normal;word-spacing:normal;text-transform:none;direction:ltr;block-progression:tb;writing-mode:lr-tb;text-anchor:start;baseline-shift:baseline;color:#000000;fill:#000000;fill-opacity:1;stroke:none;stroke-width:5.375;marker:none;visibility:visible;display:inline;overflow:visible;enable-background:accumulate;font-family:Sans;-inkscape-font-specification:Sans"
       d="m 193.49546,446.24317 -1.97288,19.5471 2.85494,1.10308 c 2.76421,-3.47536 5.7227,-4.52084 10.55992,-4.09616 2.699,0.42077 4.31704,1.50416 5.40012,2.98778 1.08305,1.48354 1.61561,3.92122 1.61561,6.24797 0,4.52958 -2.30774,8.09115 -6.68373,9.0297 -2.30033,0.49333 -4.93899,0.39048 -6.92721,-0.37628 -1.98817,-0.76657 -3.3087,-1.97547 -3.74019,-4.13852 l -3.5157,0.73034 c 0.69525,3.48483 3.00903,5.84076 5.88373,6.94932 2.87477,1.10847 6.14295,1.1867 9.09613,0.55326 6.13082,-1.31491 9.69361,-6.79352 9.69361,-12.74782 0,-2.91513 -0.68442,-6.17717 -2.36811,-8.48321 -1.68362,-2.30613 -4.37206,-3.96814 -7.87883,-4.51489 -3.81817,-0.59535 -7.1564,0.47893 -9.5166,1.61565 l 0.9738,-10.60112 15.71342,0 0,-3.80657 z"
       id="path4410"
       inkscape:connector-curvature="0"
       sodipodi:nodetypes="cccccsccccccsssccccc" />
    <path
       style="font-size:medium;font-style:normal;font-variant:normal;font-weight:normal;font-stretch:normal;text-indent:0;text-align:start;text-decoration:none;line-height:normal;letter-spacing:normal;word-spacing:normal;text-transform:none;direction:ltr;block-progression:tb;writing-mode:lr-tb;text-anchor:start;baseline-shift:baseline;color:#000000;fill:#000000;fill-opacity:1;stroke:none;stroke-width:5.375;marker:none;visibility:visible;display:inline;overflow:visible;enable-background:accumulate;font-family:Sans;-inkscape-font-specification:Sans"
       d="m 238.733,446.24317 c -1.72993,4.36355 -4.45689,11.28491 -6.06405,15.46998 -1.8502,4.81786 -2.55345,6.02909 -3.16484,9.4723 -1.74844,9.08386 5.5651,13.93628 11.75191,14.09784 6.65702,0 12.08383,-5.15827 12.08383,-11.46422 0,-6.30585 -5.42681,-11.44191 -12.08383,-11.44201 -1.85615,0 -3.96378,0.5868 -5.50747,1.44164 0.0644,-0.16621 0.41564,-0.55642 0.48356,-0.7335 1.79107,-4.66382 5.1914,-13.24533 6.61737,-16.84203 z m 2.52302,19.82991 c 4.54322,0 8.18867,3.44237 8.18867,7.74599 0,4.30363 -3.64545,7.76821 -8.18867,7.76821 -4.54325,0 -8.1887,-3.46458 -8.1887,-7.76821 0,-4.30362 3.64545,-7.74599 8.1887,-7.74599 z"
       id="path4412"
       inkscape:connector-curvature="0"
       sodipodi:nodetypes="ccccscccccsssss" />
    <path
       sodipodi:nodetypes="cccccccc"
       inkscape:connector-curvature="0"
       style="font-size:medium;font-style:normal;font-variant:normal;font-weight:normal;font-stretch:normal;text-indent:0;text-align:start;text-decoration:none;line-height:normal;letter-spacing:normal;word-spacing:normal;text-transform:none;direction:ltr;block-progression:tb;writing-mode:lr-tb;text-anchor:start;baseline-shift:baseline;color:#000000;fill:#000000;fill-opacity:1;stroke:none;stroke-width:5.375;marker:none;visibility:visible;display:inline;overflow:visible;enable-background:accumulate;font-family:Sans;-inkscape-font-specification:Sans"
       d="m 267.39587,446.37594 0,3.80657 20.58236,0 -19.343,34.93959 4.3378,0 19.23227,-34.69609 0,-4.05007 z"
       id="path4414" />
    <path
       style="font-size:medium;font-style:normal;font-variant:normal;font-weight:normal;font-stretch:normal;text-indent:0;text-align:start;text-decoration:none;line-height:normal;letter-spacing:normal;word-spacing:normal;text-transform:none;direction:ltr;block-progression:tb;writing-mode:lr-tb;text-anchor:start;baseline-shift:baseline;color:#000000;fill:#000000;fill-opacity:1;stroke:none;stroke-width:3.62292814;marker:none;visibility:visible;display:inline;overflow:visible;enable-background:accumulate;font-family:Sans;-inkscape-font-specification:Sans"
       d="m 317.63447,446.2874 c -5.45336,0 -9.91495,4.46156 -9.91495,9.91499 0,3.1356 1.47147,5.94761 3.76238,7.76811 -3.54836,2.00094 -5.93126,5.66945 -5.93126,9.84857 0,6.30595 5.4268,11.46404 12.08383,11.46422 6.65704,0 12.08385,-5.15827 12.08385,-11.46422 0,-4.17912 -2.38293,-7.84763 -5.93127,-9.84857 2.29084,-1.8205 3.76238,-4.63251 3.76238,-7.76811 0,-5.45343 -4.46166,-9.91499 -9.91496,-9.91499 z m 0,3.80666 c 3.3961,0 6.10832,2.71222 6.10832,6.10833 0,3.39602 -2.71222,6.32964 -6.10832,6.32964 -3.39608,0 -6.10831,-2.93362 -6.10831,-6.32964 0,-3.39611 2.71223,-6.10833 6.10831,-6.10833 z m 0,15.75762 c 4.53037,0 8.10017,3.04511 8.1887,7.96739 0.0885,4.92229 -3.64546,7.76821 -8.1887,7.76821 -4.54323,0 -8.18868,-2.84592 -8.18868,-7.76821 0,-4.92228 3.65833,-7.96739 8.18868,-7.96739 z"
       id="path4416"
       inkscape:connector-curvature="0"
       sodipodi:nodetypes="sscscscssssssszzszz" />
    <path
       style="font-size:medium;font-style:normal;font-variant:normal;font-weight:normal;font-stretch:normal;text-indent:0;text-align:start;text-decoration:none;line-height:normal;letter-spacing:normal;word-spacing:normal;text-transform:none;direction:ltr;block-progression:tb;writing-mode:lr-tb;text-anchor:start;baseline-shift:baseline;color:#000000;fill:#000000;fill-opacity:1;stroke:none;stroke-width:5.375;marker:none;visibility:visible;display:inline;overflow:visible;enable-background:accumulate;font-family:Sans;-inkscape-font-specification:Sans"
       d="m 355.8114,446.23992 c -6.65704,0 -12.10601,5.13616 -12.10601,11.44201 0,6.30595 5.44897,11.46403 12.10601,11.46422 3.13766,0 6.07905,-1.14006 8.14441,-3.29763 l -0.0218,19.25816 3.80664,0 0.0438,-25.94196 c 0.39113,-9.86817 -6.40344,-12.77931 -11.97323,-12.9248 z m 0,3.69601 c 4.38553,0 8.1287,2.90826 8.16651,7.30339 0.0375,4.39505 -3.47525,8.21082 -8.16651,8.21082 -4.69126,0 -8.1887,-3.46459 -8.1887,-7.76821 0,-4.30353 3.64545,-7.746 8.1887,-7.746 z"
       id="path4426"
       inkscape:connector-curvature="0"
       sodipodi:nodetypes="ssccccccsszsss" />
    <g
       id="g5062"
       transform="matrix(0.06017798,0,0,0.06017798,505.98708,406.67711)">
      <path
         inkscape:connector-curvature="0"
         id="path4430"
         d="m -1859.2867,654.92229 c -72.5016,0 -128.6049,42.52347 -159.98,102.60688 -31.3751,60.08457 -43.3967,137.44192 -43.3967,221.39792 0,84.29021 13.6116,161.89591 45.6033,221.76391 31.9918,59.8681 87.3548,102.2397 157.7734,102.2397 70.4174,0 125.6792,-42.3775 157.7722,-102.2397 32.0929,-59.8621 45.9716,-137.4501 45.9716,-221.76391 0,-83.97954 -12.2875,-161.31806 -43.765,-221.39792 -31.4763,-60.0787 -87.4784,-102.60688 -159.9788,-102.60688 z m 0,63.25621 c 49.9624,0 80.1135,23.03233 104.0779,68.77216 23.9656,45.74101 36.4097,114.48021 36.4097,191.97643 0,77.15731 -13.6104,146.01771 -38.2479,191.97411 -24.6387,45.9575 -55.3513,68.7733 -102.2397,68.7733 -46.8896,0 -77.3173,-22.8205 -101.8725,-68.7733 -24.5552,-45.9517 -38.248,-114.7933 -38.248,-191.97411 0,-77.51975 12.5265,-146.24013 36.4097,-191.97643 23.882,-45.73513 53.7472,-68.77216 103.7108,-68.77216 z"
         style="font-size:medium;font-style:normal;font-variant:normal;font-weight:normal;font-stretch:normal;text-indent:0;text-align:start;text-decoration:none;line-height:normal;letter-spacing:normal;word-spacing:normal;text-transform:none;direction:ltr;block-progression:tb;writing-mode:lr-tb;text-anchor:start;baseline-shift:baseline;color:#000000;fill:#000000;fill-opacity:1;stroke:none;stroke-width:5.37500048;marker:none;visibility:visible;display:inline;overflow:visible;enable-background:accumulate;font-family:Sans;-inkscape-font-specification:Sans" />
      <path
         id="path4432"
         d="m -1859.1031,910.50917 c -37.3736,0 -67.6695,30.29708 -67.6695,67.66944 0,37.37239 30.2959,67.66939 67.6695,67.66939 37.3723,0 67.6694,-30.297 67.6694,-67.66939 0,-37.37236 -30.2971,-67.66944 -67.6694,-67.66944 z"
         style="color:#000000;fill:#000000;stroke:none;stroke-width:5.375;marker:none;visibility:visible;display:inline;overflow:visible;enable-background:accumulate"
         inkscape:connector-curvature="0" />
    </g>
    <path
       inkscape:connector-curvature="0"
       d="m 53.319508,620.80289 c -3.902247,-0.009 -6.599736,1.34984 -8.130299,3.1854 -1.530535,1.83546 -1.87886,3.91118 -1.868594,5.12315 l 3.561484,0.57918 c 0.163014,-1.05728 0.457528,-2.30492 1.247374,-3.25211 0.789855,-0.94727 2.075655,-1.8087 5.167775,-1.80434 3.081175,0.009 4.147418,0.75255 4.900464,2.07163 0.746988,1.30859 1.025503,3.64863 1.002332,6.54872 -1.547063,-0.013 -3.054817,-0.0873 -4.499506,-0.1114 -1.58483,-0.0269 -3.106195,0.009 -4.566335,0.24509 -2.920186,0.47308 -5.715394,2.22679 -6.927436,5.63544 -0.606374,1.70549 -0.660836,4.04618 0.512288,6.5043 1.173216,2.45812 3.967197,4.74446 8.219433,4.74446 5.804427,0 8.608619,-2.5854 8.608619,-2.5854 l 0.123092,0 c 0,0 1.451425,2.04274 5.435049,2.27203 l 0.02323,-3.1146 c -1.952722,-0.17086 -2.491367,-1.25759 -2.829891,-2.07544 -0.338524,-0.81786 -0.289571,-1.80425 -0.289571,-1.80425 -0.01496,-3.26298 0.02239,-6.74205 0.02239,-9.60042 0,-0.009 0,-0.0149 0,-0.0223 0.02927,-3.11571 -0.104371,-6.06067 -1.514675,-8.53124 -1.413752,-2.47662 -4.283917,-4.00391 -8.197108,-4.00939 z m 5.858332,22.45293 c -0.05723,0.29052 -0.261607,0.92666 -1.113756,1.62615 -0.950463,0.78023 -2.71228,1.61992 -6.058722,1.55925 -3.117195,-0.0567 -4.165619,-1.20862 -4.811366,-2.56162 -0.645702,-1.353 -0.578929,-2.95805 -0.378697,-3.5862 0.736313,-2.30966 1.791677,-2.77363 3.920391,-3.1185 2.895436,-0.3419 5.641478,-0.11186 8.464354,-0.0892 0,0 0.03493,5.87969 -0.02211,6.17002 z"
       id="path4214"
       style="font-size:medium;font-style:normal;font-variant:normal;font-weight:normal;font-stretch:normal;text-indent:0;text-align:start;text-decoration:none;line-height:normal;letter-spacing:normal;word-spacing:normal;text-transform:none;direction:ltr;block-progression:tb;writing-mode:lr-tb;text-anchor:start;baseline-shift:baseline;color:#000000;fill:#000000;fill-opacity:1;stroke:none;stroke-width:5.375;marker:none;visibility:visible;display:inline;overflow:visible;enable-background:accumulate;font-family:Sans;-inkscape-font-specification:Sans" />
    <path
       inkscape:connector-curvature="0"
       d="m 80.873551,620.80289 0.03149,29.17074 3.831248,0 -0.0315,-22.17645 c 0,-0.81442 0.245283,-1.52609 0.824175,-2.16064 0.771878,-0.84601 2.186465,-1.11116 3.266738,-0.98007 1.476908,0.17922 1.996788,0.76397 2.375778,1.59075 0.37896,0.82677 0.34144,1.94045 0.34177,2.64143 l 0.0315,21.08498 3.83125,0 0.0644,-21.70867 c 0,0 0.12088,-1.80378 0.97333,-2.62842 0.85246,-0.82454 1.89894,-1.11822 3.03704,-0.98007 1.47691,0.17922 2.02827,0.73248 2.40724,1.55925 0.37899,0.82678 0.31028,1.97195 0.31028,2.67293 l 0.0315,21.08498 3.83128,0 -0.0315,-21.08498 c -0.003,-0.89822 -0.0413,-2.56897 -0.82416,-4.27668 -0.78285,-1.70781 -3.06496,-3.77108 -5.88053,-3.74219 -2.81557,0.0288 -4.36847,1.08366 -5.57635,2.6864 -0.85195,-1.37883 -2.27912,-2.64924 -4.454972,-2.6864 -2.175818,-0.0372 -3.368675,0.73183 -4.55866,1.89334 l 0,-1.96023 z"
       id="path4220"
       style="font-size:medium;font-style:normal;font-variant:normal;font-weight:normal;font-stretch:normal;text-indent:0;text-align:start;text-decoration:none;line-height:normal;letter-spacing:normal;word-spacing:normal;text-transform:none;direction:ltr;block-progression:tb;writing-mode:lr-tb;text-anchor:start;baseline-shift:baseline;color:#000000;fill:#000000;fill-opacity:1;stroke:none;stroke-width:5.375;marker:none;visibility:visible;display:inline;overflow:visible;enable-background:accumulate;font-family:Sans;-inkscape-font-specification:Sans" />
    <path
       inkscape:connector-curvature="0"
       d="m 130.92428,620.71379 c -4.27951,0 -7.53214,2.16147 -9.39997,5.03415 -1.86781,2.87276 -2.56158,6.36438 -2.56158,9.55591 0,3.18493 0.67792,6.65751 2.53931,9.53362 1.86142,2.87602 5.11819,5.05626 9.42224,5.05626 4.30403,0 7.53853,-2.18024 9.39995,-5.05626 1.86139,-2.87611 2.56158,-6.34869 2.56158,-9.53362 0,-3.19153 -0.71604,-6.68315 -2.58388,-9.55591 -1.8678,-2.87268 -5.09816,-5.03415 -9.37765,-5.03415 z m 0,3.83128 c 3.08666,0 4.85943,1.28091 6.17011,3.2967 1.31066,2.0158 1.96017,4.85995 1.96017,7.46208 0,2.60845 -0.63544,5.44953 -1.9379,7.46199 -1.30247,2.01245 -3.07182,3.2967 -6.19238,3.2967 -3.12058,0 -4.8899,-1.28425 -6.1924,-3.2967 -1.30246,-2.01246 -1.9379,-4.85354 -1.9379,-7.46199 0,-2.60213 0.64951,-5.44628 1.96019,-7.46208 1.31065,-2.01579 3.08342,-3.2967 6.17011,-3.2967 z"
       id="path4228"
       style="font-size:medium;font-style:normal;font-variant:normal;font-weight:normal;font-stretch:normal;text-indent:0;text-align:start;text-decoration:none;line-height:normal;letter-spacing:normal;word-spacing:normal;text-transform:none;direction:ltr;block-progression:tb;writing-mode:lr-tb;text-anchor:start;baseline-shift:baseline;color:#000000;fill:#000000;fill-opacity:1;stroke:none;stroke-width:5.375;marker:none;visibility:visible;display:inline;overflow:visible;enable-background:accumulate;font-family:Sans;-inkscape-font-specification:Sans" />
    <path
       inkscape:connector-curvature="0"
       d="m 174.15888,620.78068 0,18.55486 c 0,4.81098 -4.48654,7.35569 -7.84072,6.86059 -2.54633,-0.3758 -3.59269,-1.29558 -4.36586,-2.82882 -0.77318,-1.53333 -1.06919,-3.88656 -1.06919,-6.70479 l 0,-15.85963 -3.83125,0 0,15.85963 c 0,3.04743 0.21159,5.9464 1.47012,8.44224 1.25856,2.49575 3.76377,4.36522 7.23929,4.87806 2.90571,0.42895 6.76303,-1.05439 8.39761,-3.12584 l 0.63703,3.09082 3.19422,0.0799 0,-29.24674 z"
       id="path4232"
       style="font-size:medium;font-style:normal;font-variant:normal;font-weight:normal;font-stretch:normal;text-indent:0;text-align:start;text-decoration:none;line-height:normal;letter-spacing:normal;word-spacing:normal;text-transform:none;direction:ltr;block-progression:tb;writing-mode:lr-tb;text-anchor:start;baseline-shift:baseline;color:#000000;fill:#000000;fill-opacity:1;stroke:none;stroke-width:5.375;marker:none;visibility:visible;display:inline;overflow:visible;enable-background:accumulate;font-family:Sans;-inkscape-font-specification:Sans" />
    <path
       inkscape:connector-curvature="0"
       d="m 195.14106,620.78068 0,6.56414 0,22.6826 4.00946,0 0,-15.85963 c -0.006,-7.07215 3.24936,-8.87175 6.252,-9.48902 1.92383,-0.39551 4.07986,0.0799 5.35313,0.80187 1.27333,0.72235 2.07462,1.70921 2.20522,3.31891 l 3.83127,-0.3118 c -0.23522,-2.89933 -2.00763,-5.13699 -4.14312,-6.34831 -2.13545,-1.21141 -4.61872,-1.58842 -6.92746,-1.24746 -2.72873,0.40313 -5.03627,1.58555 -6.74925,3.2967 l -0.63701,-3.408 z"
       id="path4238"
       style="font-size:medium;font-style:normal;font-variant:normal;font-weight:normal;font-stretch:normal;text-indent:0;text-align:start;text-decoration:none;line-height:normal;letter-spacing:normal;word-spacing:normal;text-transform:none;direction:ltr;block-progression:tb;writing-mode:lr-tb;text-anchor:start;baseline-shift:baseline;color:#000000;fill:#000000;fill-opacity:1;stroke:none;stroke-width:5.375;marker:none;visibility:visible;display:inline;overflow:visible;enable-background:accumulate;font-family:Sans;-inkscape-font-specification:Sans" />
    <path
       inkscape:connector-curvature="0"
       d="m 244.3453,620.69159 c -4.1591,0.0548 -7.26102,2.18693 -8.93217,5.10085 -1.67116,2.91411 -2.18294,6.45896 -2.18294,9.9346 0,3.54708 0.72852,6.94013 2.51705,9.62262 1.78856,2.68268 4.79137,4.54592 8.5535,4.67776 l 0.0224,0 0.0446,0 c 3.21265,0 5.73728,-1.01705 7.48434,-2.51703 1.74706,-1.49998 2.70402,-3.4002 3.20757,-5.07865 l -3.67535,-1.09146 c -0.3453,1.15102 -0.97282,2.347 -2.027,3.2521 -1.04275,0.89534 -2.52348,1.58917 -4.92273,1.60375 -0.024,0 -0.043,0 -0.0668,0 -2.62987,-0.11 -4.2388,-1.1683 -5.43502,-2.96251 -1.03159,-1.54727 -1.57496,-3.80267 -1.73742,-6.28142 l 16.55012,-0.0892 1.87107,-0.0223 0.0224,-1.87104 c 0.0705,-5.21941 -1.02059,-8.84927 -3.1853,-11.18188 -2.16472,-2.3327 -5.18221,-3.0465 -8.06348,-3.0963 l -0.0224,0 -0.0221,0 z m -1.19002,4.02025 c 2.72464,-0.44558 5.25591,0.13267 6.49141,1.68208 1.23554,1.5494 1.87073,3.22051 2.07156,6.6379 l -14.41177,0.0892 c 0.32256,-5.33405 3.12415,-7.96359 5.8488,-8.40908 z"
       id="path4248"
       style="font-size:medium;font-style:normal;font-variant:normal;font-weight:normal;font-stretch:normal;text-indent:0;text-align:start;text-decoration:none;line-height:normal;letter-spacing:normal;word-spacing:normal;text-transform:none;direction:ltr;block-progression:tb;writing-mode:lr-tb;text-anchor:start;baseline-shift:baseline;color:#000000;fill:#000000;fill-opacity:1;stroke:none;stroke-width:5.375;marker:none;visibility:visible;display:inline;overflow:visible;enable-background:accumulate;font-family:Sans;-inkscape-font-specification:Sans" />
    <path
       inkscape:connector-curvature="0"
       d="m 271.31935,610.73469 0,24.65826 0,14.54537 3.04298,0 0.78829,-3.2744 c 1.91136,2.0314 4.65658,3.43039 8.08571,3.43039 4.29928,0 7.54677,-2.18395 9.39997,-5.07865 1.8532,-2.89478 2.53934,-6.41799 2.53934,-9.62271 0,-3.21113 -0.70199,-6.70898 -2.5616,-9.60051 -1.85964,-2.89144 -5.10283,-5.07865 -9.37771,-5.07865 -3.42242,0 -6.17206,1.40977 -8.08571,3.45269 l 0,-13.43179 z m 11.91698,13.81038 c 3.06895,0 4.83863,1.28332 6.14787,3.319 1.30918,2.03559 1.96016,4.90074 1.96016,7.52888 0,2.63446 -0.63682,5.51875 -1.9379,7.55108 -1.30107,2.03233 -3.06728,3.319 -6.17013,3.319 -3.10279,0 -4.84672,-1.28667 -6.14781,-3.319 -1.30107,-2.03233 -1.9379,-4.91662 -1.9379,-7.55108 0,-2.62814 0.6287,-5.49329 1.9379,-7.52888 1.30922,-2.03568 3.07888,-3.319 6.14781,-3.319 z"
       id="path4276"
       style="font-size:medium;font-style:normal;font-variant:normal;font-weight:normal;font-stretch:normal;text-indent:0;text-align:start;text-decoration:none;line-height:normal;letter-spacing:normal;word-spacing:normal;text-transform:none;direction:ltr;block-progression:tb;writing-mode:lr-tb;text-anchor:start;baseline-shift:baseline;color:#000000;fill:#000000;fill-opacity:1;stroke:none;stroke-width:5.375;marker:none;visibility:visible;display:inline;overflow:visible;enable-background:accumulate;font-family:Sans;-inkscape-font-specification:Sans" />
    <path
       inkscape:connector-curvature="0"
       d="m 320.61272,620.71212 c -4.27396,0 -7.40277,2.25298 -9.06585,5.16774 -1.66304,2.91467 -2.13835,6.37907 -2.13835,9.51132 0,3.2038 0.66654,6.72487 2.51705,9.62262 1.8505,2.89795 5.09965,5.07865 9.39994,5.07865 2.91642,0 5.33799,-0.998 7.01655,-2.62842 1.67857,-1.63032 2.59733,-3.78241 2.96254,-5.99183 l -3.76443,-0.62368 c -0.26266,1.58889 -0.89026,2.94477 -1.8488,3.87579 -0.95855,0.93102 -2.27095,1.53695 -4.36586,1.53695 -3.10178,0 -4.87042,-1.28369 -6.17011,-3.3189 -1.29968,-2.03531 -1.91563,-4.91579 -1.91563,-7.55118 0,-2.70692 0.50306,-5.61082 1.64833,-7.61806 1.14527,-2.00716 2.65476,-3.22981 5.72462,-3.22981 2.22832,0 3.67691,0.64747 4.69998,1.64844 1.02305,1.00089 1.68021,2.46342 1.84881,4.32128 l 3.80898,-0.35639 c -0.23303,-2.56766 -1.19991,-4.95852 -2.98482,-6.7048 -1.7849,-1.74627 -4.347,-2.73972 -7.37295,-2.73972 z"
       id="path4280"
       style="font-size:medium;font-style:normal;font-variant:normal;font-weight:normal;font-stretch:normal;text-indent:0;text-align:start;text-decoration:none;line-height:normal;letter-spacing:normal;word-spacing:normal;text-transform:none;direction:ltr;block-progression:tb;writing-mode:lr-tb;text-anchor:start;baseline-shift:baseline;color:#000000;fill:#000000;fill-opacity:1;stroke:none;stroke-width:5.375;marker:none;visibility:visible;display:inline;overflow:visible;enable-background:accumulate;font-family:Sans;-inkscape-font-specification:Sans" />
    <path
       inkscape:connector-curvature="0"
       d="m 367.47814,610.73469 0,13.47629 c -1.91056,-2.06754 -4.67177,-3.49719 -8.10801,-3.49719 -4.26042,0 -7.48242,2.18749 -9.33312,5.07865 -1.85072,2.89125 -2.53933,6.39068 -2.53933,9.60051 0,3.20333 0.67273,6.70591 2.51707,9.60042 1.84428,2.8945 5.07073,5.10094 9.35538,5.10094 3.43149,0 6.19472,-1.42444 8.10801,-3.47489 l 0.71668,3.3189 3.1146,0 0,-39.20363 z m -8.10801,13.81038 c 3.04879,0 4.82237,1.28314 6.12555,3.319 1.30323,2.03587 1.93793,4.89934 1.93793,7.52888 0,2.63576 -0.6428,5.51847 -1.93793,7.55108 -1.2951,2.03261 -3.04301,3.319 -6.12555,3.319 -3.08254,0 -4.83045,-1.28639 -6.12555,-3.319 -1.29512,-2.03261 -1.91563,-4.91532 -1.91563,-7.55108 0,-2.62954 0.63469,-5.49301 1.9379,-7.52888 1.30321,-2.03586 3.0545,-3.319 6.10328,-3.319 z"
       id="path4293"
       style="font-size:medium;font-style:normal;font-variant:normal;font-weight:normal;font-stretch:normal;text-indent:0;text-align:start;text-decoration:none;line-height:normal;letter-spacing:normal;word-spacing:normal;text-transform:none;direction:ltr;block-progression:tb;writing-mode:lr-tb;text-anchor:start;baseline-shift:baseline;color:#000000;fill:#000000;fill-opacity:1;stroke:none;stroke-width:5.375;marker:none;visibility:visible;display:inline;overflow:visible;enable-background:accumulate;font-family:Sans;-inkscape-font-specification:Sans" />
    <path
       inkscape:connector-curvature="0"
       d="m 400.48868,610.77928 c -7.58484,0.29238 -9.04603,6.08176 -8.62035,10.135 0.20991,1.58889 0.36043,2.71566 0.51231,3.80899 l -6.79378,0 0,3.83128 7.2393,0 0,21.38377 3.83124,0 0,-21.38377 8.77627,0 0,-3.83128 -9.19949,0 c -0.16593,-1.17769 -0.34374,-2.53942 -0.57915,-4.32127 -0.4525,-3.42519 1.06906,-5.29912 3.74219,-5.72463 2.73379,-0.43518 5.99806,0.82826 7.37292,4.81135 l 2.78435,-1.11376 c -1.33494,-5.12269 -5.04975,-7.52442 -9.06581,-7.59568 z"
       id="path4299"
       style="font-size:medium;font-style:normal;font-variant:normal;font-weight:normal;font-stretch:normal;text-indent:0;text-align:start;text-decoration:none;line-height:normal;letter-spacing:normal;word-spacing:normal;text-transform:none;direction:ltr;block-progression:tb;writing-mode:lr-tb;text-anchor:start;baseline-shift:baseline;color:#000000;fill:#000000;fill-opacity:1;stroke:none;stroke-width:5.375;marker:none;visibility:visible;display:inline;overflow:visible;enable-background:accumulate;font-family:Sans;-inkscape-font-specification:Sans" />
    <path
       d="m 486.31271,625.33032 -3.80898,0.0446 c -0.0701,1.91573 -1.38602,2.73182 -2.67299,2.94031 -1.54901,-0.69875 -3.48967,-1.11377 -5.81372,-1.11377 -4.06689,0 -6.92786,1.24254 -8.64261,3.11841 -1.71472,1.87607 -2.19334,4.16036 -2.18292,5.92513 0.027,4.56348 4.34359,6.28151 4.34359,6.28151 l 0,0.0892 c 0,0 -3.11479,0.89385 -3.25213,4.16538 -0.0485,1.15557 0.0229,3.14665 3.20758,4.00947 l 0,0.11131 c -3.12853,0.61355 -5.77492,3.4211 -5.72462,6.57101 0.0283,1.77498 0.59568,3.06815 1.5815,4.17875 0.98583,1.11051 2.26857,1.73773 3.54167,2.09375 2.54628,0.71222 5.24961,0.78868 7.12794,0.78868 1.8441,0 4.55769,-0.0158 7.12795,-0.69959 1.28511,-0.34171 2.59644,-0.95842 3.58623,-2.09374 0.98976,-1.13541 1.53695,-1.83416 1.53695,-4.41706 0,-2.58281 -1.08215,-4.88912 -3.79476,-6.04395 -2.71262,-1.15492 -4.15837,-1.60543 -9.39262,-1.577 -5.23424,0.0288 -5.58368,-1.84169 -5.32294,-3.21113 0.26072,-1.36945 1.85453,-1.91564 6.25919,-1.91564 6.91762,-0.0362 10.82554,-4.26238 10.82554,-8.33076 0,-1.60858 -0.34783,-4.15599 -2.40566,-5.88053 2.12054,-0.61597 3.15415,-1.95038 3.64381,-3.38421 0.16807,-0.61839 0.21711,-1.019 0.232,-1.65003 z m -12.29569,5.70233 c 3.32836,0 4.9223,0.896 5.81372,1.87114 0.89141,0.97524 1.18057,2.25485 1.18057,3.34121 0,1.63395 -1.52728,4.47066 -6.99429,4.49947 -5.70562,0 -6.99428,-2.76574 -6.99428,-4.49947 0,-1.08636 0.28916,-2.36597 1.18057,-3.34121 0.89143,-0.97514 2.4854,-1.87114 5.81371,-1.87114 z m -0.0224,22.20804 c 3.28382,0 8.47151,0.31207 8.44214,4.20988 -0.0294,3.8978 -5.49617,3.68282 -8.41987,3.65309 -2.92371,-0.0297 -8.39384,0.21508 -8.41985,-3.67539 -0.0259,-3.89037 5.11377,-4.18414 8.39758,-4.18758 z"
       id="path4303"
       style="font-size:medium;font-style:normal;font-variant:normal;font-weight:normal;font-stretch:normal;text-indent:0;text-align:start;text-decoration:none;line-height:normal;letter-spacing:normal;word-spacing:normal;text-transform:none;direction:ltr;block-progression:tb;writing-mode:lr-tb;text-anchor:start;baseline-shift:baseline;color:#000000;fill:#000000;fill-opacity:1;stroke:none;stroke-width:5.375;marker:none;visibility:visible;display:inline;overflow:visible;enable-background:accumulate;font-family:Sans;-inkscape-font-specification:Sans"
       inkscape:connector-curvature="0"
       sodipodi:nodetypes="cccsssccccccssssszzzscscccssscssscscsc" />
    <path
       inkscape:connector-curvature="0"
       d="m 423.67602,610.73469 0,24.65826 0,14.54537 3.83127,0 0,-14.54537 c 0,-2.62814 0.65096,-5.49329 1.96016,-7.52888 1.30922,-2.03568 3.07889,-3.319 6.14785,-3.319 3.25488,0 5.07786,0.96261 6.28149,2.42803 1.20364,1.46532 1.80425,3.65337 1.80425,6.28142 l 0,16.6838 3.83128,0 0,-16.6838 c 0,-3.21114 -0.70777,-6.31691 -2.67299,-8.70945 -1.96519,-2.39253 -5.15509,-3.83128 -9.24403,-3.83128 -3.42244,0 -7.30239,2.21164 -8.10801,4.87825 l 0,-14.85735 z"
       id="path4311"
       style="font-size:medium;font-style:normal;font-variant:normal;font-weight:normal;font-stretch:normal;text-indent:0;text-align:start;text-decoration:none;line-height:normal;letter-spacing:normal;word-spacing:normal;text-transform:none;direction:ltr;block-progression:tb;writing-mode:lr-tb;text-anchor:start;baseline-shift:baseline;color:#000000;fill:#000000;fill-opacity:1;stroke:none;stroke-width:5.375;marker:none;visibility:visible;display:inline;overflow:visible;enable-background:accumulate;font-family:Sans;-inkscape-font-specification:Sans" />
    <g
       id="g5047"
       transform="matrix(0.06017798,0,0,0.06017798,540.69421,494.21311)">
      <path
         style="font-size:medium;font-style:normal;font-variant:normal;font-weight:normal;font-stretch:normal;text-indent:0;text-align:start;text-decoration:none;line-height:normal;letter-spacing:normal;word-spacing:normal;text-transform:none;direction:ltr;block-progression:tb;writing-mode:lr-tb;text-anchor:start;baseline-shift:baseline;color:#000000;fill:#000000;fill-opacity:1;stroke:none;stroke-width:5.375;marker:none;visibility:visible;display:inline;overflow:visible;enable-background:accumulate;font-family:Sans;-inkscape-font-specification:Sans"
         id="path4315"
         d="m -654.5917,2102.1087 0,63.6653 151.3905,0 0,359.7842 -175.4502,0 0,63.6653 414.5659,0 0,-63.6653 -175.45,0 0,-423.4495 z"
         inkscape:connector-curvature="0" />
      <path
         style="color:#000000;fill:#000000;fill-opacity:1;fill-rule:nonzero;stroke:none;stroke-width:5.375;marker:none;visibility:visible;display:inline;overflow:visible;enable-background:accumulate"
         id="path4321"
         d="m -410.8113,1937.7972 c 0,33.3476 -27.0337,60.381 -60.3817,60.381 -33.3477,0 -60.3815,-27.0334 -60.3815,-60.381 0,-33.3478 27.0338,-60.3821 60.3815,-60.3821 33.348,0 60.3817,27.0343 60.3817,60.3821 z"
         inkscape:connector-curvature="0" />
    </g>
    <g
       id="g5043"
       transform="matrix(0.06017798,0,0,0.06017798,546.21027,494.21311)">
      <path
         style="font-size:medium;font-style:normal;font-variant:normal;font-weight:normal;font-stretch:normal;text-indent:0;text-align:start;text-decoration:none;line-height:normal;letter-spacing:normal;word-spacing:normal;text-transform:none;direction:ltr;block-progression:tb;writing-mode:lr-tb;text-anchor:start;baseline-shift:baseline;color:#000000;fill:#000000;fill-opacity:1;stroke:none;stroke-width:5.375;marker:none;visibility:visible;display:inline;overflow:visible;enable-background:accumulate;font-family:Sans;-inkscape-font-specification:Sans"
         id="path4325"
         d="m -64.945705,2102.1087 0,63.6653 210.614305,0 0,350.9006 c 0,0 0.6812,85.3176 -13.3255,121.039 -14.006,35.7202 -34.444205,60.3335 -103.641305,60.3335 -69.0994,0 -85.5991,-25.0802 -95.4982,-51.8208 -9.8991,-26.7406 -5.9224,-56.2625 -5.9224,-56.2625 l -62.555095,-10.7337 c 0,0 -8.4318,43.4299 8.5135,89.2051 16.9453,45.7752 66.847395,93.2773 155.462195,93.2773 88.517105,0 142.267705,-47.2049 163.235205,-100.6803 20.9676,-53.4753 17.397,-144.3576 17.397,-144.3576 l 0,-414.5659 z"
         inkscape:connector-curvature="0" />
      <path
         style="color:#000000;fill:#000000;fill-opacity:1;fill-rule:nonzero;stroke:none;stroke-width:5.375;marker:none;visibility:visible;display:inline;overflow:visible;enable-background:accumulate"
         id="path4333"
         d="m 227.1141,1937.7972 c 0,33.3476 -27.0336,60.381 -60.3816,60.381 -33.3477,0 -60.3815,-27.0334 -60.3815,-60.381 0,-33.3478 27.0338,-60.3821 60.3815,-60.3821 33.348,0 60.3816,27.0343 60.3816,60.3821 z"
         inkscape:connector-curvature="0" />
    </g>
    <path
       inkscape:connector-curvature="0"
       d="m 41.830541,676.02856 0,39.19239 3.831275,0 0,-6.96085 5.212277,-5.61323 10.135039,12.57408 4.74452,0 0,-0.38974 -12.184299,-15.05776 10.4914,-11.27106 -2.806608,-2.60613 -15.592329,16.75061 0,-26.61831 z"
       id="path4337"
       style="font-size:medium;font-style:normal;font-variant:normal;font-weight:normal;font-stretch:normal;text-indent:0;text-align:start;text-decoration:none;line-height:normal;letter-spacing:normal;word-spacing:normal;text-transform:none;direction:ltr;block-progression:tb;writing-mode:lr-tb;text-anchor:start;baseline-shift:baseline;color:#000000;fill:#000000;fill-opacity:1;stroke:none;stroke-width:5.375;marker:none;visibility:visible;display:inline;overflow:visible;enable-background:accumulate;font-family:Sans;-inkscape-font-specification:Sans" />
    <path
       inkscape:connector-curvature="0"
       d="m 80.141874,676.05085 0,3.83119 10.558226,0 0,31.60796 -10.558226,0 0,3.83129 24.947726,0 0,-3.83129 -10.55825,0 0,-35.43915 z"
       id="path4347"
       style="font-size:medium;font-style:normal;font-variant:normal;font-weight:normal;font-stretch:normal;text-indent:0;text-align:start;text-decoration:none;line-height:normal;letter-spacing:normal;word-spacing:normal;text-transform:none;direction:ltr;block-progression:tb;writing-mode:lr-tb;text-anchor:start;baseline-shift:baseline;color:#000000;fill:#000000;fill-opacity:1;stroke:none;stroke-width:5.375;marker:none;visibility:visible;display:inline;overflow:visible;enable-background:accumulate;font-family:Sans;-inkscape-font-specification:Sans" />
    <path
       inkscape:connector-curvature="0"
       d="m 129.79732,685.94077 c -3.54217,0 -5.72114,1.05709 -7.51293,2.53932 l -0.56703,-2.49473 -3.26422,0 0,29.24674 3.83125,0 0,-18.55485 c 0,-6.51211 4.48654,-7.3558 7.84073,-6.8606 2.54632,0.37571 3.59268,1.27328 4.36586,2.80661 0.77315,1.53315 1.06919,3.90868 1.06919,6.72691 l 0,15.85963 3.83125,0 0,-15.85963 c 0,-3.04734 0.003,-6.32666 -1.82652,-9.06583 -1.82884,-2.73917 -4.22538,-4.34357 -7.76758,-4.34357 z"
       id="path4355"
       style="font-size:medium;font-style:normal;font-variant:normal;font-weight:normal;font-stretch:normal;text-indent:0;text-align:start;text-decoration:none;line-height:normal;letter-spacing:normal;word-spacing:normal;text-transform:none;direction:ltr;block-progression:tb;writing-mode:lr-tb;text-anchor:start;baseline-shift:baseline;color:#000000;fill:#000000;fill-opacity:1;stroke:none;stroke-width:5.375;marker:none;visibility:visible;display:inline;overflow:visible;enable-background:accumulate;font-family:Sans;-inkscape-font-specification:Sans" />
    <path
       inkscape:connector-curvature="0"
       d="m 156.76447,685.98536 0,39.89412 3.83125,0 0,-14.01088 c 1.90843,2.06541 4.63624,3.5194 8.08574,3.5194 4.28566,0 7.52933,-2.18201 9.37768,-5.07865 1.84832,-2.89665 2.51705,-6.41744 2.51705,-9.62262 0,-3.2116 -0.70597,-6.71223 -2.56161,-9.60042 -1.85563,-2.88828 -5.0736,-5.07865 -9.33312,-5.07865 -3.45444,0 -6.17431,1.47954 -8.08574,3.5639 l -0.80189,-3.4971 z m 11.91699,3.85358 c 3.04969,0 4.81893,1.28518 6.12555,3.31891 1.30661,2.03363 1.9379,4.9012 1.9379,7.52888 0,2.6339 -0.61619,5.51466 -1.91563,7.55117 -1.29942,2.03633 -3.06631,3.3189 -6.14782,3.3189 -3.08153,0 -5.27675,-1.28332 -6.57106,-3.3189 -1.29431,-2.03568 -1.47015,-4.91476 -1.47015,-7.55117 0,-2.6301 0.19092,-5.49599 1.49242,-7.52888 1.30148,-2.03289 3.49907,-3.31891 6.54879,-3.31891 z"
       id="path4361"
       style="font-size:medium;font-style:normal;font-variant:normal;font-weight:normal;font-stretch:normal;text-indent:0;text-align:start;text-decoration:none;line-height:normal;letter-spacing:normal;word-spacing:normal;text-transform:none;direction:ltr;block-progression:tb;writing-mode:lr-tb;text-anchor:start;baseline-shift:baseline;color:#000000;fill:#000000;fill-opacity:1;stroke:none;stroke-width:5.375;marker:none;visibility:visible;display:inline;overflow:visible;enable-background:accumulate;font-family:Sans;-inkscape-font-specification:Sans" />
    <path
       inkscape:connector-curvature="0"
       d="m 236.91668,688.47247 c -3.23093,2.7191 -3.74494,5.71386 -2.78819,8.36077 0.87122,2.41009 2.69736,3.96953 5.56673,4.73684 2.8694,0.76732 6.08898,0.85679 9.40194,1.92317 1.51927,0.50671 2.27891,1.01993 2.58387,2.24983 0.35511,1.43234 0.0968,2.63399 -0.91327,3.65309 -1.01012,1.01909 -3.0053,1.92428 -6.45968,1.93784 -3.47914,0.0139 -5.18204,-0.78459 -6.08102,-1.62605 -0.89897,-0.84145 -1.1947,-1.91044 -1.29193,-3.00711 l -3.54776,0.33419 c -0.0134,1.62419 0.42284,3.78325 2.21126,5.45724 1.78843,1.67418 4.60841,2.68909 8.70945,2.67302 4.12576,-0.0167 7.22432,-1.10373 9.1772,-3.07391 1.93606,-1.95327 2.63457,-4.73127 1.91562,-7.19479 -0.71894,-2.46351 -2.25174,-4.25103 -5.07863,-5.03405 -2.82689,-0.78292 -6.68109,-1.03842 -9.56102,-1.78418 -2.87994,-0.74576 -3.98722,-3.97928 -2.17779,-6.05631 0.9932,-1.1093 2.68473,-2.00455 4.67769,-2.11613 2.27846,-0.12756 4.00259,0.14995 5.21231,0.77967 1.20972,0.62963 2.06236,1.58926 2.71752,3.408 l 3.10448,-1.26046 c -0.55712,-2.50848 -1.9158,-4.18582 -4.84733,-5.71153 -2.93151,-1.52562 -9.30055,-1.36824 -12.53145,1.35086 z"
       id="path4373"
       style="font-size:medium;font-style:normal;font-variant:normal;font-weight:normal;font-stretch:normal;text-indent:0;text-align:start;text-decoration:none;line-height:normal;letter-spacing:normal;word-spacing:normal;text-transform:none;direction:ltr;block-progression:tb;writing-mode:lr-tb;text-anchor:start;baseline-shift:baseline;color:#000000;fill:#000000;fill-opacity:1;stroke:none;stroke-width:5.375;marker:none;visibility:visible;display:inline;overflow:visible;enable-background:accumulate;font-family:Sans;-inkscape-font-specification:Sans" />
    <path
       inkscape:connector-curvature="0"
       d="m 279.40545,679.41547 0,6.59219 -7.70708,0 0,3.83128 7.70708,0 0,25.37086 14.3672,0 0,-3.83128 -10.53593,0 0,-21.53958 10.60275,0 0,-3.83128 -10.60275,0 0,-8.04126 z"
       id="path4377"
       style="font-size:medium;font-style:normal;font-variant:normal;font-weight:normal;font-stretch:normal;text-indent:0;text-align:start;text-decoration:none;line-height:normal;letter-spacing:normal;word-spacing:normal;text-transform:none;direction:ltr;block-progression:tb;writing-mode:lr-tb;text-anchor:start;baseline-shift:baseline;color:#000000;fill:#000000;fill-opacity:1;stroke:none;stroke-width:5.375;marker:none;visibility:visible;display:inline;overflow:visible;enable-background:accumulate;font-family:Sans;-inkscape-font-specification:Sans" />
    <path
       inkscape:connector-curvature="0"
       d="m 348.32095,686.00766 9.89003,29.20214 4.41039,0 9.88999,-29.20214 -4.00946,0 -7.8979,23.35497 -0.18195,1.02504 -0.18192,-1.02504 -7.90969,-23.35497 z"
       id="path4393"
       style="font-size:medium;font-style:normal;font-variant:normal;font-weight:normal;font-stretch:normal;text-indent:0;text-align:start;text-decoration:none;line-height:normal;letter-spacing:normal;word-spacing:normal;text-transform:none;direction:ltr;block-progression:tb;writing-mode:lr-tb;text-anchor:start;baseline-shift:baseline;color:#000000;fill:#000000;fill-opacity:1;stroke:none;stroke-width:5.375;marker:none;visibility:visible;display:inline;overflow:visible;enable-background:accumulate;font-family:Sans;-inkscape-font-specification:Sans" />
    <path
       inkscape:connector-curvature="0"
       d="m 386.63228,686.05216 2.49475,29.15764 4.07629,0 5.79267,-15.03546 0.0656,-0.29126 0.0699,0.29099 5.78839,15.03573 4.07628,0 2.47252,-29.15764 -3.85354,0 -1.84881,21.85155 -4.90361,-12.80801 -3.57068,0 -4.95739,12.85252 -1.82654,-21.89606 z"
       id="path4397"
       style="font-size:medium;font-style:normal;font-variant:normal;font-weight:normal;font-stretch:normal;text-indent:0;text-align:start;text-decoration:none;line-height:normal;letter-spacing:normal;word-spacing:normal;text-transform:none;direction:ltr;block-progression:tb;writing-mode:lr-tb;text-anchor:start;baseline-shift:baseline;color:#000000;fill:#000000;fill-opacity:1;stroke:none;stroke-width:5.375;marker:none;visibility:visible;display:inline;overflow:visible;enable-background:accumulate;font-family:Sans;-inkscape-font-specification:Sans" />
    <path
       inkscape:connector-curvature="0"
       d="m 319.60375,715.2321 c 3.54216,0 5.72115,-1.05719 7.51294,-2.53933 l 0.56699,2.49473 3.26425,0 0,-29.24673 -3.83124,0 0,18.55485 c 0,6.51211 -4.48656,7.35579 -7.84074,6.86069 -2.54633,-0.37581 -3.59268,-1.27338 -4.36586,-2.80662 -0.77318,-1.53323 -1.06919,-3.90876 -1.06919,-6.727 l 0,-15.85963 -3.83125,0 0,15.85963 c 0,3.04734 -0.003,6.32667 1.82655,9.06584 1.82881,2.73916 4.22536,4.34357 7.76755,4.34357 z"
       id="path4606"
       style="font-size:medium;font-style:normal;font-variant:normal;font-weight:normal;font-stretch:normal;text-indent:0;text-align:start;text-decoration:none;line-height:normal;letter-spacing:normal;word-spacing:normal;text-transform:none;direction:ltr;block-progression:tb;writing-mode:lr-tb;text-anchor:start;baseline-shift:baseline;color:#000000;fill:#000000;fill-opacity:1;stroke:none;stroke-width:5.375;marker:none;visibility:visible;display:inline;overflow:visible;enable-background:accumulate;font-family:Sans;-inkscape-font-specification:Sans" />
    <path
       inkscape:connector-curvature="0"
       d="m 425.18859,686.07446 9.8232,14.41177 -10.06821,14.79046 4.63316,0 7.66252,-11.46923 0.0788,-0.1782 0.0207,0 0.0788,0.1782 7.68476,11.46923 4.63319,0 -10.09047,-14.79046 9.84543,-14.41177 -4.63316,0 -7.48431,11.20241 -0.0362,0.10572 -0.0279,0 -0.0473,-0.1113 -7.43978,-11.19683 z"
       id="path4653"
       style="font-size:medium;font-style:normal;font-variant:normal;font-weight:normal;font-stretch:normal;text-indent:0;text-align:start;text-decoration:none;line-height:normal;letter-spacing:normal;word-spacing:normal;text-transform:none;direction:ltr;block-progression:tb;writing-mode:lr-tb;text-anchor:start;baseline-shift:baseline;color:#000000;fill:#000000;fill-opacity:1;stroke:none;stroke-width:5.37499952;marker:none;visibility:visible;display:inline;overflow:visible;enable-background:accumulate;font-family:Sans;-inkscape-font-specification:Sans" />
    <path
       inkscape:connector-curvature="0"
       d="m 463.25486,686.00766 10.20185,27.0861 c 0,0 -1.68208,4.21638 -2.96253,5.96962 -1.60707,2.1428 -4.60748,2.6602 -5.36822,2.76212 l 0,3.83119 c 0.6599,-0.0325 5.50763,-0.3864 8.44211,-4.29898 1.29909,-1.73224 3.18528,-6.12561 3.18528,-6.12561 l 10.69191,-29.22444 -4.00946,0 -7.90756,21.20557 -0.17818,0.8579 -0.17819,-0.8579 -7.90755,-21.20557 z"
       id="path4691"
       style="font-size:medium;font-style:normal;font-variant:normal;font-weight:normal;font-stretch:normal;text-indent:0;text-align:start;text-decoration:none;line-height:normal;letter-spacing:normal;word-spacing:normal;text-transform:none;direction:ltr;block-progression:tb;writing-mode:lr-tb;text-anchor:start;baseline-shift:baseline;color:#000000;fill:#000000;fill-opacity:1;stroke:none;stroke-width:5.375;marker:none;visibility:visible;display:inline;overflow:visible;enable-background:accumulate;font-family:Sans;-inkscape-font-specification:Sans" />
    <path
       inkscape:connector-curvature="0"
       d="m 502.05618,685.96306 0,3.83129 17.26294,0 -17.75294,21.60656 0,3.76439 23.589,0 0,-3.83129 -18.57718,0 17.76413,-21.58416 0,-3.78679 -22.28592,0 z"
       id="path4704"
       style="font-size:medium;font-style:normal;font-variant:normal;font-weight:normal;font-stretch:normal;text-indent:0;text-align:start;text-decoration:none;line-height:normal;letter-spacing:normal;word-spacing:normal;text-transform:none;direction:ltr;block-progression:tb;writing-mode:lr-tb;text-anchor:start;baseline-shift:baseline;color:#000000;fill:#000000;fill-opacity:1;stroke:none;stroke-width:5.375;marker:none;visibility:visible;display:inline;overflow:visible;enable-background:accumulate;font-family:Sans;-inkscape-font-specification:Sans" />
    <path
       inkscape:connector-curvature="0"
       d="m 218.88748,685.98536 0,39.89412 -3.83124,0 0,-14.01088 c -1.90844,2.06541 -4.63627,3.5194 -8.08574,3.5194 -4.2857,0 -7.52936,-2.18201 -9.37769,-5.07865 -1.84832,-2.89665 -2.51704,-6.41744 -2.51704,-9.62262 0,-3.2116 0.70597,-6.71223 2.5616,-9.60042 1.85564,-2.88828 5.07361,-5.07865 9.33313,-5.07865 3.4544,0 6.1743,1.47954 8.08574,3.5639 l 0.80188,-3.4971 z m -11.91698,3.85358 c -3.04969,0 -4.81893,1.28518 -6.12558,3.31891 -1.30659,2.03363 -1.9379,4.9012 -1.9379,7.52888 0,2.6339 0.61622,5.51466 1.91564,7.55117 1.29944,2.03633 3.06633,3.3189 6.14784,3.3189 3.08153,0 5.27675,-1.28332 6.57106,-3.3189 1.29428,-2.03568 1.47012,-4.91476 1.47012,-7.55117 0,-2.6301 -0.1909,-5.49599 -1.49242,-7.52888 -1.30148,-2.03289 -3.49908,-3.31891 -6.54876,-3.31891 z"
       id="path4730"
       style="font-size:medium;font-style:normal;font-variant:normal;font-weight:normal;font-stretch:normal;text-indent:0;text-align:start;text-decoration:none;line-height:normal;letter-spacing:normal;word-spacing:normal;text-transform:none;direction:ltr;block-progression:tb;writing-mode:lr-tb;text-anchor:start;baseline-shift:baseline;color:#000000;fill:#000000;fill-opacity:1;stroke:none;stroke-width:5.375;marker:none;visibility:visible;display:inline;overflow:visible;enable-background:accumulate;font-family:Sans;-inkscape-font-specification:Sans" />
  </g>
</svg>
