<?xml version="1.0" encoding="UTF-8" standalone="no"?>
<!-- Created with Inkscape (http://www.inkscape.org/) -->

<svg
   xmlns:dc="http://purl.org/dc/elements/1.1/"
   xmlns:cc="http://creativecommons.org/ns#"
   xmlns:rdf="http://www.w3.org/1999/02/22-rdf-syntax-ns#"
   xmlns:svg="http://www.w3.org/2000/svg"
   xmlns="http://www.w3.org/2000/svg"
   xmlns:sodipodi="http://sodipodi.sourceforge.net/DTD/sodipodi-0.dtd"
   xmlns:inkscape="http://www.inkscape.org/namespaces/inkscape"
   version="1.0"
   width="1000"
   height="1000"
   id="svg5496"
   sodipodi:version="0.32"
   inkscape:version="0.48.1 r9760"
   sodipodi:docname="glyphs.svg"
   inkscape:output_extension="org.inkscape.output.svg.inkscape">
  <metadata
     id="metadata5594">
    <rdf:RDF>
      <cc:Work
         rdf:about="">
        <dc:format>image/svg+xml</dc:format>
        <dc:type
           rdf:resource="http://purl.org/dc/dcmitype/StillImage" />
        <dc:title />
      </cc:Work>
    </rdf:RDF>
  </metadata>
  <sodipodi:namedview
     inkscape:window-height="856"
     inkscape:window-width="1371"
     inkscape:pageshadow="2"
     inkscape:pageopacity="0.0"
     borderopacity="1.0"
     bordercolor="#666666"
     pagecolor="#ffffff"
     id="base"
     showgrid="false"
     showguides="true"
     inkscape:guide-bbox="true"
     inkscape:zoom="0.039999998"
     inkscape:cx="4531.7548"
     inkscape:cy="-4127.846"
     inkscape:window-x="6"
     inkscape:window-y="0"
     inkscape:current-layer="g3175"
     inkscape:window-maximized="0">
    <sodipodi:guide
       orientation="horizontal"
       position="200"
       id="guide5596" />
  </sodipodi:namedview>
  <defs
     id="defs5498" />
  <g
     id="layer1" />
  <path
     d="m 541.25076,2560.7007 c -64.7206,-0.1183 -109.4577,22.3869 -134.8426,52.8291 -25.3836,30.4422 -31.161,64.8683 -30.9907,84.9689 l 59.0674,9.6051 c 2.7037,-17.534 7.5883,-38.2268 20.688,-53.9367 13.0998,-15.71 34.4251,-29.9966 85.7078,-29.9244 51.1021,0.1182 68.7862,12.4802 81.2747,34.3575 12.3892,21.7036 17.0091,60.5132 16.6248,108.6125 -25.659,-0.2128 -50.6655,-1.4482 -74.6247,-1.8478 -26.2858,-0.4374 -51.517,0.142 -75.7337,4.0644 -48.4314,7.8461 -94.7917,36.9323 -114.8922,93.4652 -10.0568,28.2847 -10.9599,67.1062 8.4963,107.8735 19.4574,40.7685 65.7963,78.6892 136.3203,78.6892 96.2668,0 142.7748,-42.8799 142.7748,-42.8799 l 2.0416,0 c 0,0 24.0715,33.8788 90.1411,37.6819 l 0.3901,-51.6564 c -32.3859,-2.8337 -41.3195,-20.8571 -46.9336,-34.4214 -5.6155,-13.5643 -4.8032,-29.9233 -4.8032,-29.9233 -0.2484,-54.1176 0.3664,-111.8184 0.3664,-159.2249 0,-0.1299 0,-0.2482 0,-0.3664 0.4848,-51.6754 -1.7305,-100.517 -25.1212,-141.4912 -23.4472,-41.0759 -71.0487,-66.4063 -135.9502,-66.4974 z m 97.1607,372.3855 c -0.9457,4.8174 -4.3386,15.3671 -18.4715,26.969 -15.7643,12.9401 -44.9841,26.8661 -100.4851,25.86 -51.6987,-0.9339 -69.0875,-20.0449 -79.7967,-42.485 -10.7093,-22.4389 -9.6018,-49.0591 -6.2809,-59.4776 12.2117,-38.3061 29.7152,-46.0008 65.0197,-51.7202 48.0211,-5.6709 93.5656,-1.8549 140.3832,-1.4778 0,0 0.5794,97.5153 -0.3664,102.3316 z"
     id="path4214"
     style="font-size:medium;font-style:normal;font-variant:normal;font-weight:normal;font-stretch:normal;text-indent:0;text-align:start;text-decoration:none;line-height:normal;letter-spacing:normal;word-spacing:normal;text-transform:none;direction:ltr;block-progression:tb;writing-mode:lr-tb;text-anchor:start;baseline-shift:baseline;color:#000000;fill:#000000;fill-opacity:1;stroke:none;stroke-width:5.375;marker:none;visibility:visible;display:inline;overflow:visible;enable-background:accumulate;font-family:Sans;-inkscape-font-specification:Sans"
     inkscape:connector-curvature="0" />
  <path
     d="m 876.06776,2560.7007 0.5202,483.8009 63.542,0 -0.5202,-367.7999 c 0,-13.5075 4.0679,-25.3104 13.6695,-35.8341 12.8018,-14.0325 36.2633,-18.4289 54.17914,-16.2549 24.4947,2.972 33.1163,12.6705 39.402,26.3826 6.2856,13.7121 5.6638,32.1824 5.6685,43.8091 l 0.5202,349.6972 63.542,0 1.0639,-360.0413 c 0,0 2.005,-29.9173 16.1426,-43.5927 14.1388,-13.6754 31.4943,-18.546 50.37,-16.2549 24.4947,2.972 33.6389,12.148 39.9245,25.8601 6.2856,13.712 5.1459,32.7049 5.1459,44.3316 l 0.5202,349.6972 63.542,0 -0.5202,-349.6972 c 0,-14.8978 -0.6856,-42.6068 -13.6695,-70.9306 -12.9839,-28.3237 -50.8335,-62.5442 -97.5294,-62.0642 -46.696,0.4847 -72.4519,17.9726 -92.484,44.555 -14.1294,-22.8692 -37.8001,-43.9379 -73.8859,-44.555 -36.08714,-0.6147 -55.87084,12.1374 -75.60614,31.4009 l 0,-32.5098 z"
     id="path4220"
     style="font-size:medium;font-style:normal;font-variant:normal;font-weight:normal;font-stretch:normal;text-indent:0;text-align:start;text-decoration:none;line-height:normal;letter-spacing:normal;word-spacing:normal;text-transform:none;direction:ltr;block-progression:tb;writing-mode:lr-tb;text-anchor:start;baseline-shift:baseline;color:#000000;fill:#000000;fill-opacity:1;stroke:none;stroke-width:5.375;marker:none;visibility:visible;display:inline;overflow:visible;enable-background:accumulate;font-family:Sans;-inkscape-font-specification:Sans"
     inkscape:connector-curvature="0" />
  <path
     d="m 1615.2977,2559.223 c -70.9766,0 -124.9218,35.8471 -155.8994,83.4911 -30.9778,47.6453 -42.4851,105.5554 -42.4851,158.4861 0,52.8232 11.2437,110.4165 42.115,158.1161 30.8726,47.6996 84.8862,83.86 156.2695,83.86 71.3835,0 125.0281,-36.1604 155.8995,-83.86 30.8713,-47.6996 42.4839,-105.2929 42.4839,-158.1161 0,-52.9307 -11.8751,-110.8408 -42.8538,-158.4861 -30.9779,-47.644 -84.5529,-83.4911 -155.5296,-83.4911 z m 0,63.5419 c 51.1929,0 80.595,21.2437 102.3315,54.6757 21.7379,33.4331 32.51,80.6043 32.51,123.7596 0,43.2618 -10.5379,90.3822 -32.1399,123.7585 -21.6018,33.3776 -50.9472,54.6757 -102.7016,54.6757 -51.7557,0 -81.0996,-21.2981 -102.7015,-54.6757 -21.6019,-33.3763 -32.141,-80.4967 -32.141,-123.7585 0,-43.1553 10.7731,-90.3265 32.5099,-123.7596 21.7378,-33.432 51.1396,-54.6757 102.3326,-54.6757 z"
     id="path4228"
     style="font-size:medium;font-style:normal;font-variant:normal;font-weight:normal;font-stretch:normal;text-indent:0;text-align:start;text-decoration:none;line-height:normal;letter-spacing:normal;word-spacing:normal;text-transform:none;direction:ltr;block-progression:tb;writing-mode:lr-tb;text-anchor:start;baseline-shift:baseline;color:#000000;fill:#000000;fill-opacity:1;stroke:none;stroke-width:5.375;marker:none;visibility:visible;display:inline;overflow:visible;enable-background:accumulate;font-family:Sans;-inkscape-font-specification:Sans"
     inkscape:connector-curvature="0" />
  <path
     d="m 2313.5203,2560.3319 0,307.7346 c 0,79.7909 -74.4096,121.9958 -130.0393,113.7844 -42.232,-6.2324 -59.5852,-21.4884 -72.4082,-46.917 -12.8232,-25.4298 -17.7327,-64.4581 -17.7327,-111.199 l 0,-263.0342 -63.5419,0 0,263.0342 c 0,50.5416 3.5087,98.6206 24.3823,140.0146 20.8727,41.3927 62.4225,72.3976 120.0641,80.9045 48.1915,7.1132 112.1662,-17.4879 139.2757,-51.8431 l 10.5652,51.2615 52.9768,1.3205 0,-485.061 z"
     id="path4232"
     style="font-size:medium;font-style:normal;font-variant:normal;font-weight:normal;font-stretch:normal;text-indent:0;text-align:start;text-decoration:none;line-height:normal;letter-spacing:normal;word-spacing:normal;text-transform:none;direction:ltr;block-progression:tb;writing-mode:lr-tb;text-anchor:start;baseline-shift:baseline;color:#000000;fill:#000000;fill-opacity:1;stroke:none;stroke-width:5.375;marker:none;visibility:visible;display:inline;overflow:visible;enable-background:accumulate;font-family:Sans;-inkscape-font-specification:Sans"
     inkscape:connector-curvature="0" />
  <path
     d="m 2617.9306,2560.3319 0,108.8666 0,376.1944 66.4976,0 0,-263.0342 c -0.1172,-117.292 53.8905,-147.1396 103.6898,-157.3772 31.9069,-6.5587 67.6653,1.3205 88.7826,13.2995 21.1185,11.9802 34.4084,28.3474 36.5741,55.0457 l 63.5419,-5.1721 c -3.9011,-48.0862 -33.2971,-85.197 -68.7139,-105.2881 -35.4168,-20.0911 -76.6027,-26.3436 -114.8933,-20.6881 -45.256,6.6852 -83.5266,26.2963 -111.9368,54.6756 l -10.5651,-56.5221 z"
     id="path4238"
     style="font-size:medium;font-style:normal;font-variant:normal;font-weight:normal;font-stretch:normal;text-indent:0;text-align:start;text-decoration:none;line-height:normal;letter-spacing:normal;word-spacing:normal;text-transform:none;direction:ltr;block-progression:tb;writing-mode:lr-tb;text-anchor:start;baseline-shift:baseline;color:#000000;fill:#000000;fill-opacity:1;stroke:none;stroke-width:5.375;marker:none;visibility:visible;display:inline;overflow:visible;enable-background:accumulate;font-family:Sans;-inkscape-font-specification:Sans"
     inkscape:connector-curvature="0" />
  <path
     d="m 3243.7169,2558.8541 c -68.979,0.9103 -120.4249,36.2704 -148.141,84.5989 -27.7172,48.3297 -36.204,107.1217 -36.204,164.7658 0,58.8298 12.0818,115.1038 41.7449,159.5938 29.6632,44.4912 79.4658,75.3945 141.8612,77.5803 l 0.3664,0 0.733,0 c 53.2818,0 95.1534,-16.8673 124.1285,-41.745 28.975,-24.8777 44.8469,-56.3922 53.1978,-84.23 l -60.9553,-18.1027 c -5.7276,19.0909 -16.1344,38.9255 -33.6186,53.9368 -17.2941,14.8493 -41.8514,26.3566 -81.6437,26.5989 -0.4017,-0.011 -0.7093,0.012 -1.111,0 -43.6176,-1.8241 -70.3017,-19.377 -90.141,-49.1336 -17.1096,-25.6615 -26.1215,-63.0679 -28.8156,-104.1792 l 274.4858,-1.4778 31.0323,-0.3664 0.3663,-31.0321 c 1.1705,-86.5649 -16.9262,-146.7672 -52.8279,-185.4539 -35.9026,-38.6867 -85.9477,-50.5263 -133.7336,-51.3514 l -0.3663,0 -0.3667,0 z m -19.7365,66.6771 c 45.1887,-7.3898 87.17,2.2 107.6608,27.897 20.4918,25.697 31.0262,53.4119 34.3576,110.0902 l -239.0219,1.4777 c 5.3493,-88.4658 51.8148,-132.0763 97.0035,-139.4649 z"
     id="path4248"
     style="font-size:medium;font-style:normal;font-variant:normal;font-weight:normal;font-stretch:normal;text-indent:0;text-align:start;text-decoration:none;line-height:normal;letter-spacing:normal;word-spacing:normal;text-transform:none;direction:ltr;block-progression:tb;writing-mode:lr-tb;text-anchor:start;baseline-shift:baseline;color:#000000;fill:#000000;fill-opacity:1;stroke:none;stroke-width:5.375;marker:none;visibility:visible;display:inline;overflow:visible;enable-background:accumulate;font-family:Sans;-inkscape-font-specification:Sans"
     inkscape:connector-curvature="0" />
  <path
     d="m 3784.5907,2393.7183 0,408.9597 0,241.2372 50.4683,0 13.0737,-54.3056 c 31.7,33.6896 77.229,56.8922 134.1024,56.8922 71.3041,0 125.164,-36.2195 155.8996,-84.2301 30.7364,-48.0105 42.1148,-106.4431 42.1148,-159.5937 0,-53.2571 -11.642,-111.2688 -42.4838,-159.225 -30.8429,-47.955 -84.6307,-84.23 -155.5306,-84.23 -56.761,0 -102.3646,23.381 -134.1024,57.2622 l 0,-222.7669 z m 197.6444,229.0466 c 50.8998,0 80.2496,21.2839 101.9626,55.0457 21.7143,33.7617 32.5101,81.2806 32.5101,124.8674 0,43.6932 -10.5616,91.5299 -32.1399,125.2362 -21.5784,33.7073 -50.8714,55.0456 -102.3328,55.0456 -51.46,0 -80.3831,-21.3383 -101.9625,-55.0456 -21.5785,-33.7063 -32.1399,-81.543 -32.1399,-125.2362 0,-43.5868 10.4268,-91.1057 32.1399,-124.8674 21.7139,-33.7618 51.064,-55.0457 101.9625,-55.0457 z"
     id="path4276"
     style="font-size:medium;font-style:normal;font-variant:normal;font-weight:normal;font-stretch:normal;text-indent:0;text-align:start;text-decoration:none;line-height:normal;letter-spacing:normal;word-spacing:normal;text-transform:none;direction:ltr;block-progression:tb;writing-mode:lr-tb;text-anchor:start;baseline-shift:baseline;color:#000000;fill:#000000;fill-opacity:1;stroke:none;stroke-width:5.375;marker:none;visibility:visible;display:inline;overflow:visible;enable-background:accumulate;font-family:Sans;-inkscape-font-specification:Sans"
     inkscape:connector-curvature="0" />
  <path
     d="m 4570.7095,2559.1946 c -70.8846,0 -122.7762,37.3662 -150.3576,85.7077 -27.5826,48.3404 -35.4653,105.7977 -35.4653,157.7461 0,53.1365 11.0546,111.5336 41.7449,159.5938 30.6906,48.0613 84.5789,84.23 155.8997,84.23 48.369,0 88.5318,-16.5528 116.3711,-43.5927 27.8393,-27.04 43.0758,-62.7322 49.1331,-99.3761 l -62.433,-10.3441 c -4.3565,26.3531 -14.7648,48.8393 -30.6631,64.2809 -15.8978,15.4404 -37.6639,25.4901 -72.4081,25.4901 -51.4434,0 -80.7769,-21.2899 -102.3316,-55.0446 -21.5559,-33.7546 -31.7708,-81.5287 -31.7708,-125.2373 0,-44.8943 8.3425,-93.055 27.3376,-126.3451 18.9943,-33.29 44.0291,-53.5667 94.9431,-53.5667 36.9569,0 60.9823,10.7377 77.9498,27.3378 16.967,16.6001 27.8668,40.8572 30.6621,71.6694 l 63.1734,-5.9109 c -3.8645,-42.5844 -19.9008,-82.2369 -49.5036,-111.199 -29.6028,-28.9621 -72.0959,-45.4393 -122.2817,-45.4393 z"
     id="path4280"
     style="font-size:medium;font-style:normal;font-variant:normal;font-weight:normal;font-stretch:normal;text-indent:0;text-align:start;text-decoration:none;line-height:normal;letter-spacing:normal;word-spacing:normal;text-transform:none;direction:ltr;block-progression:tb;writing-mode:lr-tb;text-anchor:start;baseline-shift:baseline;color:#000000;fill:#000000;fill-opacity:1;stroke:none;stroke-width:5.375;marker:none;visibility:visible;display:inline;overflow:visible;enable-background:accumulate;font-family:Sans;-inkscape-font-specification:Sans"
     inkscape:connector-curvature="0" />
  <path
     d="m 5236.8196,2393.7183 0,223.5058 c -31.6862,-34.2902 -77.4825,-58.0011 -134.4727,-58.0011 -70.66,0 -124.0963,36.2786 -154.7903,84.23 -30.6939,47.9514 -42.1154,105.9904 -42.1154,159.225 0,53.1282 11.1576,111.2179 41.7449,159.2237 30.589,48.007 84.1,84.6001 155.1608,84.6001 56.9127,0 102.7403,-23.6235 134.4727,-57.6311 l 11.8865,55.0445 51.6553,0 0,-650.1969 z m -134.4727,229.0466 c 50.5651,0 79.9799,21.2804 101.5936,55.0457 21.6138,33.7653 32.1398,81.2569 32.1398,124.8674 0,43.7145 -10.6607,91.5252 -32.1398,125.2362 -21.4801,33.7109 -50.4694,55.0456 -101.5936,55.0456 -51.1242,0 -80.1135,-21.3347 -101.5926,-55.0456 -21.4801,-33.711 -31.7708,-81.5217 -31.7708,-125.2362 0,-43.6105 10.526,-91.1021 32.1397,-124.8674 21.6138,-33.7653 50.6597,-55.0457 101.2237,-55.0457 z"
     id="path4293"
     style="font-size:medium;font-style:normal;font-variant:normal;font-weight:normal;font-stretch:normal;text-indent:0;text-align:start;text-decoration:none;line-height:normal;letter-spacing:normal;word-spacing:normal;text-transform:none;direction:ltr;block-progression:tb;writing-mode:lr-tb;text-anchor:start;baseline-shift:baseline;color:#000000;fill:#000000;fill-opacity:1;stroke:none;stroke-width:5.375;marker:none;visibility:visible;display:inline;overflow:visible;enable-background:accumulate;font-family:Sans;-inkscape-font-specification:Sans"
     inkscape:connector-curvature="0" />
  <path
     d="m 5676.811,2394.4572 c -125.7954,4.8493 -150.0297,100.8668 -142.9702,168.0912 3.4819,26.3507 5.9787,45.0386 8.4975,63.172 l -112.6765,0 0,63.5419 120.0652,0 0,354.6529 63.5423,0 0,-354.6529 145.5556,0 0,-63.5419 -152.5755,0 c -2.7519,-19.5319 -5.7005,-42.1174 -9.6052,-71.6695 -7.5041,-56.8071 17.7306,-87.8853 62.0641,-94.9429 45.3412,-7.2183 99.4795,13.7369 122.2822,79.7969 l 46.1778,-18.4715 c -22.1398,-84.9606 -83.7498,-124.794 -150.3573,-125.9762 z"
     id="path4299"
     style="font-size:medium;font-style:normal;font-variant:normal;font-weight:normal;font-stretch:normal;text-indent:0;text-align:start;text-decoration:none;line-height:normal;letter-spacing:normal;word-spacing:normal;text-transform:none;direction:ltr;block-progression:tb;writing-mode:lr-tb;text-anchor:start;baseline-shift:baseline;color:#000000;fill:#000000;fill-opacity:1;stroke:none;stroke-width:5.375;marker:none;visibility:visible;display:inline;overflow:visible;enable-background:accumulate;font-family:Sans;-inkscape-font-specification:Sans"
     inkscape:connector-curvature="0" />
  <path
     d="m 6370.6004,2567.3504 -63.1728,0.733 c -1.1583,31.7733 -22.9875,45.308 -44.3319,48.7647 -25.6894,-11.5888 -57.8758,-18.4714 -96.4203,-18.4714 -67.4502,0 -114.9006,20.6076 -143.3391,51.7202 -28.439,31.1136 -36.378,69 -36.2043,98.2683 0.4491,75.6853 72.0387,104.1793 72.0387,104.1793 l 0,1.4778 c 0,0 -51.6591,14.8256 -53.9371,69.0839 -0.8037,19.1655 0.3782,52.1872 53.1982,66.4974 l 0,1.8466 c -51.8866,10.175 -95.7776,56.7386 -94.9431,108.9813 0.4727,29.4373 9.8795,50.8856 26.2286,69.3039 16.3507,18.4182 37.6253,28.8202 58.7399,34.7263 42.2303,11.8124 87.0652,13.0797 118.2182,13.0797 30.584,0 75.5893,-0.2601 118.2176,-11.6019 21.3131,-5.6685 43.0621,-15.8967 59.4771,-34.7264 16.4162,-18.8297 25.4915,-30.4198 25.4915,-73.2571 0,-42.8362 -17.9477,-81.0867 -62.9365,-100.2403 -44.9888,-19.1548 -68.9674,-26.6249 -155.7775,-26.1544 -86.8107,0.4728 -92.6069,-30.5451 -88.2829,-53.2571 4.3247,-22.7119 30.7589,-31.7709 103.8107,-31.7709 114.7286,-0.603 179.5429,-70.6918 179.5429,-138.1669 0,-26.6782 -5.7687,-68.9268 -39.8984,-97.5295 35.1686,-10.2164 52.3121,-32.3467 60.4325,-56.1274 2.7876,-10.2553 3.6012,-16.9004 3.848,-27.365 z m -203.925,94.5741 c 55.2003,0 81.6362,14.8588 96.4203,31.0322 14.7846,16.1744 19.5803,37.3969 19.5803,55.4144 0,27.0991 -25.3304,74.1461 -116.0006,74.6249 -94.6298,0 -116.0012,-45.8708 -116.0012,-74.6249 0,-18.0175 4.7947,-39.24 19.5793,-55.4144 14.7841,-16.1734 41.2199,-31.0322 96.4219,-31.0322 z m -0.3667,368.3224 c 54.4616,0 140.5004,5.1755 140.0139,69.8217 -0.4854,64.6461 -91.1545,61.0806 -139.645,60.5865 -48.4894,-0.4965 -139.2129,3.5678 -139.6445,-60.9554 -0.426,-64.5232 84.8125,-69.3961 139.2756,-69.4528 z"
     id="path4303"
     style="font-size:medium;font-style:normal;font-variant:normal;font-weight:normal;font-stretch:normal;text-indent:0;text-align:start;text-decoration:none;line-height:normal;letter-spacing:normal;word-spacing:normal;text-transform:none;direction:ltr;block-progression:tb;writing-mode:lr-tb;text-anchor:start;baseline-shift:baseline;color:#000000;fill:#000000;fill-opacity:1;stroke:none;stroke-width:5.375;marker:none;visibility:visible;display:inline;overflow:visible;enable-background:accumulate;font-family:Sans;-inkscape-font-specification:Sans"
     inkscape:connector-curvature="0"
     sodipodi:nodetypes="cccsssccccccssssszzzscscccssscssscscsc" />
  <path
     d="m 6501.0086,2393.7183 0,408.9597 0,241.2372 63.5422,0 0,-241.2372 c 0,-43.5868 10.7965,-91.1057 32.5097,-124.8674 21.7138,-33.7618 51.0643,-55.0457 101.9631,-55.0457 53.9827,0 84.2165,15.9653 104.1789,40.2685 19.9624,24.3032 29.9244,60.5924 29.9244,104.1793 l 0,276.7025 63.5423,0 0,-276.7025 c 0,-53.2571 -11.7392,-104.7668 -44.3319,-144.4478 -32.5938,-39.6809 -85.4985,-63.5419 -153.3137,-63.5419 -56.761,0 -121.1108,36.6805 -134.4728,80.9057 l 0,-246.4104 z"
     id="path4311"
     style="font-size:medium;font-style:normal;font-variant:normal;font-weight:normal;font-stretch:normal;text-indent:0;text-align:start;text-decoration:none;line-height:normal;letter-spacing:normal;word-spacing:normal;text-transform:none;direction:ltr;block-progression:tb;writing-mode:lr-tb;text-anchor:start;baseline-shift:baseline;color:#000000;fill:#000000;fill-opacity:1;stroke:none;stroke-width:5.375;marker:none;visibility:visible;display:inline;overflow:visible;enable-background:accumulate;font-family:Sans;-inkscape-font-specification:Sans"
     inkscape:connector-curvature="0" />
  <path
     d="m 7047.7653,2559.223 0,63.5419 151.0973,0 0,359.086 -175.1094,0 0,63.542 413.7612,0 0,-63.542 -175.11,0 0,-422.6279 z"
     id="path4315"
     style="font-size:medium;font-style:normal;font-variant:normal;font-weight:normal;font-stretch:normal;text-indent:0;text-align:start;text-decoration:none;line-height:normal;letter-spacing:normal;word-spacing:normal;text-transform:none;direction:ltr;block-progression:tb;writing-mode:lr-tb;text-anchor:start;baseline-shift:baseline;color:#000000;fill:#000000;fill-opacity:1;stroke:none;stroke-width:5.375;marker:none;visibility:visible;display:inline;overflow:visible;enable-background:accumulate;font-family:Sans;-inkscape-font-specification:Sans"
     inkscape:connector-curvature="0" />
  <path
     d="m 7291.0724,2395.2303 c 0,33.283 -26.981,60.2638 -60.2636,60.2638 -33.2831,0 -60.2648,-26.9808 -60.2648,-60.2638 0,-33.283 26.9817,-60.2649 60.2648,-60.2649 33.2826,0 60.2636,26.9819 60.2636,60.2649 z"
     id="path4321"
     style="color:#000000;fill:#000000;fill-opacity:1;fill-rule:nonzero;stroke:none;stroke-width:5.375;marker:none;visibility:visible;display:inline;overflow:visible;enable-background:accumulate"
     inkscape:connector-curvature="0" />
  <path
     d="m 7636.2684,2559.223 0,63.5419 210.205,0 0,350.2197 c 0,0 0.674,85.1522 -13.3,120.8042 -13.979,35.6509 -34.378,60.2166 -103.44,60.2166 -68.965,0 -85.432,-25.0315 -95.313,-51.7203 -9.879,-26.6888 -5.911,-56.1533 -5.911,-56.1533 l -62.433,-10.7129 c 0,0 -8.416,43.3457 8.496,89.032 16.913,45.6864 66.718,93.0963 155.161,93.0963 88.345,0 141.992,-47.1132 162.919,-100.4849 20.927,-53.3717 17.362,-144.0777 17.362,-144.0777 l 0,-413.7616 z"
     id="path4325"
     style="font-size:medium;font-style:normal;font-variant:normal;font-weight:normal;font-stretch:normal;text-indent:0;text-align:start;text-decoration:none;line-height:normal;letter-spacing:normal;word-spacing:normal;text-transform:none;direction:ltr;block-progression:tb;writing-mode:lr-tb;text-anchor:start;baseline-shift:baseline;color:#000000;fill:#000000;fill-opacity:1;stroke:none;stroke-width:5.375;marker:none;visibility:visible;display:inline;overflow:visible;enable-background:accumulate;font-family:Sans;-inkscape-font-specification:Sans"
     inkscape:connector-curvature="0" />
  <path
     d="m 7927.7604,2395.2303 c 0,33.283 -26.98,60.2638 -60.264,60.2638 -33.283,0 -60.264,-26.9808 -60.264,-60.2638 0,-33.283 26.981,-60.2649 60.264,-60.2649 33.284,0 60.264,26.9819 60.264,60.2649 z"
     id="path4333"
     style="color:#000000;fill:#000000;fill-opacity:1;fill-rule:nonzero;stroke:none;stroke-width:5.375;marker:none;visibility:visible;display:inline;overflow:visible;enable-background:accumulate"
     inkscape:connector-curvature="0" />
  <path
     d="m 271.20746,3831.509 0,650.0112 63.542,0 0,-115.4465 86.4466,-93.0964 168.0899,208.5429 78.6892,0 0,-6.4641 -202.0786,-249.7346 174.002,-186.9316 -46.5482,-43.224 -258.6009,277.8114 0,-441.4683 z"
     id="path4337"
     style="font-size:medium;font-style:normal;font-variant:normal;font-weight:normal;font-stretch:normal;text-indent:0;text-align:start;text-decoration:none;line-height:normal;letter-spacing:normal;word-spacing:normal;text-transform:none;direction:ltr;block-progression:tb;writing-mode:lr-tb;text-anchor:start;baseline-shift:baseline;color:#000000;fill:#000000;fill-opacity:1;stroke:none;stroke-width:5.375;marker:none;visibility:visible;display:inline;overflow:visible;enable-background:accumulate;font-family:Sans;-inkscape-font-specification:Sans"
     inkscape:connector-curvature="0" />
  <path
     d="m 905.88806,3831.878 0,63.5419 175.11004,0 0,524.2218 -175.11004,0 0,63.542 413.76174,0 0,-63.542 -175.1098,0 0,-587.7637 z"
     id="path4347"
     style="font-size:medium;font-style:normal;font-variant:normal;font-weight:normal;font-stretch:normal;text-indent:0;text-align:start;text-decoration:none;line-height:normal;letter-spacing:normal;word-spacing:normal;text-transform:none;direction:ltr;block-progression:tb;writing-mode:lr-tb;text-anchor:start;baseline-shift:baseline;color:#000000;fill:#000000;fill-opacity:1;stroke:none;stroke-width:5.375;marker:none;visibility:visible;display:inline;overflow:visible;enable-background:accumulate;font-family:Sans;-inkscape-font-specification:Sans"
     inkscape:connector-curvature="0" />
  <path
     d="m 1715.4139,3995.905 c -58.747,0 -94.8862,17.5316 -124.6026,42.1148 l -9.4041,-41.376 -54.1379,0 0,485.061 63.542,0 0,-307.7346 c 0,-108.0038 74.4097,-121.996 130.0393,-113.7846 42.2309,6.2325 59.5853,21.1184 72.4084,46.5483 12.823,25.4285 17.7325,64.8269 17.7325,111.5679 l 0,263.0341 63.542,0 0,-263.0341 c 0,-50.5418 0,-104.9287 -30.2932,-150.3587 -30.3312,-45.4299 -70.0793,-72.0381 -128.8264,-72.0381 z"
     id="path4355"
     style="font-size:medium;font-style:normal;font-variant:normal;font-weight:normal;font-stretch:normal;text-indent:0;text-align:start;text-decoration:none;line-height:normal;letter-spacing:normal;word-spacing:normal;text-transform:none;direction:ltr;block-progression:tb;writing-mode:lr-tb;text-anchor:start;baseline-shift:baseline;color:#000000;fill:#000000;fill-opacity:1;stroke:none;stroke-width:5.375;marker:none;visibility:visible;display:inline;overflow:visible;enable-background:accumulate;font-family:Sans;-inkscape-font-specification:Sans"
     inkscape:connector-curvature="0" />
  <path
     d="m 2037.8216,3996.6438 0,661.6497 63.542,0 0,-232.3723 c 31.6515,34.2549 76.8922,58.3701 134.1025,58.3701 71.0795,0 124.8757,-36.1888 155.5305,-84.2301 30.6551,-48.0411 41.7451,-106.4348 41.7451,-159.5936 0,-53.2643 -11.7083,-111.322 -42.4839,-159.2238 -30.7755,-47.9018 -84.1461,-84.2301 -154.7917,-84.2301 -57.2919,0 -102.4013,24.5383 -134.1025,59.1089 l -13.2996,-58.0011 z m 197.6445,63.9119 c 50.5804,0 79.9234,21.3157 101.5938,55.0444 21.6705,33.7288 32.1399,81.2876 32.1399,124.8675 0,43.6848 -10.2199,91.4625 -31.7712,125.2372 -21.551,33.7738 -50.8548,55.0445 -101.9625,55.0445 -51.1067,0 -87.5154,-21.2839 -108.9813,-55.0445 -21.4659,-33.7617 -24.3824,-81.5123 -24.3824,-125.2372 0,-43.62 3.1659,-91.1519 24.7513,-124.8675 21.5853,-33.7155 58.033,-55.0444 108.6124,-55.0444 z"
     id="path4361"
     style="font-size:medium;font-style:normal;font-variant:normal;font-weight:normal;font-stretch:normal;text-indent:0;text-align:start;text-decoration:none;line-height:normal;letter-spacing:normal;word-spacing:normal;text-transform:none;direction:ltr;block-progression:tb;writing-mode:lr-tb;text-anchor:start;baseline-shift:baseline;color:#000000;fill:#000000;fill-opacity:1;stroke:none;stroke-width:5.375;marker:none;visibility:visible;display:inline;overflow:visible;enable-background:accumulate;font-family:Sans;-inkscape-font-specification:Sans"
     inkscape:connector-curvature="0" />
  <path
     d="m 3177.9452,4037.8933 c -53.5846,45.0965 -62.109,94.7645 -46.242,138.6633 14.4498,39.9731 44.7359,65.8355 92.3255,78.5616 47.5886,12.7261 100.9863,14.211 155.9315,31.8975 25.1982,8.4029 37.7964,16.9145 42.8539,37.313 5.8906,23.7546 1.6065,43.6848 -15.146,60.5865 -16.7527,16.9017 -49.8429,31.9151 -107.1346,32.1398 -57.7021,0.2252 -85.9454,-13.0122 -100.8553,-26.9678 -14.9095,-13.9568 -19.8132,-31.6858 -21.4269,-49.8738 l -58.8391,5.5422 c -0.2252,26.9371 7.0125,62.7452 36.6733,90.5098 29.662,27.7658 76.4313,44.5988 144.448,44.3316 68.4265,-0.2718 119.8157,-18.3048 152.2051,-50.9813 32.1091,-32.3952 43.6943,-78.4682 31.7708,-119.3253 -11.9234,-40.8585 -37.346,-70.505 -84.2301,-83.4912 -46.8849,-12.985 -110.8064,-17.222 -158.5709,-29.5911 -47.7636,-12.3691 -66.1287,-65.9973 -36.1191,-100.4447 16.4724,-18.3972 44.5265,-33.2453 77.5802,-35.0964 37.7884,-2.115 66.384,2.4872 86.4466,12.9306 20.0639,10.4434 34.2051,26.359 45.0704,56.5222 l 51.4886,-20.9044 c -9.2398,-41.6032 -31.7735,-69.4222 -80.3927,-94.7266 -48.6205,-25.3032 -154.2514,-22.6919 -207.8372,22.4045 z"
     id="path4373"
     style="font-size:medium;font-style:normal;font-variant:normal;font-weight:normal;font-stretch:normal;text-indent:0;text-align:start;text-decoration:none;line-height:normal;letter-spacing:normal;word-spacing:normal;text-transform:none;direction:ltr;block-progression:tb;writing-mode:lr-tb;text-anchor:start;baseline-shift:baseline;color:#000000;fill:#000000;fill-opacity:1;stroke:none;stroke-width:5.375;marker:none;visibility:visible;display:inline;overflow:visible;enable-background:accumulate;font-family:Sans;-inkscape-font-specification:Sans"
     inkscape:connector-curvature="0" />
  <path
     d="m 3833.9902,3887.6815 0,109.3322 -127.8228,0 0,63.542 127.8228,0 0,420.7802 238.2818,0 0,-63.542 -174.7399,0 0,-357.2382 175.8489,0 0,-63.542 -175.8489,0 0,-133.3648 z"
     id="path4377"
     style="font-size:medium;font-style:normal;font-variant:normal;font-weight:normal;font-stretch:normal;text-indent:0;text-align:start;text-decoration:none;line-height:normal;letter-spacing:normal;word-spacing:normal;text-transform:none;direction:ltr;block-progression:tb;writing-mode:lr-tb;text-anchor:start;baseline-shift:baseline;color:#000000;fill:#000000;fill-opacity:1;stroke:none;stroke-width:5.375;marker:none;visibility:visible;display:inline;overflow:visible;enable-background:accumulate;font-family:Sans;-inkscape-font-specification:Sans"
     inkscape:connector-curvature="0" />
  <path
     d="m 4813.3483,3997.0137 164.0272,484.3222 73.1469,0 164.0271,-484.3222 -66.4975,0 -130.987,387.3447 -3.0169,17.002 -3.0185,-17.002 -131.1826,-387.3447 z"
     id="path4393"
     style="font-size:medium;font-style:normal;font-variant:normal;font-weight:normal;font-stretch:normal;text-indent:0;text-align:start;text-decoration:none;line-height:normal;letter-spacing:normal;word-spacing:normal;text-transform:none;direction:ltr;block-progression:tb;writing-mode:lr-tb;text-anchor:start;baseline-shift:baseline;color:#000000;fill:#000000;fill-opacity:1;stroke:none;stroke-width:5.375;marker:none;visibility:visible;display:inline;overflow:visible;enable-background:accumulate;font-family:Sans;-inkscape-font-specification:Sans"
     inkscape:connector-curvature="0" />
  <path
     d="m 5340.1559,3997.7526 41.376,483.5833 67.6064,0 96.0717,-249.3647 1.0874,-4.8316 1.1588,4.8258 96.0008,249.3705 67.6063,0 41.0061,-483.5833 -63.9106,0 -30.6632,362.4101 -81.3272,-212.4216 -59.2193,0 -82.2195,213.1605 -30.2926,-363.149 z"
     id="path4397"
     style="font-size:medium;font-style:normal;font-variant:normal;font-weight:normal;font-stretch:normal;text-indent:0;text-align:start;text-decoration:none;line-height:normal;letter-spacing:normal;word-spacing:normal;text-transform:none;direction:ltr;block-progression:tb;writing-mode:lr-tb;text-anchor:start;baseline-shift:baseline;color:#000000;fill:#000000;fill-opacity:1;stroke:none;stroke-width:5.375;marker:none;visibility:visible;display:inline;overflow:visible;enable-background:accumulate;font-family:Sans;-inkscape-font-specification:Sans"
     inkscape:connector-curvature="0" />
  <path
     d="m 4465.9806,4481.7048 c 58.7469,0 94.8859,-17.5331 124.6023,-42.1151 l 9.404,41.3762 54.1377,0 0,-485.0609 -63.5417,0 0,307.7344 c 0,108.0037 -74.41,121.996 -130.0395,113.7846 -42.2318,-6.2327 -59.585,-21.1185 -72.4082,-46.5484 -12.823,-25.4285 -17.7327,-64.8269 -17.7327,-111.5678 l 0,-263.0341 -63.542,0 0,263.0341 c 0,50.5417 0,104.9287 30.2935,150.3587 30.3309,45.4286 70.078,72.0383 128.8266,72.0383 z"
     id="path4606"
     style="font-size:medium;font-style:normal;font-variant:normal;font-weight:normal;font-stretch:normal;text-indent:0;text-align:start;text-decoration:none;line-height:normal;letter-spacing:normal;word-spacing:normal;text-transform:none;direction:ltr;block-progression:tb;writing-mode:lr-tb;text-anchor:start;baseline-shift:baseline;color:#000000;fill:#000000;fill-opacity:1;stroke:none;stroke-width:5.375;marker:none;visibility:visible;display:inline;overflow:visible;enable-background:accumulate;font-family:Sans;-inkscape-font-specification:Sans"
     inkscape:connector-curvature="0" />
  <path
     d="m 5894.3008,3998.1215 162.9195,239.0216 -166.983,245.3017 76.8416,0 127.084,-190.2191 1.3066,-2.9557 0.3425,0 1.3061,2.9557 127.4534,190.2191 76.8411,0 -167.3513,-245.3017 163.2883,-239.0216 -76.8421,0 -124.1282,185.7931 -0.6025,1.7542 -0.4612,0 -0.78,-1.8463 -123.3899,-185.701 z"
     id="path4653"
     style="font-size:medium;font-style:normal;font-variant:normal;font-weight:normal;font-stretch:normal;text-indent:0;text-align:start;text-decoration:none;line-height:normal;letter-spacing:normal;word-spacing:normal;text-transform:none;direction:ltr;block-progression:tb;writing-mode:lr-tb;text-anchor:start;baseline-shift:baseline;color:#000000;fill:#000000;fill-opacity:1;stroke:none;stroke-width:5.37499952;marker:none;visibility:visible;display:inline;overflow:visible;enable-background:accumulate;font-family:Sans;-inkscape-font-specification:Sans"
     inkscape:connector-curvature="0" />
  <path
     d="m 6470.2426,3997.0137 169.1994,449.2269 c 0,0 -27.8987,69.9292 -49.1353,99.0073 -26.653,35.5386 -76.4144,44.1186 -89.0321,45.8093 l 0,63.542 c 10.9449,-0.544 91.3447,-6.4088 140.0133,-71.2994 21.5456,-28.7306 52.8294,-101.5938 52.8294,-101.5938 l 177.3265,-484.6923 -66.4976,0 -131.1486,351.6973 -2.9552,14.2289 -2.9553,-14.2289 -131.147,-351.6973 z"
     id="path4691"
     style="font-size:medium;font-style:normal;font-variant:normal;font-weight:normal;font-stretch:normal;text-indent:0;text-align:start;text-decoration:none;line-height:normal;letter-spacing:normal;word-spacing:normal;text-transform:none;direction:ltr;block-progression:tb;writing-mode:lr-tb;text-anchor:start;baseline-shift:baseline;color:#000000;fill:#000000;fill-opacity:1;stroke:none;stroke-width:5.375;marker:none;visibility:visible;display:inline;overflow:visible;enable-background:accumulate;font-family:Sans;-inkscape-font-specification:Sans"
     inkscape:connector-curvature="0" />
  <path
     d="m 7014.4124,3996.2749 0,63.5419 286.309,0 -294.4355,358.3472 0,62.433 391.2275,0 0,-63.542 -308.1043,0 294.6193,-357.9771 0,-62.803 -369.6149,0 z"
     id="path4704"
     style="font-size:medium;font-style:normal;font-variant:normal;font-weight:normal;font-stretch:normal;text-indent:0;text-align:start;text-decoration:none;line-height:normal;letter-spacing:normal;word-spacing:normal;text-transform:none;direction:ltr;block-progression:tb;writing-mode:lr-tb;text-anchor:start;baseline-shift:baseline;color:#000000;fill:#000000;fill-opacity:1;stroke:none;stroke-width:5.375;marker:none;visibility:visible;display:inline;overflow:visible;enable-background:accumulate;font-family:Sans;-inkscape-font-specification:Sans"
     inkscape:connector-curvature="0" />
  <path
     d="m 2963.2431,3996.6438 0,661.6497 -63.5418,0 0,-232.3723 c -31.6517,34.2549 -76.8924,58.3701 -134.1025,58.3701 -71.0783,0 -124.8757,-36.1888 -155.5308,-84.2301 -30.6538,-48.0411 -41.7448,-106.4348 -41.7448,-159.5936 0,-53.2643 11.7081,-111.322 42.4837,-159.2238 30.7768,-47.9018 84.1473,-84.2301 154.7919,-84.2301 57.2917,0 102.4011,24.5383 134.1025,59.1089 l 13.2994,-58.0011 z m -197.6443,63.9119 c -50.5795,0 -79.9234,21.3157 -101.5938,55.0444 -21.6707,33.7288 -32.1398,81.2876 -32.1398,124.8675 0,43.6848 10.2198,91.4625 31.7708,125.2372 21.5511,33.7738 50.8548,55.0445 101.9628,55.0445 51.1065,0 87.5152,-21.2839 108.9811,-55.0445 21.4672,-33.7617 24.3823,-81.5123 24.3823,-125.2372 0,-43.62 -3.1658,-91.1519 -24.7511,-124.8675 -21.5855,-33.7155 -58.0329,-55.0444 -108.6123,-55.0444 z"
     id="path4730"
     style="font-size:medium;font-style:normal;font-variant:normal;font-weight:normal;font-stretch:normal;text-indent:0;text-align:start;text-decoration:none;line-height:normal;letter-spacing:normal;word-spacing:normal;text-transform:none;direction:ltr;block-progression:tb;writing-mode:lr-tb;text-anchor:start;baseline-shift:baseline;color:#000000;fill:#000000;fill-opacity:1;stroke:none;stroke-width:5.375;marker:none;visibility:visible;display:inline;overflow:visible;enable-background:accumulate;font-family:Sans;-inkscape-font-specification:Sans"
     inkscape:connector-curvature="0" />
  <g
     id="g3175"
     transform="matrix(0.99447084,0,0,0.99447084,-1673.7001,901.06249)"
     style="fill:#000000" />
</svg>
