<?xml version="1.0" encoding="UTF-8" standalone="no"?>
<!-- Created with Inkscape (http://www.inkscape.org/) -->

<svg
   xmlns:dc="http://purl.org/dc/elements/1.1/"
   xmlns:cc="http://creativecommons.org/ns#"
   xmlns:rdf="http://www.w3.org/1999/02/22-rdf-syntax-ns#"
   xmlns:svg="http://www.w3.org/2000/svg"
   xmlns="http://www.w3.org/2000/svg"
   xmlns:sodipodi="http://sodipodi.sourceforge.net/DTD/sodipodi-0.dtd"
   xmlns:inkscape="http://www.inkscape.org/namespaces/inkscape"
   version="1.0"
   width="1000"
   height="1000"
   id="svg5496"
   sodipodi:version="0.32"
   inkscape:version="0.48.1 r9760"
   sodipodi:docname="capsonly.svg"
   inkscape:output_extension="org.inkscape.output.svg.inkscape">
  <metadata
     id="metadata5594">
    <rdf:RDF>
      <cc:Work
         rdf:about="">
        <dc:format>image/svg+xml</dc:format>
        <dc:type
           rdf:resource="http://purl.org/dc/dcmitype/StillImage" />
        <dc:title></dc:title>
      </cc:Work>
    </rdf:RDF>
  </metadata>
  <sodipodi:namedview
     inkscape:window-height="856"
     inkscape:window-width="1371"
     inkscape:pageshadow="2"
     inkscape:pageopacity="0.0"
     borderopacity="1.0"
     bordercolor="#666666"
     pagecolor="#ffffff"
     id="base"
     showgrid="false"
     showguides="true"
     inkscape:guide-bbox="true"
     inkscape:zoom="0.05656854"
     inkscape:cx="7130.3153"
     inkscape:cy="-4328.3101"
     inkscape:window-x="333"
     inkscape:window-y="10"
     inkscape:current-layer="svg5496"
     inkscape:window-maximized="0">
    <sodipodi:guide
       orientation="horizontal"
       position="200"
       id="guide5596" />
  </sodipodi:namedview>
  <defs
     id="defs5498" />
  <g
     transform="translate(40.547564,119.72038)"
     id="layer1" />
  <path
     style="font-size:medium;font-style:normal;font-variant:normal;font-weight:normal;font-stretch:normal;text-indent:0;text-align:start;text-decoration:none;line-height:normal;letter-spacing:normal;word-spacing:normal;text-transform:none;direction:ltr;block-progression:tb;writing-mode:lr-tb;text-anchor:start;baseline-shift:baseline;color:#000000;fill:#000000;fill-opacity:1;stroke:none;stroke-width:5.375;marker:none;visibility:visible;display:inline;overflow:visible;enable-background:accumulate;font-family:Sans;-inkscape-font-specification:Sans"
     d="m 565.87626,5267.1842 -163.1565,648.209 65.1886,0 44.1961,-176.0476 187.8332,0 44.5647,176.0476 65.1887,0 -163.1564,-648.209 z m 40.1452,94.1343 0.9078,8.5421 77.1709,306.1372 -155.7917,0 76.8339,-306.2444 z"
     id="path4028"
     inkscape:connector-curvature="0"
     sodipodi:nodetypes="ccccccccccccccc" />
  <path
     style="font-size:medium;font-style:normal;font-variant:normal;font-weight:normal;font-stretch:normal;text-indent:0;text-align:start;text-decoration:none;line-height:normal;letter-spacing:normal;word-spacing:normal;text-transform:none;direction:ltr;block-progression:tb;writing-mode:lr-tb;text-anchor:start;baseline-shift:baseline;color:#000000;fill:#000000;fill-opacity:1;stroke:none;stroke-width:5.375;marker:none;visibility:visible;display:inline;overflow:visible;enable-background:accumulate;font-family:Sans;-inkscape-font-specification:Sans"
     d="m 1048.7189,5267.1842 0,648.209 c 0,0 151.8717,-0.3655 228.3461,-0.3655 54.7807,0 102.4477,-16.3288 135.5347,-48.9846 33.0869,-32.6553 49.3521,-79.7355 49.3521,-133.3246 0,-54.5177 -19.4201,-101.9466 -54.8773,-134.0615 -8.4596,-7.6619 -18.0014,-13.9388 -27.813,-19.9775 -4.9637,-3.0551 -10.6456,-2.6826 -13.0677,-3.961 2.0791,-1.7209 6.5764,-0.6132 12.1533,-5.1577 33.3628,-31.0423 49.7212,-77.7838 49.7212,-133.6924 0,-41.442 -13.3873,-84.298 -44.1961,-116.7519 -30.8086,-32.4519 -78.3862,-52.0809 -138.1134,-52.0809 -66.4519,-0.7422 -197.0399,0.1537 -197.0399,0.1537 z m 63.3476,62.6111 133.6923,0 c 46.0781,0 74.0009,14.1075 92.0754,33.1471 18.0755,19.0396 26.8865,45.1742 26.8865,72.9236 0,44.1464 -11.227,70.3177 -29.4641,87.2878 -18.2383,16.9688 -47.1436,26.8854 -89.4978,26.8854 l -133.6923,0 z m 0,283.9592 154.6861,0 c 43.8589,0 76.4677,12.1993 97.9681,31.675 21.5003,19.4723 33.8837,47.0647 33.8837,87.2868 0,41.1516 -11.3875,69.4593 -30.5698,88.3919 -19.1812,18.9325 -48.2784,30.5673 -90.9696,30.5695 l -164.9985,0 z"
     id="path4034"
     inkscape:connector-curvature="0"
     sodipodi:nodetypes="cccsscsccscccccsscscccccsscccc" />
  <path
     style="font-size:medium;font-style:normal;font-variant:normal;font-weight:normal;font-stretch:normal;text-indent:0;text-align:start;text-decoration:none;line-height:normal;letter-spacing:normal;word-spacing:normal;text-transform:none;direction:ltr;block-progression:tb;writing-mode:lr-tb;text-anchor:start;baseline-shift:baseline;color:#000000;fill:#000000;fill-opacity:1;stroke:none;stroke-width:5.375;marker:none;visibility:visible;display:inline;overflow:visible;enable-background:accumulate;font-family:Sans;-inkscape-font-specification:Sans"
     d="m 1853.0871,5267.1841 c -75.8464,0 -146.0014,48.8469 -187.0966,139.9546 -22.1688,49.1445 -29.6928,113.1594 -29.0963,177.5192 0.6008,64.3615 9.7736,127.9577 28.7272,175.68 35.9038,90.3971 103.9162,155.0553 196.3048,155.0553 96.7422,0 170.0089,-79.7122 182.677,-164.2633 l -62.611,-9.2068 c -8.0448,53.6926 -59.9971,110.1211 -120.066,110.1221 -64.4238,0 -107.1264,-39.1141 -137.3767,-115.2785 -14.1228,-35.5583 -23.7667,-94.5702 -24.3077,-152.844 -0.5421,-58.2752 8.1144,-116.7341 23.5712,-151.0044 34.1571,-75.7226 78.5016,-102.3864 129.2741,-102.3864 27.424,0 51.7235,5.478 72.9235,20.2559 21.1999,14.778 45.423,37.0939 59.6646,84.3416 l 56.3495,-15.4698 c -17.2506,-57.2312 -45.0896,-96.779 -79.5531,-120.8027 -34.4621,-24.0228 -73.5009,-31.6728 -109.3845,-31.6728 z"
     id="path4092"
     inkscape:connector-curvature="0"
     sodipodi:nodetypes="ssssscccsscsscccs" />
  <path
     style="font-size:medium;font-style:normal;font-variant:normal;font-weight:normal;font-stretch:normal;text-indent:0;text-align:start;text-decoration:none;line-height:normal;letter-spacing:normal;word-spacing:normal;text-transform:none;direction:ltr;block-progression:tb;writing-mode:lr-tb;text-anchor:start;baseline-shift:baseline;color:#000000;fill:#000000;fill-opacity:1;stroke:none;stroke-width:5.375;marker:none;visibility:visible;display:inline;overflow:visible;enable-background:accumulate;font-family:Sans;-inkscape-font-specification:Sans"
     d="m 2228.3846,5264.9332 -60.0325,0 0,648.2091 53.7722,0 c 11.3507,1.1314 80.9164,7.3034 141.7951,-7.3661 65.9474,-15.8917 121.2586,-48.849 157.2647,-103.4918 36.0053,-54.6465 52.6665,-127.9836 52.6665,-223.5589 0,-96.6896 -22.2856,-167.1248 -60.0324,-216.5608 -37.7471,-49.4361 -89.9031,-75.7368 -141.4273,-88.3919 -49.7461,-10.2514 -92.2368,-8.8396 -144.0063,-8.8396 z m 128.9052,70.346 c 41.7802,10.2608 78.5583,29.1551 106.0707,65.1887 27.5134,36.0334 47.1423,91.2064 47.1423,178.2576 0,88.1669 -15.8681,148.3712 -42.3538,188.5699 -26.487,40.198 -63.865,63.3299 -118.9617,76.6064 -41.08,9.8989 -99.9034,6.996 -117.4872,5.8929 l 0,-521.5138 c 39.1586,-0.7425 85.1628,-2.5267 125.5897,6.9983 z"
     id="path4094"
     inkscape:connector-curvature="0"
     sodipodi:nodetypes="ccccccsscccssssccc" />
  <path
     style="font-size:medium;font-style:normal;font-variant:normal;font-weight:normal;font-stretch:normal;text-indent:0;text-align:start;text-decoration:none;line-height:normal;letter-spacing:normal;word-spacing:normal;text-transform:none;direction:ltr;block-progression:tb;writing-mode:lr-tb;text-anchor:start;baseline-shift:baseline;color:#000000;fill:#000000;fill-opacity:1;stroke:none;stroke-width:5.375;marker:none;visibility:visible;display:inline;overflow:visible;enable-background:accumulate;font-family:Sans;-inkscape-font-specification:Sans"
     d="m 2700.1783,5267.0005 0,648.3927 408.8134,0 0,-63.3476 -345.4659,0 0,-233.5025 283.2226,0 0,-63.3477 -283.2226,0 0,-225.0311 345.4659,0 0,-63.1638 z"
     id="path4098"
     inkscape:connector-curvature="0"
     sodipodi:nodetypes="ccccccccccccc" />
  <path
     style="font-size:medium;font-style:normal;font-variant:normal;font-weight:normal;font-stretch:normal;text-indent:0;text-align:start;text-decoration:none;line-height:normal;letter-spacing:normal;word-spacing:normal;text-transform:none;direction:ltr;block-progression:tb;writing-mode:lr-tb;text-anchor:start;baseline-shift:baseline;color:#000000;fill:#000000;fill-opacity:1;stroke:none;stroke-width:5.375;marker:none;visibility:visible;display:inline;overflow:visible;enable-background:accumulate;font-family:Sans;-inkscape-font-specification:Sans"
     d="m 3287.9859,5267.0005 0,648.3927 63.3473,0 0,-296.8501 282.8548,0 0,-63.3477 -282.8548,0 0,-225.0311 345.0972,0 0,-63.1638 z"
     id="path4106"
     inkscape:connector-curvature="0"
     sodipodi:nodetypes="ccccccccccc" />
  <path
     style="font-size:medium;font-style:normal;font-variant:normal;font-weight:normal;font-stretch:normal;text-indent:0;text-align:start;text-decoration:none;line-height:normal;letter-spacing:normal;word-spacing:normal;text-transform:none;direction:ltr;block-progression:tb;writing-mode:lr-tb;text-anchor:start;baseline-shift:baseline;color:#000000;fill:#000000;fill-opacity:1;stroke:none;stroke-width:5.375;marker:none;visibility:visible;display:inline;overflow:visible;enable-background:accumulate;font-family:Sans;-inkscape-font-specification:Sans"
     d="m 4036.3723,5267.1841 c -75.8462,0 -145.6326,48.8469 -186.7288,139.9546 -22.1675,49.1445 -30.0606,113.1605 -29.4642,177.5192 0.6013,64.3624 9.7738,127.9577 28.7275,175.68 35.9038,90.3971 104.2849,155.0553 196.6725,155.0553 58.0808,0 103.3092,-35.1084 123.0654,-69.3253 l 7.3128,68.2198 51.0106,0 0,-328.5243 -215.6402,0 0,63.3479 152.1076,0 0,102.7562 c -12.5153,50.4401 -61.541,100.1767 -117.8562,100.1777 -64.4239,0 -107.4931,-39.1141 -137.7443,-115.2785 -14.1228,-35.5583 -23.767,-94.5702 -24.308,-152.844 -0.542,-58.2764 8.1134,-116.733 23.5713,-151.0044 34.1572,-75.7217 78.5017,-102.3877 129.274,-102.3864 71.4658,-0.613 113.8765,43.9192 131.4828,104.5975 l 57.4549,-15.4698 c -29.2685,-99.4083 -97.1172,-151.7046 -188.9377,-152.4755 z"
     id="path4112"
     inkscape:connector-curvature="0"
     sodipodi:nodetypes="csssscccccccccssccccc" />
  <path
     inkscape:connector-curvature="0"
     style="font-size:medium;font-style:normal;font-variant:normal;font-weight:normal;font-stretch:normal;text-indent:0;text-align:start;text-decoration:none;line-height:normal;letter-spacing:normal;word-spacing:normal;text-transform:none;direction:ltr;block-progression:tb;writing-mode:lr-tb;text-anchor:start;baseline-shift:baseline;color:#000000;fill:#000000;fill-opacity:1;stroke:none;stroke-width:5.375;marker:none;visibility:visible;display:inline;overflow:visible;enable-background:accumulate;font-family:Sans;-inkscape-font-specification:Sans"
     d="m 4353.8475,5267.1842 0,648.209 63.3479,0 0,-296.8501 282.8546,0 0,296.8501 63.3476,0 0,-648.209 -63.3476,0 0,288.0112 -282.8546,0 0,-288.0112 -63.3479,0 z"
     id="path4118" />
  <path
     sodipodi:nodetypes="ccccccccccccc"
     inkscape:connector-curvature="0"
     style="font-size:medium;font-style:normal;font-variant:normal;font-weight:normal;font-stretch:normal;text-indent:0;text-align:start;text-decoration:none;line-height:normal;letter-spacing:normal;word-spacing:normal;text-transform:none;direction:ltr;block-progression:tb;writing-mode:lr-tb;text-anchor:start;baseline-shift:baseline;color:#000000;fill:#000000;fill-opacity:1;stroke:none;stroke-width:5.375;marker:none;visibility:visible;display:inline;overflow:visible;enable-background:accumulate;font-family:Sans;-inkscape-font-specification:Sans"
     d="m 4936.8662,5265.6069 0,63.3477 174.9438,0 0,523.0912 -174.9438,0 0,63.3474 412.8657,0 0,-63.3474 -174.5745,0 0,-523.0912 174.5745,0 0,-63.3477 z"
     id="path4124" />
  <path
     style="font-size:medium;font-style:normal;font-variant:normal;font-weight:normal;font-stretch:normal;text-indent:0;text-align:start;text-decoration:none;line-height:normal;letter-spacing:normal;word-spacing:normal;text-transform:none;direction:ltr;block-progression:tb;writing-mode:lr-tb;text-anchor:start;baseline-shift:baseline;color:#000000;fill:#000000;fill-opacity:1;stroke:none;stroke-width:5.375;marker:none;visibility:visible;display:inline;overflow:visible;enable-background:accumulate;font-family:Sans;-inkscape-font-specification:Sans"
     d="m 5664.2608,5267.5412 0,63.3477 272.5421,0 c -0.1185,52.8858 -0.3653,180.4 -0.3653,324.8398 0,80.6527 -20.646,128.5705 -48.6158,156.8974 -27.9707,28.3231 -65.7352,39.8141 -109.386,39.4074 -40.3538,-0.3772 -70.8689,-18.0627 -92.8112,-42.3538 -21.9415,-24.295 -33.5148,-55.9251 -33.5148,-75.5021 l -63.3479,0 c 0,40.0923 17.8083,82.5249 49.72,117.8559 31.9117,35.3309 80.0997,62.7936 139.2176,63.3478 55.8238,0.5185 113.1608,-15.7622 155.4229,-58.5594 42.2621,-42.7995 66.6628,-109.3269 66.6628,-201.0932 -0.1186,-129.274 0.3653,-387.8198 0.3653,-387.8198 l 0,-0.3653 z"
     id="path4130"
     inkscape:connector-curvature="0"
     sodipodi:nodetypes="cccscccccscccccc" />
  <path
     style="font-size:medium;font-style:normal;font-variant:normal;font-weight:normal;font-stretch:normal;text-indent:0;text-align:start;text-decoration:none;line-height:normal;letter-spacing:normal;word-spacing:normal;text-transform:none;direction:ltr;block-progression:tb;writing-mode:lr-tb;text-anchor:start;baseline-shift:baseline;color:#000000;fill:#000000;fill-opacity:1;stroke:none;stroke-width:5.375;marker:none;visibility:visible;display:inline;overflow:visible;enable-background:accumulate;font-family:Sans;-inkscape-font-specification:Sans"
     d="m 6110.2719,5267.1842 0,648.209 63.3478,0 0,-175.3112 110.8399,-148.8194 171.3312,324.1306 71.4504,0 -201.8817,-378.6127 201.092,-269.5963 -78.8163,0 -274.0155,367.1952 0,-367.1952 z"
     id="path4134"
     inkscape:connector-curvature="0"
     sodipodi:nodetypes="ccccccccccccc" />
  <path
     style="font-size:medium;font-style:normal;font-variant:normal;font-weight:normal;font-stretch:normal;text-indent:0;text-align:start;text-decoration:none;line-height:normal;letter-spacing:normal;word-spacing:normal;text-transform:none;direction:ltr;block-progression:tb;writing-mode:lr-tb;text-anchor:start;baseline-shift:baseline;color:#000000;fill:#000000;fill-opacity:1;stroke:none;stroke-width:5.375;marker:none;visibility:visible;display:inline;overflow:visible;enable-background:accumulate;font-family:Sans;-inkscape-font-specification:Sans"
     d="m 6709.8652,5267.1842 0,648.209 408.8135,0 0,-63.3476 -345.4659,0 0,-584.8614 z"
     id="path4140"
     inkscape:connector-curvature="0"
     sodipodi:nodetypes="ccccccc" />
  <path
     style="font-size:medium;font-style:normal;font-variant:normal;font-weight:normal;font-stretch:normal;text-indent:0;text-align:start;text-decoration:none;line-height:normal;letter-spacing:normal;word-spacing:normal;text-transform:none;direction:ltr;block-progression:tb;writing-mode:lr-tb;text-anchor:start;baseline-shift:baseline;color:#000000;fill:#000000;fill-opacity:1;stroke:none;stroke-width:5.375;marker:none;visibility:visible;display:inline;overflow:visible;enable-background:accumulate;font-family:Sans;-inkscape-font-specification:Sans"
     d="m 7656.3972,5264.0872 -147.4662,300.9219 -1.3272,7.128 -1.3634,-7.202 -147.4299,-300.8479 -60.4013,0 0,648.3596 63.3477,0 0,-506.0449 145.8469,311.2146 145.8471,-314.1608 0,511.9375 63.3477,0 0,-651.306 z"
     id="path4144"
     inkscape:connector-curvature="0"
     sodipodi:nodetypes="ccccccccccccccc" />
  <path
     style="font-size:medium;font-style:normal;font-variant:normal;font-weight:normal;font-stretch:normal;text-indent:0;text-align:start;text-decoration:none;line-height:normal;letter-spacing:normal;word-spacing:normal;text-transform:none;direction:ltr;block-progression:tb;writing-mode:lr-tb;text-anchor:start;baseline-shift:baseline;color:#000000;fill:#000000;fill-opacity:1;stroke:none;stroke-width:5.375;marker:none;visibility:visible;display:inline;overflow:visible;enable-background:accumulate;font-family:Sans;-inkscape-font-specification:Sans"
     d="m 7886.5856,5267.1846 -59.6644,0 0,648.2086 63.3473,0 0,-521.7305 286.1691,521.7305 59.2971,0 0,-648.2086 -63.3476,0 0,519.4542 z"
     id="path4146"
     inkscape:connector-curvature="0"
     sodipodi:nodetypes="ccccccccccc" />
  <path
     style="font-size:medium;font-style:normal;font-variant:normal;font-weight:normal;font-stretch:normal;text-indent:0;text-align:start;text-decoration:none;line-height:normal;letter-spacing:normal;word-spacing:normal;text-transform:none;direction:ltr;block-progression:tb;writing-mode:lr-tb;text-anchor:start;baseline-shift:baseline;color:#000000;fill:#000000;fill-opacity:1;stroke:none;stroke-width:5.37500048;marker:none;visibility:visible;display:inline;overflow:visible;enable-background:accumulate;font-family:Sans;-inkscape-font-specification:Sans"
     d="m 8620.9765,5266.4481 c -72.6054,0 -128.79,42.5847 -160.2103,102.755 -31.4213,60.1717 -43.4604,137.6406 -43.4604,221.7181 0,84.4122 13.6313,162.1299 45.6701,222.0845 32.0369,59.9545 87.4806,102.3875 158.0006,102.3875 70.5189,0 125.8622,-42.4386 158.0005,-102.3875 32.1393,-59.9487 46.038,-137.6489 46.038,-222.0845 0,-84.1009 -12.3046,-161.5513 -43.8283,-221.7181 -31.5217,-60.1654 -87.6029,-102.755 -160.2102,-102.755 z m 0,63.3475 c 50.0358,0 80.2299,23.0656 104.2285,68.8716 24.0005,45.807 36.4632,114.6459 36.4632,192.254 0,77.269 -13.6302,146.2291 -38.304,192.2517 -24.6738,46.024 -55.4308,68.8729 -102.3877,68.8729 -46.957,0 -77.4276,-22.8535 -102.0188,-68.8729 -24.5913,-46.0181 -38.3041,-114.9593 -38.3041,-192.2517 0,-77.6317 12.5443,-146.4516 36.4623,-192.254 23.917,-45.8015 53.8257,-68.8716 103.8606,-68.8716 z"
     id="path4148"
     inkscape:connector-curvature="0" />
  <path
     style="font-size:medium;font-style:normal;font-variant:normal;font-weight:normal;font-stretch:normal;text-indent:0;text-align:start;text-decoration:none;line-height:normal;letter-spacing:normal;word-spacing:normal;text-transform:none;direction:ltr;block-progression:tb;writing-mode:lr-tb;text-anchor:start;baseline-shift:baseline;color:#000000;fill:#000000;fill-opacity:1;stroke:none;stroke-width:5.375;marker:none;visibility:visible;display:inline;overflow:visible;enable-background:accumulate;font-family:Sans;-inkscape-font-specification:Sans"
     d="m 9004.0088,5267.1842 0,648.209 63.3478,0 0,-278.803 157.2646,0 c 52.9954,0 100.2198,-14.607 133.3238,-47.8803 33.1069,-33.2706 48.9856,-82.3141 48.9856,-141.795 0,-43.7058 -12.9559,-88.3061 -43.4593,-123.0123 -30.5044,-34.7062 -78.5762,-57.086 -138.8501,-57.086 -73.8901,-0.4361 -220.6124,0.3654 -220.6124,0.3654 z m 63.3478,62.9801 157.2646,0 c 45.5309,0 72.9594,14.4444 91.3372,35.3568 18.3808,20.9102 27.6244,50.3647 27.6244,81.3938 0,48.5912 -12.0748,78.643 -30.57,97.2315 -18.4952,18.5881 -46.4468,29.0938 -88.3916,29.0962 l -157.2646,0 z"
     id="path4150"
     inkscape:connector-curvature="0"
     sodipodi:nodetypes="ccccscsscccscssccc" />
  <path
     style="font-size:medium;font-style:normal;font-variant:normal;font-weight:normal;font-stretch:normal;text-indent:0;text-align:start;text-decoration:none;line-height:normal;letter-spacing:normal;word-spacing:normal;text-transform:none;direction:ltr;block-progression:tb;writing-mode:lr-tb;text-anchor:start;baseline-shift:baseline;color:#000000;fill:#000000;fill-opacity:1;stroke:none;stroke-width:5.37500048;marker:none;visibility:visible;display:inline;overflow:visible;enable-background:accumulate;font-family:Sans;-inkscape-font-specification:Sans"
     d="m 9858.8341,5267.9211 c -72.6043,0 -128.7382,42.5882 -160.2093,102.755 -31.473,60.1693 -43.8283,137.6291 -43.8283,221.7181 0,84.4217 14.0539,162.8929 53.3713,229.3762 39.3184,66.4832 98.4267,93.6228 149.7494,93.6228 51.3226,0 80.6973,-18.428 106.3775,-42.4258 0.6126,-0.5658 10.2769,-10.7343 10.8776,-11.3096 7.8603,14.3563 13.119,37.4487 18.4603,53.7354 l 66.2934,0 c -10.466,-35.2933 -22.942,-70.8456 -41.617,-104.2295 30.883,-59.5045 44.196,-135.8364 44.196,-218.7695 0,-84.0903 -11.99,-161.5478 -43.459,-221.7181 -31.4727,-60.1642 -87.6056,-102.755 -160.2119,-102.755 z m 0,63.3475 c 50.0368,0 79.9027,23.0714 103.8615,68.8716 23.9588,45.8059 36.4633,114.6327 36.4633,192.254 0,60.7797 -8.7146,116.1013 -24.3098,159.4737 -26.0751,-27.3556 -58.9871,-51.0247 -100.913,-67.7674 l -19.4061,52.6784 c 45.7755,24.3229 66.8633,46.5848 88.6462,75.1225 -21.5562,27.7021 -47.8818,41.6175 -84.3421,41.6175 -46.9559,0 -77.7537,-22.8523 -102.3868,-68.873 -24.632,-46.0181 -38.304,-114.972 -38.304,-192.2517 0,-77.6213 12.5045,-146.4481 36.4623,-192.254 23.9578,-45.8002 54.1937,-68.8716 104.2285,-68.8716 z"
     id="path4154"
     inkscape:connector-curvature="0"
     sodipodi:nodetypes="scszzsccccscsscsccccscscs" />
  <path
     inkscape:connector-curvature="0"
     style="font-size:medium;font-style:normal;font-variant:normal;font-weight:normal;font-stretch:normal;text-indent:0;text-align:start;text-decoration:none;line-height:normal;letter-spacing:normal;word-spacing:normal;text-transform:none;direction:ltr;block-progression:tb;writing-mode:lr-tb;text-anchor:start;baseline-shift:baseline;color:#000000;fill:#000000;fill-opacity:1;stroke:none;stroke-width:5.375;marker:none;visibility:visible;display:inline;overflow:visible;enable-background:accumulate;font-family:Sans;-inkscape-font-specification:Sans"
     d="m 10263.228,5266.8186 c -45.916,0.1402 -82.499,0.3655 -82.499,0.3655 l 0,648.2091 63.348,0 0,-278.803 171.261,0 104.965,278.803 67.399,0 -109.016,-291.6942 c 21.181,-7.8165 40.269,-19.1976 55.981,-34.9891 33.105,-33.271 48.984,-82.3144 48.984,-141.7953 0,-43.7058 -12.954,-88.3058 -43.46,-123.0122 -30.504,-34.7066 -78.577,-57.0873 -138.85,-57.0861 -36.945,-0.2243 -92.195,-0.1402 -138.113,0 z m -19.151,63.3477 157.264,0 c 45.533,0 72.961,14.4445 91.339,35.3569 18.381,20.9102 27.623,50.3647 27.623,81.3938 0,48.5912 -12.073,78.643 -30.569,97.2315 -18.495,18.5881 -46.449,29.0938 -88.393,29.0962 l -157.264,0 0,-243.0784 z"
     id="path4158" />
  <path
     style="font-size:medium;font-style:normal;font-variant:normal;font-weight:normal;font-stretch:normal;text-indent:0;text-align:start;text-decoration:none;line-height:normal;letter-spacing:normal;word-spacing:normal;text-transform:none;direction:ltr;block-progression:tb;writing-mode:lr-tb;text-anchor:start;baseline-shift:baseline;color:#000000;fill:#000000;fill-opacity:1;stroke:none;stroke-width:5.375;marker:none;visibility:visible;display:inline;overflow:visible;enable-background:accumulate;font-family:Sans;-inkscape-font-specification:Sans"
     d="m 10979.941,5266.0799 c -59.875,0 -109.718,17.8742 -144.373,50.089 -34.653,32.2147 -52.292,77.9333 -51.562,126.6953 0.801,53.0155 33.261,91.9301 68.873,116.3828 35.61,24.453 75.954,38.8338 105.334,50.8255 32.495,13.2637 71.19,25.7082 101.281,42.7231 30.094,17.0148 48.495,34.9902 52.299,62.2421 4.516,32.3515 -2.773,66.9941 -22.835,92.444 -20.059,25.4498 -52.605,44.5637 -110.49,44.5637 -58.236,0 -94.905,-19.0418 -118.224,-37.5654 -23.319,-18.5246 -31.306,-34.6215 -31.306,-34.6215 l -55.982,29.4639 c 0,0 15.159,28.8856 47.88,54.8776 32.72,25.9921 85.028,51.1932 157.632,51.1932 72.958,0 128.128,-27.7022 160.58,-68.8717 32.452,-41.1696 42.333,-92.9871 35.724,-140.3229 -7.319,-52.432 -45.463,-86.873 -83.971,-108.6485 -38.51,-21.7748 -80.578,-34.5799 -108.649,-46.0379 -31.187,-12.7284 -67.356,-26.211 -93.549,-44.196 -26.191,-17.9836 -40.808,-35.8 -41.249,-65.1885 -0.507,-33.641 10.338,-60.0607 31.305,-79.553 20.969,-19.4923 53.622,-33.1472 101.282,-33.1472 91.519,0 127.065,65.9255 127.065,65.9255 l 54.876,-31.6728 c 0,0 -58.387,-97.6003 -181.941,-97.6003 z"
     id="path4164"
     inkscape:connector-curvature="0" />
  <path
     inkscape:connector-curvature="0"
     style="font-size:medium;font-style:normal;font-variant:normal;font-weight:normal;font-stretch:normal;text-indent:0;text-align:start;text-decoration:none;line-height:normal;letter-spacing:normal;word-spacing:normal;text-transform:none;direction:ltr;block-progression:tb;writing-mode:lr-tb;text-anchor:start;baseline-shift:baseline;color:#000000;fill:#000000;fill-opacity:1;stroke:none;stroke-width:5.375;marker:none;visibility:visible;display:inline;overflow:visible;enable-background:accumulate;font-family:Sans;-inkscape-font-specification:Sans"
     d="m 11359.66,5266.8166 0,63.3477 174.941,0 0,585.2289 63.348,0 0,-585.2289 174.576,0 0,-63.3477 -412.865,0 z"
     id="path4166" />
  <path
     style="font-size:medium;font-style:normal;font-variant:normal;font-weight:normal;font-stretch:normal;text-indent:0;text-align:start;text-decoration:none;line-height:normal;letter-spacing:normal;word-spacing:normal;text-transform:none;direction:ltr;block-progression:tb;writing-mode:lr-tb;text-anchor:start;baseline-shift:baseline;color:#000000;fill:#000000;fill-opacity:1;stroke:none;stroke-width:5.37500048;marker:none;visibility:visible;display:inline;overflow:visible;enable-background:accumulate;font-family:Sans;-inkscape-font-specification:Sans"
     d="m 11892.59,5266.4481 0,371.6156 c 0,84.424 13.511,152.0685 47.513,201.4598 33.999,49.3912 90.244,75.8697 156.526,75.8697 66.283,0 122.159,-26.4785 156.158,-75.8697 34.001,-49.3913 47.512,-117.0358 47.512,-201.4598 l 0,-371.6156 -63.348,0 0,371.6156 c 0,77.2805 -13.74,132.3584 -36.462,165.3663 -22.721,33.0079 -52.666,48.6158 -103.86,48.6158 -51.194,0 -81.507,-15.6079 -104.228,-48.6158 -22.722,-33.0079 -36.463,-88.0858 -36.463,-165.3663 l 0,-371.6156 -63.348,0 z"
     id="path4170"
     inkscape:connector-curvature="0" />
  <path
     style="font-size:medium;font-style:normal;font-variant:normal;font-weight:normal;font-stretch:normal;text-indent:0;text-align:start;text-decoration:none;line-height:normal;letter-spacing:normal;word-spacing:normal;text-transform:none;direction:ltr;block-progression:tb;writing-mode:lr-tb;text-anchor:start;baseline-shift:baseline;color:#000000;fill:#000000;fill-opacity:1;stroke:none;stroke-width:5.375;marker:none;visibility:visible;display:inline;overflow:visible;enable-background:accumulate;font-family:Sans;-inkscape-font-specification:Sans"
     d="m 12484.449,5267.1842 161.684,648.209 80.659,0 162.051,-648.209 -65.189,0 -136.246,555.4021 -1.131,10.1568 -1.212,-10.1568 -135.796,-555.4021 z"
     id="path4172"
     inkscape:connector-curvature="0"
     sodipodi:nodetypes="cccccccccc" />
  <path
     style="font-size:medium;font-style:normal;font-variant:normal;font-weight:normal;font-stretch:normal;text-indent:0;text-align:start;text-decoration:none;line-height:normal;letter-spacing:normal;word-spacing:normal;text-transform:none;direction:ltr;block-progression:tb;writing-mode:lr-tb;text-anchor:start;baseline-shift:baseline;color:#000000;fill:#000000;fill-opacity:1;stroke:none;stroke-width:5.375;marker:none;visibility:visible;display:inline;overflow:visible;enable-background:accumulate;font-family:Sans;-inkscape-font-specification:Sans"
     d="m 13073.361,5267.1842 41.251,648.209 76.606,0 83.368,-277.0349 2.446,-19.8152 2.387,19.8152 83.427,277.0349 76.606,0 41.618,-648.209 -63.716,0 -32.041,507.1492 -74.767,-238.6586 -33.33,-115.4285 -33.331,115.7939 -74.765,238.2898 -32.41,-507.149 z"
     id="path4174"
     inkscape:connector-curvature="0"
     sodipodi:nodetypes="ccccccccccccccccc" />
  <path
     style="font-size:medium;font-style:normal;font-variant:normal;font-weight:normal;font-stretch:normal;text-indent:0;text-align:start;text-decoration:none;line-height:normal;letter-spacing:normal;word-spacing:normal;text-transform:none;direction:ltr;block-progression:tb;writing-mode:lr-tb;text-anchor:start;baseline-shift:baseline;color:#000000;fill:#000000;fill-opacity:1;stroke:none;stroke-width:5.375;marker:none;visibility:visible;display:inline;overflow:visible;enable-background:accumulate;font-family:Sans;-inkscape-font-specification:Sans"
     d="m 13726.727,5267.1842 163.525,322.2637 -165.366,325.9453 71.082,0 129.641,-267.7552 130.011,267.7552 70.714,0 -165,-325.9453 163.157,-322.2637 -71.083,0 -127.799,263.7035 -127.801,-263.7035 z"
     id="path4179"
     inkscape:connector-curvature="0"
     sodipodi:nodetypes="ccccccccccccc" />
  <path
     style="font-size:medium;font-style:normal;font-variant:normal;font-weight:normal;font-stretch:normal;text-indent:0;text-align:start;text-decoration:none;line-height:normal;letter-spacing:normal;word-spacing:normal;text-transform:none;direction:ltr;block-progression:tb;writing-mode:lr-tb;text-anchor:start;baseline-shift:baseline;color:#000000;fill:#000000;fill-opacity:1;stroke:none;stroke-width:5.375;marker:none;visibility:visible;display:inline;overflow:visible;enable-background:accumulate;font-family:Sans;-inkscape-font-specification:Sans"
     d="m 14254.133,5264.6057 168.681,363.5132 0,287.2743 63.348,0 0,-287.2743 169.05,-363.5132 -69.975,0 -130.749,292.7996 -130.745,-292.7996 z"
     id="path4183"
     inkscape:connector-curvature="0"
     sodipodi:nodetypes="cccccccccc" />
  <path
     style="font-size:medium;font-style:normal;font-variant:normal;font-weight:normal;font-stretch:normal;text-indent:0;text-align:start;text-decoration:none;line-height:normal;letter-spacing:normal;word-spacing:normal;text-transform:none;direction:ltr;block-progression:tb;writing-mode:lr-tb;text-anchor:start;baseline-shift:baseline;color:#000000;fill:#000000;fill-opacity:1;stroke:none;stroke-width:5.375;marker:none;visibility:visible;display:inline;overflow:visible;enable-background:accumulate;font-family:Sans;-inkscape-font-specification:Sans"
     d="m 14846.359,5266.4465 0,63.3477 321.159,0 -329.997,523.7246 -0.729,61.8744 413.231,0 0,-63.3478 -336.993,0 326.313,-518.9358 0,-66.6631 -392.977,0 z"
     id="path4187"
     inkscape:connector-curvature="0"
     sodipodi:nodetypes="cccccccccccc" />
  <g
     id="g4587"
     transform="matrix(11.768598,0,0,11.768598,29368.584,-39817.873)">
    <path
       id="path4400"
       d="m -2470.0939,3922.1402 c -3.6976,6.1097 -9.4282,11.2359 -14.9687,14.125 l 2.4687,4.75 c 4.7027,-2.4522 9.301,-6.1864 13.125,-10.7188 l 0,41.5 -18.0312,0 0,5.375 35,0 0,-5.375 -11.5938,0 0,-49.6562 -6,0 z"
       style="font-size:medium;font-style:normal;font-variant:normal;font-weight:normal;font-stretch:normal;text-indent:0;text-align:start;text-decoration:none;line-height:normal;letter-spacing:normal;word-spacing:normal;text-transform:none;direction:ltr;block-progression:tb;writing-mode:lr-tb;text-anchor:start;baseline-shift:baseline;color:#000000;fill:#000000;fill-opacity:1;stroke:none;stroke-width:5.375;marker:none;visibility:visible;display:inline;overflow:visible;enable-background:accumulate;font-family:Sans;-inkscape-font-specification:Sans"
       inkscape:connector-curvature="0" />
    <path
       sodipodi:nodetypes="cccssscccccccscscc"
       inkscape:connector-curvature="0"
       id="path4404"
       d="m -2424.9064,3925.109 c -4.0047,2.7939 -5.8541,6.5671 -6.5,9.7187 l 5.2813,1.0937 c 0.4349,-2.1221 1.4644,-4.441 4.2812,-6.4062 2.9782,-2.0778 7.302,-2.4636 10.9375,-1.375 3.6356,1.0886 6.2577,3.4199 6.75,6.3125 0.6417,3.7698 0.2961,5.7352 -1.2187,8.3437 -1.5148,2.6086 -4.5175,5.8102 -9.2188,10.6563 -6.0263,6.0885 -17.9062,18.4375 -17.9062,18.4375 l -0.031,5.2812 35,0 0,-5.375 -27.375,0 c 2.4022,-2.4718 7.6917,-7.9301 14.1562,-14.5937 4.7053,-4.8502 7.9694,-8.1683 10.0313,-11.7187 2.0618,-3.5505 2.6163,-7.3989 1.8437,-11.9376 -0.9218,-5.4159 -5.4292,-9.0534 -10.4687,-10.5624 -5.1333,-1.5368 -11.7027,-0.4819 -15.5626,2.125 z"
       style="font-size:medium;font-style:normal;font-variant:normal;font-weight:normal;font-stretch:normal;text-indent:0;text-align:start;text-decoration:none;line-height:normal;letter-spacing:normal;word-spacing:normal;text-transform:none;direction:ltr;block-progression:tb;writing-mode:lr-tb;text-anchor:start;baseline-shift:baseline;color:#000000;fill:#000000;fill-opacity:1;stroke:none;stroke-width:5.375;marker:none;visibility:visible;display:inline;overflow:visible;enable-background:accumulate;font-family:Sans;-inkscape-font-specification:Sans" />
    <path
       sodipodi:nodetypes="cccsssccccsccccssccscc"
       inkscape:connector-curvature="0"
       id="path4406"
       d="m -2374.3439,3924.984 c -4.0512,2.8488 -6.2412,6.5842 -6.9687,9.9374 l 5.25,1.125 c 0.4154,-1.9145 1.8246,-4.5551 4.8125,-6.6562 2.6932,-1.8939 7.0553,-2.5266 10.6875,-1.5625 3.6322,0.9641 6.2999,3.1269 6.9062,6.75 0.6757,4.0372 -0.8629,7.2497 -3.0937,8.9872 -3.3841,2.3575 -10.2651,2.5903 -10.2651,2.5903 l -0.5304,4.7955 c 6.7174,0 12.638,1.779 14.2643,7.158 1.0802,3.9189 0.2012,7.1155 -1.8125,9.5312 -2.0137,2.4157 -5.2495,4.0031 -8.9375,4.0312 -8.1572,0.062 -11.7827,-3.2034 -12.7188,-5.125 l -4.8437,2.3438 c 2.1476,4.4084 7.9975,8.2298 17.5937,8.1562 5.1887,-0.039 9.9518,-2.2745 13.0313,-5.9687 3.0795,-3.6942 4.3842,-8.931 2.875,-14.4063 -1.169,-4.241 -5.2358,-7.6097 -7.9773,-8.2629 1.6352,-0.6058 2.3804,-1.1505 3.1335,-1.7371 3.5845,-2.7918 5.516,-7.4585 4.5938,-12.9687 -0.9916,-5.9243 -5.7385,-9.7074 -10.8438,-11.0625 -5.0088,-1.3269 -11.3556,-0.2449 -15.1563,2.3441 z"
       style="font-size:medium;font-style:normal;font-variant:normal;font-weight:normal;font-stretch:normal;text-indent:0;text-align:start;text-decoration:none;line-height:normal;letter-spacing:normal;word-spacing:normal;text-transform:none;direction:ltr;block-progression:tb;writing-mode:lr-tb;text-anchor:start;baseline-shift:baseline;color:#000000;fill:#000000;fill-opacity:1;stroke:none;stroke-width:5.37500048;marker:none;visibility:visible;display:inline;overflow:visible;enable-background:accumulate;font-family:Sans;-inkscape-font-specification:Sans" />
    <path
       sodipodi:nodetypes="ccccccccccccccccc"
       inkscape:connector-curvature="0"
       id="path4408"
       d="m -2314.5001,3922.1402 -22.8803,32.9538 0,8.375 22.974,-0.048 0,13.6876 5.375,0 0,-13.6876 6.4375,0 0,-5.375 -6.4375,0 0,-35.9062 z m 0.094,9.4062 0,26.5 -17.2188,0 0.031,-1.2812 z"
       style="font-size:medium;font-style:normal;font-variant:normal;font-weight:normal;font-stretch:normal;text-indent:0;text-align:start;text-decoration:none;line-height:normal;letter-spacing:normal;word-spacing:normal;text-transform:none;direction:ltr;block-progression:tb;writing-mode:lr-tb;text-anchor:start;baseline-shift:baseline;color:#000000;fill:#000000;fill-opacity:1;stroke:none;stroke-width:5.375;marker:none;visibility:visible;display:inline;overflow:visible;enable-background:accumulate;font-family:Sans;-inkscape-font-specification:Sans" />
    <path
       sodipodi:nodetypes="cccccsccccccsssccccc"
       inkscape:connector-curvature="0"
       id="path4410"
       d="m -2289.0001,3922.1402 -2.7857,27.6007 4.0312,1.5576 c 3.9031,-4.9073 8.0805,-6.3835 14.9107,-5.7838 3.811,0.5941 6.0957,2.1239 7.625,4.2188 1.5293,2.0947 2.2813,5.5367 2.2813,8.8222 0,6.3957 -3.2586,11.4247 -9.4375,12.75 -3.2481,0.6966 -6.9739,0.5513 -9.7813,-0.5313 -2.8073,-1.0824 -4.6719,-2.7895 -5.2812,-5.8437 l -4.9642,1.0313 c 0.9817,4.9206 4.2488,8.2472 8.3079,9.8124 4.0592,1.5653 8.6739,1.6757 12.8438,0.7813 8.6568,-1.8567 13.6875,-9.5925 13.6875,-18 0,-4.1162 -0.9664,-8.7223 -3.3438,-11.9785 -2.3773,-3.2562 -6.1734,-5.603 -11.125,-6.375 -5.3913,-0.8406 -10.1049,0.6763 -13.4375,2.2813 l 1.375,-14.9688 22.1875,0 0,-5.375 z"
       style="font-size:medium;font-style:normal;font-variant:normal;font-weight:normal;font-stretch:normal;text-indent:0;text-align:start;text-decoration:none;line-height:normal;letter-spacing:normal;word-spacing:normal;text-transform:none;direction:ltr;block-progression:tb;writing-mode:lr-tb;text-anchor:start;baseline-shift:baseline;color:#000000;fill:#000000;fill-opacity:1;stroke:none;stroke-width:5.375;marker:none;visibility:visible;display:inline;overflow:visible;enable-background:accumulate;font-family:Sans;-inkscape-font-specification:Sans" />
    <path
       sodipodi:nodetypes="ccccscccccsssss"
       inkscape:connector-curvature="0"
       id="path4412"
       d="m -2228.7501,3922.1402 c -2.4427,6.1614 -6.2932,15.9344 -8.5625,21.8438 -2.6125,6.8028 -3.6055,8.5131 -4.4688,13.375 -2.4688,12.8265 7.858,19.6781 16.5938,19.9062 9.3998,0 17.0625,-7.2835 17.0625,-16.1875 0,-8.9039 -7.6627,-16.1561 -17.0625,-16.1563 -2.6209,0 -5.5969,0.8286 -7.7766,2.0357 0.091,-0.2348 0.5869,-0.7857 0.6828,-1.0357 2.529,-6.5854 7.3303,-18.7026 9.3438,-23.7812 z m 3.5625,28 c 6.4151,0 11.5625,4.8608 11.5625,10.9375 0,6.0767 -5.1474,10.9687 -11.5625,10.9687 -6.4151,0 -11.5625,-4.892 -11.5625,-10.9687 0,-6.0767 5.1474,-10.9375 11.5625,-10.9375 z"
       style="font-size:medium;font-style:normal;font-variant:normal;font-weight:normal;font-stretch:normal;text-indent:0;text-align:start;text-decoration:none;line-height:normal;letter-spacing:normal;word-spacing:normal;text-transform:none;direction:ltr;block-progression:tb;writing-mode:lr-tb;text-anchor:start;baseline-shift:baseline;color:#000000;fill:#000000;fill-opacity:1;stroke:none;stroke-width:5.375;marker:none;visibility:visible;display:inline;overflow:visible;enable-background:accumulate;font-family:Sans;-inkscape-font-specification:Sans" />
    <path
       id="path4414"
       d="m -2197.5001,3922.3277 0,5.375 29.0625,0 -27.3125,49.335 6.125,0 27.1562,-48.9913 0,-5.7187 z"
       style="font-size:medium;font-style:normal;font-variant:normal;font-weight:normal;font-stretch:normal;text-indent:0;text-align:start;text-decoration:none;line-height:normal;letter-spacing:normal;word-spacing:normal;text-transform:none;direction:ltr;block-progression:tb;writing-mode:lr-tb;text-anchor:start;baseline-shift:baseline;color:#000000;fill:#000000;fill-opacity:1;stroke:none;stroke-width:5.375;marker:none;visibility:visible;display:inline;overflow:visible;enable-background:accumulate;font-family:Sans;-inkscape-font-specification:Sans"
       inkscape:connector-curvature="0"
       sodipodi:nodetypes="cccccccc" />
    <path
       sodipodi:nodetypes="sscscscssssssszzszz"
       inkscape:connector-curvature="0"
       id="path4416"
       d="m -2134.9376,3922.2027 c -7.7002,0 -14,6.2998 -14,14 0,4.4276 2.0777,8.3981 5.3125,10.9687 -5.0103,2.8254 -8.375,8.0053 -8.375,13.9063 0,8.904 7.6627,16.1873 17.0625,16.1875 9.3998,0 17.0625,-7.2835 17.0625,-16.1875 0,-5.901 -3.3647,-11.0809 -8.375,-13.9063 3.2347,-2.5706 5.3125,-6.5411 5.3125,-10.9687 0,-7.7002 -6.2999,-14 -14,-14 z m 0,5.375 c 4.7953,0 8.625,3.8297 8.625,8.625 0,4.7953 -3.8297,8.9375 -8.625,8.9375 -4.7953,0 -8.625,-4.1422 -8.625,-8.9375 0,-4.7953 3.8297,-8.625 8.625,-8.625 z m 0,22.25 c 6.3969,0 11.4375,4.2997 11.5625,11.25 0.125,6.9503 -5.1474,10.9687 -11.5625,10.9687 -6.4151,0 -11.5625,-4.0184 -11.5625,-10.9687 0,-6.9503 5.1656,-11.25 11.5625,-11.25 z"
       style="font-size:medium;font-style:normal;font-variant:normal;font-weight:normal;font-stretch:normal;text-indent:0;text-align:start;text-decoration:none;line-height:normal;letter-spacing:normal;word-spacing:normal;text-transform:none;direction:ltr;block-progression:tb;writing-mode:lr-tb;text-anchor:start;baseline-shift:baseline;color:#000000;fill:#000000;fill-opacity:1;stroke:none;stroke-width:3.62292814;marker:none;visibility:visible;display:inline;overflow:visible;enable-background:accumulate;font-family:Sans;-inkscape-font-specification:Sans" />
    <path
       sodipodi:nodetypes="ssccccccsszsss"
       inkscape:connector-curvature="0"
       id="path4426"
       d="m -2085.0528,3922.1356 c -9.3998,0 -17.0938,7.2524 -17.0938,16.1563 0,8.904 7.694,16.1873 17.0938,16.1875 4.4304,0 8.5837,-1.6097 11.5,-4.6562 l -0.031,27.1927 5.375,0 0.062,-36.6303 c 0.5523,-13.9339 -9.0417,-18.0445 -16.9063,-18.25 z m 0,5.2188 c 6.1924,0 11.4778,4.1066 11.5312,10.3125 0.053,6.2059 -4.9071,11.5937 -11.5312,11.5937 -6.6241,0 -11.5625,-4.892 -11.5625,-10.9687 0,-6.0767 5.1474,-10.9375 11.5625,-10.9375 z"
       style="font-size:medium;font-style:normal;font-variant:normal;font-weight:normal;font-stretch:normal;text-indent:0;text-align:start;text-decoration:none;line-height:normal;letter-spacing:normal;word-spacing:normal;text-transform:none;direction:ltr;block-progression:tb;writing-mode:lr-tb;text-anchor:start;baseline-shift:baseline;color:#000000;fill:#000000;fill-opacity:1;stroke:none;stroke-width:5.375;marker:none;visibility:visible;display:inline;overflow:visible;enable-background:accumulate;font-family:Sans;-inkscape-font-specification:Sans" />
    <path
       inkscape:connector-curvature="0"
       id="path4430"
       d="m -2030.0157,3921.9225 c -6.1606,0 -10.9278,3.6133 -13.5938,8.7187 -2.666,5.1055 -3.6875,11.6787 -3.6875,18.8126 0,7.1623 1.1566,13.7566 3.875,18.8437 2.7184,5.0871 7.4227,8.6875 13.4063,8.6875 5.9835,0 10.6792,-3.6009 13.4062,-8.6875 2.727,-5.0866 3.9063,-11.6794 3.9063,-18.8437 0,-7.1359 -1.0441,-13.7075 -3.7188,-18.8126 -2.6746,-5.105 -7.4332,-8.7187 -13.5937,-8.7187 z m 0,5.375 c 4.2454,0 6.8074,1.9571 8.8437,5.8437 2.0364,3.8867 3.0938,9.7276 3.0938,16.3126 0,6.5562 -1.1565,12.4074 -3.25,16.3124 -2.0936,3.9051 -4.7033,5.8438 -8.6875,5.8438 -3.9843,0 -6.5698,-1.9391 -8.6563,-5.8438 -2.0865,-3.9046 -3.25,-9.7542 -3.25,-16.3124 0,-6.587 1.0644,-12.4263 3.0938,-16.3126 2.0293,-3.8862 4.567,-5.8437 8.8125,-5.8437 z"
       style="font-size:medium;font-style:normal;font-variant:normal;font-weight:normal;font-stretch:normal;text-indent:0;text-align:start;text-decoration:none;line-height:normal;letter-spacing:normal;word-spacing:normal;text-transform:none;direction:ltr;block-progression:tb;writing-mode:lr-tb;text-anchor:start;baseline-shift:baseline;color:#000000;fill:#000000;fill-opacity:1;stroke:none;stroke-width:5.37500048;marker:none;visibility:visible;display:inline;overflow:visible;enable-background:accumulate;font-family:Sans;-inkscape-font-specification:Sans" />
    <path
       id="path4432"
       d="m -2030.0001,3943.6402 c -3.1757,0 -5.75,2.5744 -5.75,5.75 0,3.1756 2.5743,5.75 5.75,5.75 3.1756,0 5.75,-2.5744 5.75,-5.75 0,-3.1756 -2.5744,-5.75 -5.75,-5.75 z"
       style="color:#000000;fill:#000000;stroke:none;stroke-width:5.375;marker:none;visibility:visible;display:inline;overflow:visible;enable-background:accumulate"
       inkscape:connector-curvature="0" />
  </g>
</svg>
