<?xml version="1.0" encoding="UTF-8" standalone="no"?>
<!-- Created with Inkscape (http://www.inkscape.org/) -->

<svg
   xmlns:dc="http://purl.org/dc/elements/1.1/"
   xmlns:cc="http://creativecommons.org/ns#"
   xmlns:rdf="http://www.w3.org/1999/02/22-rdf-syntax-ns#"
   xmlns:svg="http://www.w3.org/2000/svg"
   xmlns="http://www.w3.org/2000/svg"
   xmlns:sodipodi="http://sodipodi.sourceforge.net/DTD/sodipodi-0.dtd"
   xmlns:inkscape="http://www.inkscape.org/namespaces/inkscape"
   version="1.1"
   width="210mm"
   height="297mm"
   id="svg2"
   inkscape:version="0.48.1 r9760"
   sodipodi:docname="export1.svg">
  <sodipodi:namedview
     pagecolor="#ffffff"
     bordercolor="#666666"
     borderopacity="1"
     objecttolerance="10"
     gridtolerance="10"
     guidetolerance="10"
     inkscape:pageopacity="0"
     inkscape:pageshadow="2"
     inkscape:window-width="1351"
     inkscape:window-height="781"
     id="namedview35"
     showgrid="false"
     inkscape:zoom="5.6119043"
     inkscape:cx="674.5172"
     inkscape:cy="497.02822"
     inkscape:window-x="0"
     inkscape:window-y="0"
     inkscape:window-maximized="0"
     inkscape:current-layer="layer1" />
  <defs
     id="defs4" />
  <metadata
     id="metadata7">
    <rdf:RDF>
      <cc:Work
         rdf:about="">
        <dc:format>image/svg+xml</dc:format>
        <dc:type
           rdf:resource="http://purl.org/dc/dcmitype/StillImage" />
        <dc:title />
      </cc:Work>
    </rdf:RDF>
  </metadata>
  <g
     id="layer1">
    <path
       d="m 67.096119,540.72121 c -5.47464,-0.008 -9.25901,1.89363 -11.40625,4.46875 -2.14724,2.57512 -2.6359,5.48721 -2.62153,7.1875 l 4.99653,0.8125 c 0.22863,-1.48314 0.6419,-3.23359 1.75,-4.5625 1.1081,-1.32891 2.912,-2.53737 7.25,-2.53125 4.32267,0.006 5.81857,1.05562 6.875,2.90625 1.048,1.83587 1.43873,5.11877 1.40625,9.1875 -2.17044,-0.0178 -4.28574,-0.12252 -6.3125,-0.15625 -2.22346,-0.037 -4.35781,0.0119 -6.40625,0.34375 -4.09687,0.66375 -8.01839,3.12414 -9.71875,7.90625 -0.85072,2.39258 -0.92709,5.67647 0.71875,9.125 1.64584,3.44853 5.56569,6.65625 11.53125,6.65625 8.14322,0 12.07734,-3.62722 12.07734,-3.62722 l 0.17266,0.002 c 0,0 2.03624,2.8658 7.625,3.1875 l 0.0326,-4.36957 c -2.73951,-0.23965 -3.49518,-1.76428 -3.97011,-2.91168 -0.47493,-1.1474 -0.40625,-2.53125 -0.40625,-2.53125 -0.0209,-4.57775 0.0312,-9.45866 0.0312,-13.46875 1e-4,-0.0108 -1e-4,-0.0205 0,-0.0312 0.041,-4.3712 -0.14645,-8.50275 -2.125,-11.96875 -1.98342,-3.47454 -6.01004,-5.61728 -11.5,-5.625 z m 8.2188,31.5 c -0.08019,0.40747 -0.36698,1.29984 -1.5625,2.28125 -1.33346,1.09465 -3.80517,2.27265 -8.5,2.1875 -4.37316,-0.0793 -5.84408,-1.69558 -6.75,-3.59375 -0.90592,-1.89817 -0.81221,-4.14989 -0.53125,-5.03125 1.03296,-3.24032 2.51356,-3.89116 5.5,-4.375 4.062109,-0.47969 7.914624,-0.15692 11.87495,-0.125 0,0 0.04899,8.24878 -0.0312,8.65625 z"
       id="path4214"
       style="font-size:medium;font-style:normal;font-variant:normal;font-weight:normal;font-stretch:normal;text-indent:0;text-align:start;text-decoration:none;line-height:normal;letter-spacing:normal;word-spacing:normal;text-transform:none;direction:ltr;block-progression:tb;writing-mode:lr-tb;text-anchor:start;baseline-shift:baseline;color:#000000;fill:#000000;fill-opacity:1;stroke:none;stroke-width:5.375;marker:none;visibility:visible;display:inline;overflow:visible;enable-background:accumulate;font-family:Sans;-inkscape-font-specification:Sans" />
    <path
       d="m 106.00237,540.72121 0.0442,40.92455 5.375,0 -0.0442,-31.11205 c 0,-1.14261 0.34411,-2.14099 1.15625,-3.03125 1.08289,-1.18701 3.06747,-1.55892 4.58302,-1.375 2.07201,0.25145 2.80134,1.0718 3.33303,2.23169 0.53169,1.15989 0.47904,2.72234 0.47947,3.70581 l 0.0442,29.5808 5.375,0 0.0903,-30.4558 c 0,0 0.16959,-2.53073 1.36552,-3.6875 1.19593,-1.15677 2.66409,-1.56876 4.26073,-1.375 2.07201,0.25145 2.84553,1.02761 3.37722,2.1875 0.53169,1.15989 0.43528,2.76653 0.43528,3.75 l 0.0442,29.5808 5.375,0 -0.0442,-29.5808 c -0.002,-1.2602 -0.058,-3.60407 -1.15625,-6 -1.09829,-2.39593 -4.29996,-5.29054 -8.25,-5.25 -3.95004,0.0405 -6.12866,1.52032 -7.82323,3.76896 -1.19522,-1.9345 -3.19745,-3.71678 -6.25,-3.76896 -3.05255,-0.0522 -4.72605,1.02671 -6.39552,2.65625 l 0,-2.75 z"
       id="path4220"
       style="font-size:medium;font-style:normal;font-variant:normal;font-weight:normal;font-stretch:normal;text-indent:0;text-align:start;text-decoration:none;line-height:normal;letter-spacing:normal;word-spacing:normal;text-transform:none;direction:ltr;block-progression:tb;writing-mode:lr-tb;text-anchor:start;baseline-shift:baseline;color:#000000;fill:#000000;fill-opacity:1;stroke:none;stroke-width:5.375;marker:none;visibility:visible;display:inline;overflow:visible;enable-background:accumulate;font-family:Sans;-inkscape-font-specification:Sans" />
    <path
       d="m 168.53362,540.59621 c -6.00388,0 -10.56707,3.03227 -13.1875,7.0625 -2.62043,4.03023 -3.59375,8.92887 -3.59375,13.40625 0,4.46835 0.95107,9.34008 3.5625,13.375 2.61143,4.03492 7.18047,7.09375 13.21875,7.09375 6.03828,0 10.57607,-3.05883 13.1875,-7.09375 2.61143,-4.03492 3.59375,-8.90665 3.59375,-13.375 0,-4.47738 -1.00457,-9.37602 -3.625,-13.40625 -2.62043,-4.03023 -7.15237,-7.0625 -13.15625,-7.0625 z m 0,5.375 c 4.33039,0 6.81747,1.79695 8.65625,4.625 1.83878,2.82805 2.75,6.81828 2.75,10.46875 0,3.65951 -0.89146,7.6454 -2.71875,10.46875 -1.82729,2.82335 -4.30954,4.625 -8.6875,4.625 -4.37796,0 -6.86021,-1.80165 -8.6875,-4.625 -1.82729,-2.82335 -2.71875,-6.80924 -2.71875,-10.46875 0,-3.65047 0.91122,-7.6407 2.75,-10.46875 1.83878,-2.82805 4.32586,-4.625 8.65625,-4.625 z"
       id="path4228"
       style="font-size:medium;font-style:normal;font-variant:normal;font-weight:normal;font-stretch:normal;text-indent:0;text-align:start;text-decoration:none;line-height:normal;letter-spacing:normal;word-spacing:normal;text-transform:none;direction:ltr;block-progression:tb;writing-mode:lr-tb;text-anchor:start;baseline-shift:baseline;color:#000000;fill:#000000;fill-opacity:1;stroke:none;stroke-width:5.375;marker:none;visibility:visible;display:inline;overflow:visible;enable-background:accumulate;font-family:Sans;-inkscape-font-specification:Sans" />
    <path
       d="m 227.59612,540.68996 0,26.03125 c 0,6.74949 -6.29431,10.31954 -11,9.625 -3.57234,-0.52726 -5.04029,-1.8177 -6.125,-3.96875 -1.08471,-2.15105 -1.5,-5.45244 -1.5,-9.40625 l 0,-22.25 -5.375,0 0,22.25 c 0,4.27529 0.29684,8.34231 2.0625,11.84375 1.76566,3.50144 5.28027,6.12407 10.15625,6.84375 4.07649,0.60168 9.48805,-1.4793 11.78125,-4.38542 l 0.89371,4.33621 4.48129,0.11171 0,-41.03125 z"
       id="path4232"
       style="font-size:medium;font-style:normal;font-variant:normal;font-weight:normal;font-stretch:normal;text-indent:0;text-align:start;text-decoration:none;line-height:normal;letter-spacing:normal;word-spacing:normal;text-transform:none;direction:ltr;block-progression:tb;writing-mode:lr-tb;text-anchor:start;baseline-shift:baseline;color:#000000;fill:#000000;fill-opacity:1;stroke:none;stroke-width:5.375;marker:none;visibility:visible;display:inline;overflow:visible;enable-background:accumulate;font-family:Sans;-inkscape-font-specification:Sans" />
    <path
       d="m 253.34612,540.68996 0,9.20897 0,31.82228 5.625,0 0,-22.25 c -0.008,-9.92177 4.55865,-12.44652 8.77115,-13.3125 2.699,-0.55485 5.72374,0.11165 7.5101,1.125 1.78636,1.01335 2.91052,2.39784 3.09375,4.65625 l 5.375,-0.4375 c -0.33,-4.06755 -2.81657,-7.20674 -5.8125,-8.90625 -2.99593,-1.69951 -6.47974,-2.22842 -9.71875,-1.75 -3.82826,0.56547 -7.06558,2.22437 -9.46875,4.625 l -0.89371,-4.78125 z"
       id="path4238"
       style="font-size:medium;font-style:normal;font-variant:normal;font-weight:normal;font-stretch:normal;text-indent:0;text-align:start;text-decoration:none;line-height:normal;letter-spacing:normal;word-spacing:normal;text-transform:none;direction:ltr;block-progression:tb;writing-mode:lr-tb;text-anchor:start;baseline-shift:baseline;color:#000000;fill:#000000;fill-opacity:1;stroke:none;stroke-width:5.375;marker:none;visibility:visible;display:inline;overflow:visible;enable-background:accumulate;font-family:Sans;-inkscape-font-specification:Sans" />
    <path
       d="m 318.37737,540.56496 c -5.83494,0.0768 -10.18673,3.06808 -12.53125,7.15625 -2.34452,4.08817 -3.0625,9.06136 -3.0625,13.9375 0,4.97636 1.02204,9.73652 3.53125,13.5 2.50921,3.76348 6.72195,6.37755 12,6.5625 l 0.0312,0 0.0625,0 c 4.50713,0 8.04899,-1.42686 10.5,-3.53125 2.45101,-2.10439 3.79355,-4.77018 4.5,-7.125 l -5.15625,-1.53125 c -0.48444,1.61482 -1.36479,3.2927 -2.84375,4.5625 -1.46291,1.25603 -3.54026,2.22948 -6.90625,2.25 -0.0337,-0.001 -0.0603,10e-4 -0.0937,0 -3.68956,-0.15431 -5.94677,-1.63913 -7.625,-4.15625 -1.44725,-2.17069 -2.20956,-5.33492 -2.4375,-8.8125 l 23.21875,-0.125 2.625,-0.0312 0.0312,-2.625 c 0.0989,-7.3225 -1.4318,-12.41501 -4.46875,-15.6875 -3.03695,-3.27249 -7.2703,-4.27403 -11.3125,-4.34375 l -0.0312,0 -0.0312,0 z m -1.66952,5.64017 c 3.82249,-0.62504 7.37367,0.18614 9.10702,2.35983 1.73335,2.17369 2.62448,4.51814 2.90625,9.3125 l -20.21875,0.125 c 0.45252,-7.48324 4.38299,-11.17229 8.20548,-11.79733 z"
       id="path4248"
       style="font-size:medium;font-style:normal;font-variant:normal;font-weight:normal;font-stretch:normal;text-indent:0;text-align:start;text-decoration:none;line-height:normal;letter-spacing:normal;word-spacing:normal;text-transform:none;direction:ltr;block-progression:tb;writing-mode:lr-tb;text-anchor:start;baseline-shift:baseline;color:#000000;fill:#000000;fill-opacity:1;stroke:none;stroke-width:5.375;marker:none;visibility:visible;display:inline;overflow:visible;enable-background:accumulate;font-family:Sans;-inkscape-font-specification:Sans" />
    <path
       d="m 352.03362,526.59621 0,34.59375 0,20.40625 4.26909,0 1.10591,-4.59375 c 2.68152,2.84977 6.53286,4.8125 11.34375,4.8125 6.03156,0 10.58758,-3.06381 13.1875,-7.125 2.59992,-4.06119 3.5625,-9.00395 3.5625,-13.5 0,-4.50498 -0.98481,-9.41221 -3.59375,-13.46875 -2.60894,-4.05654 -7.15889,-7.125 -13.15625,-7.125 -4.80146,0 -8.65901,1.97781 -11.34375,4.84375 l 0,-18.84375 z m 16.71875,19.375 c 4.30552,0 6.78827,1.80038 8.625,4.65625 1.83673,2.85587 2.75,6.87547 2.75,10.5625 0,3.69597 -0.89344,7.74253 -2.71875,10.59375 -1.82532,2.85122 -4.30321,4.65625 -8.65625,4.65625 -4.35304,0 -6.79968,-1.80503 -8.625,-4.65625 -1.82532,-2.85122 -2.71875,-6.89778 -2.71875,-10.59375 0,-3.68703 0.88202,-7.70663 2.71875,-10.5625 1.83673,-2.85587 4.31948,-4.65625 8.625,-4.65625 z"
       id="path4276"
       style="font-size:medium;font-style:normal;font-variant:normal;font-weight:normal;font-stretch:normal;text-indent:0;text-align:start;text-decoration:none;line-height:normal;letter-spacing:normal;word-spacing:normal;text-transform:none;direction:ltr;block-progression:tb;writing-mode:lr-tb;text-anchor:start;baseline-shift:baseline;color:#000000;fill:#000000;fill-opacity:1;stroke:none;stroke-width:5.375;marker:none;visibility:visible;display:inline;overflow:visible;enable-background:accumulate;font-family:Sans;-inkscape-font-specification:Sans" />
    <path
       d="m 418.53125,540.59375 c -5.99609,0 -10.38558,3.16086 -12.71875,7.25 -2.33317,4.08914 -3,8.94939 -3,13.34375 0,4.49479 0.93513,9.43456 3.53125,13.5 2.59612,4.06544 7.1545,7.125 13.1875,7.125 4.09152,0 7.48884,-1.4002 9.84375,-3.6875 2.35491,-2.2873 3.64386,-5.30648 4.15625,-8.40625 l -5.28125,-0.875 c -0.36849,2.22924 -1.24897,4.13133 -2.59375,5.4375 -1.34478,1.30617 -3.18599,2.15625 -6.125,2.15625 -4.3516,0 -6.8329,-1.80095 -8.65625,-4.65625 -1.82335,-2.8553 -2.6875,-6.89652 -2.6875,-10.59375 0,-3.79765 0.70577,-7.87152 2.3125,-10.6875 1.60673,-2.81598 3.72446,-4.53125 8.03125,-4.53125 3.12616,0 5.15847,0.90828 6.59375,2.3125 1.43528,1.40422 2.35722,3.45616 2.59375,6.0625 l 5.34375,-0.5 c -0.32691,-3.60218 -1.68341,-6.95635 -4.1875,-9.40625 -2.50409,-2.4499 -6.09856,-3.84375 -10.34375,-3.84375 z"
       id="path4280"
       style="font-size:medium;font-style:normal;font-variant:normal;font-weight:normal;font-stretch:normal;text-indent:0;text-align:start;text-decoration:none;line-height:normal;letter-spacing:normal;word-spacing:normal;text-transform:none;direction:ltr;block-progression:tb;writing-mode:lr-tb;text-anchor:start;baseline-shift:baseline;color:#000000;fill:#000000;fill-opacity:1;stroke:none;stroke-width:5.375;marker:none;visibility:visible;display:inline;overflow:visible;enable-background:accumulate;font-family:Sans;-inkscape-font-specification:Sans" />
    <path
       d="m 474.87737,526.59621 0,18.90625 c -2.68038,-2.90057 -6.55419,-4.90625 -11.375,-4.90625 -5.97709,0 -10.49733,3.06881 -13.09375,7.125 -2.59642,4.05619 -3.5625,8.9657 -3.5625,13.46875 0,4.49416 0.94381,9.40793 3.53125,13.46875 2.58744,4.06082 7.11393,7.15625 13.125,7.15625 4.81414,0 8.69078,-1.99832 11.375,-4.875 l 1.00542,4.65625 4.36958,0 0,-55 z m -11.375,19.375 c 4.27725,0 6.76544,1.80002 8.59375,4.65625 1.82831,2.85623 2.71875,6.87354 2.71875,10.5625 0,3.69786 -0.9018,7.74216 -2.71875,10.59375 -1.81695,2.85159 -4.26915,4.65625 -8.59375,4.65625 -4.3246,0 -6.7768,-1.80466 -8.59375,-4.65625 -1.81696,-2.85159 -2.6875,-6.89589 -2.6875,-10.59375 0,-3.68896 0.89044,-7.70627 2.71875,-10.5625 1.82831,-2.85623 4.28525,-4.65625 8.5625,-4.65625 z"
       id="path4293"
       style="font-size:medium;font-style:normal;font-variant:normal;font-weight:normal;font-stretch:normal;text-indent:0;text-align:start;text-decoration:none;line-height:normal;letter-spacing:normal;word-spacing:normal;text-transform:none;direction:ltr;block-progression:tb;writing-mode:lr-tb;text-anchor:start;baseline-shift:baseline;color:#000000;fill:#000000;fill-opacity:1;stroke:none;stroke-width:5.375;marker:none;visibility:visible;display:inline;overflow:visible;enable-background:accumulate;font-family:Sans;-inkscape-font-specification:Sans" />
    <path
       d="m 512.09612,526.65871 c -10.64099,0.41017 -12.69099,8.53228 -12.09375,14.21875 0.29447,2.22898 0.50564,3.80986 0.71875,5.34375 l -9.53125,0 0,5.375 10.15625,0 0,30 5.375,0 0,-30 12.3125,0 0,-5.375 -12.90625,0 c -0.23284,-1.65227 -0.48225,-3.56274 -0.8125,-6.0625 -0.63484,-4.80533 1.49979,-7.43426 5.25,-8.03125 3.83533,-0.61054 8.41491,1.16201 10.34375,6.75 l 3.90625,-1.5625 c -1.87284,-7.18677 -7.08446,-10.55627 -12.71875,-10.65625 z"
       id="path4299"
       style="font-size:medium;font-style:normal;font-variant:normal;font-weight:normal;font-stretch:normal;text-indent:0;text-align:start;text-decoration:none;line-height:normal;letter-spacing:normal;word-spacing:normal;text-transform:none;direction:ltr;block-progression:tb;writing-mode:lr-tb;text-anchor:start;baseline-shift:baseline;color:#000000;fill:#000000;fill-opacity:1;stroke:none;stroke-width:5.375;marker:none;visibility:visible;display:inline;overflow:visible;enable-background:accumulate;font-family:Sans;-inkscape-font-specification:Sans" />
    <path
       d="m 570.78362,541.28371 -5.34375,0.0625 c -0.0984,2.68764 -1.94448,3.83261 -3.75,4.125 -2.17317,-0.98032 -4.89576,-1.5625 -8.15625,-1.5625 -5.70557,0 -9.71935,1.74317 -12.125,4.375 -2.40566,2.63183 -3.07713,5.83663 -3.0625,8.3125 0.0378,6.40218 6.09375,8.8125 6.09375,8.8125 l 0,0.125 c 0,0 -4.36983,1.2541 -4.5625,5.84375 -0.0681,1.62123 0.0321,4.41449 4.5,5.625 l 0,0.15625 c -4.3891,0.86067 -8.1018,4.79945 -8.03125,9.2187 0.0397,2.4901 0.83569,4.30441 2.21875,5.86241 1.38305,1.558 3.18264,2.4379 4.96875,2.9375 3.57221,0.9992 7.3648,1.10639 10,1.10639 2.58712,0 6.39413,-0.0224 10,-0.98139 1.80293,-0.4795 3.64265,-1.3447 5.03125,-2.9375 1.38859,-1.5928 2.15625,-2.57322 2.15625,-6.1968 0,-3.62358 -1.5182,-6.85911 -5.3238,-8.47939 -3.80559,-1.62027 -5.83391,-2.25214 -13.1772,-2.21239 -7.34329,0.0398 -7.83354,-2.58377 -7.46775,-4.50498 0.36579,-1.9212 2.60183,-2.6875 8.78125,-2.6875 9.70492,-0.0513 15.1875,-5.97976 15.1875,-11.6875 0,-2.25672 -0.488,-5.8305 -3.375,-8.25 2.97496,-0.86419 4.42508,-2.7362 5.11206,-4.74778 0.23575,-0.86747 0.30457,-1.42961 0.32544,-2.31477 z m -17.25,8 c 4.66943,0 6.90565,1.25683 8.15625,2.625 1.2506,1.36817 1.65625,3.16341 1.65625,4.6875 0,2.29226 -2.14265,6.27198 -9.8125,6.3125 -8.00463,0 -9.8125,-3.88021 -9.8125,-6.3125 0,-1.52409 0.40565,-3.31933 1.65625,-4.6875 1.25059,-1.36817 3.48682,-2.625 8.15625,-2.625 z m -0.0312,31.15625 c 4.60696,-0.005 11.88495,0.43785 11.84375,5.90625 -0.0412,5.4684 -7.71074,5.1668 -11.8125,5.125 -4.10176,-0.042 -11.77602,0.3018 -11.8125,-5.1562 -0.0365,-5.45807 7.17429,-5.87027 11.78125,-5.87505 z"
       id="path4303"
       style="font-size:medium;font-style:normal;font-variant:normal;font-weight:normal;font-stretch:normal;text-indent:0;text-align:start;text-decoration:none;line-height:normal;letter-spacing:normal;word-spacing:normal;text-transform:none;direction:ltr;block-progression:tb;writing-mode:lr-tb;text-anchor:start;baseline-shift:baseline;color:#000000;fill:#000000;fill-opacity:1;stroke:none;stroke-width:5.375;marker:none;visibility:visible;display:inline;overflow:visible;enable-background:accumulate;font-family:Sans;-inkscape-font-specification:Sans"
       inkscape:connector-curvature="0"
       sodipodi:nodetypes="cccsssccccccssssszzzscscccssscssscscsc" />
    <path
       d="m 581.81487,526.59621 0,34.59375 0,20.40625 5.375,0 0,-20.40625 c 0,-3.68703 0.91327,-7.70663 2.75,-10.5625 1.83673,-2.85587 4.31948,-4.65625 8.625,-4.65625 4.56637,0 7.12388,1.35043 8.8125,3.40625 1.68862,2.05582 2.53125,5.12547 2.53125,8.8125 l 0,23.40625 5.375,0 0,-23.40625 c 0,-4.50498 -0.99295,-8.86216 -3.75,-12.21875 -2.75705,-3.35659 -7.23224,-5.375 -12.96875,-5.375 -4.80146,0 -10.24477,3.10281 -11.375,6.84375 l 0,-20.84375 z"
       id="path4311"
       style="font-size:medium;font-style:normal;font-variant:normal;font-weight:normal;font-stretch:normal;text-indent:0;text-align:start;text-decoration:none;line-height:normal;letter-spacing:normal;word-spacing:normal;text-transform:none;direction:ltr;block-progression:tb;writing-mode:lr-tb;text-anchor:start;baseline-shift:baseline;color:#000000;fill:#000000;fill-opacity:1;stroke:none;stroke-width:5.375;marker:none;visibility:visible;display:inline;overflow:visible;enable-background:accumulate;font-family:Sans;-inkscape-font-specification:Sans" />
    <path
       d="m 628.06487,540.59621 0,5.375 12.78125,0 0,30.375 -14.8125,0 0,5.375 35,0 0,-5.375 -14.8125,0 0,-35.75 z"
       id="path4315"
       style="font-size:medium;font-style:normal;font-variant:normal;font-weight:normal;font-stretch:normal;text-indent:0;text-align:start;text-decoration:none;line-height:normal;letter-spacing:normal;word-spacing:normal;text-transform:none;direction:ltr;block-progression:tb;writing-mode:lr-tb;text-anchor:start;baseline-shift:baseline;color:#000000;fill:#000000;fill-opacity:1;stroke:none;stroke-width:5.375;marker:none;visibility:visible;display:inline;overflow:visible;enable-background:accumulate;font-family:Sans;-inkscape-font-specification:Sans" />
    <path
       d="m 648.64619,526.72407 c 0,2.81542 -2.28234,5.09775 -5.09776,5.09775 -2.8154,0 -5.09775,-2.28233 -5.09775,-5.09775 0,-2.81541 2.28235,-5.09775 5.09775,-5.09775 2.81542,0 5.09776,2.28234 5.09776,5.09775 z"
       id="path4321"
       style="color:#000000;fill:#000000;fill-opacity:1;fill-rule:nonzero;stroke:none;stroke-width:5.375;marker:none;visibility:visible;display:inline;overflow:visible;enable-background:accumulate" />
    <path
       d="m 677.84612,540.59621 0,5.375 17.78125,0 0,29.625 c 0,0 0.0575,7.20292 -1.125,10.2188 -1.18248,3.0157 -2.90799,5.0937 -8.75,5.0937 -5.83377,0 -7.22676,-2.1174 -8.0625,-4.375 -0.83574,-2.2576 -0.5,-4.75 -0.5,-4.75 l -5.28125,-0.90625 c 0,0 -0.71187,3.66665 0.71875,7.53125 1.43062,3.8646 5.64364,7.875 13.125,7.875 7.47312,0 12.01105,-3.9853 13.78125,-8.5 1.7702,-4.51471 1.46875,-12.1875 1.46875,-12.1875 l 0,-35 z"
       id="path4325"
       style="font-size:medium;font-style:normal;font-variant:normal;font-weight:normal;font-stretch:normal;text-indent:0;text-align:start;text-decoration:none;line-height:normal;letter-spacing:normal;word-spacing:normal;text-transform:none;direction:ltr;block-progression:tb;writing-mode:lr-tb;text-anchor:start;baseline-shift:baseline;color:#000000;fill:#000000;fill-opacity:1;stroke:none;stroke-width:5.375;marker:none;visibility:visible;display:inline;overflow:visible;enable-background:accumulate;font-family:Sans;-inkscape-font-specification:Sans" />
    <path
       d="m 702.50346,526.72407 c 0,2.81542 -2.28233,5.09775 -5.09775,5.09775 -2.81541,0 -5.09775,-2.28233 -5.09775,-5.09775 0,-2.81541 2.28234,-5.09775 5.09775,-5.09775 2.81542,0 5.09775,2.28234 5.09775,5.09775 z"
       id="path4333"
       style="color:#000000;fill:#000000;fill-opacity:1;fill-rule:nonzero;stroke:none;stroke-width:5.375;marker:none;visibility:visible;display:inline;overflow:visible;enable-background:accumulate" />
    <path
       d="m 54.837319,648.21861 0,54.9843 5.375,0 0,-9.7656 7.3125,-7.875 14.21875,17.6406 6.65625,0 0,-0.5468 -17.09375,-21.125 14.71875,-15.8125 -3.9375,-3.6563 -21.875,23.5 0,-37.3437 z"
       id="path4337"
       style="font-size:medium;font-style:normal;font-variant:normal;font-weight:normal;font-stretch:normal;text-indent:0;text-align:start;text-decoration:none;line-height:normal;letter-spacing:normal;word-spacing:normal;text-transform:none;direction:ltr;block-progression:tb;writing-mode:lr-tb;text-anchor:start;baseline-shift:baseline;color:#000000;fill:#000000;fill-opacity:1;stroke:none;stroke-width:5.375;marker:none;visibility:visible;display:inline;overflow:visible;enable-background:accumulate;font-family:Sans;-inkscape-font-specification:Sans" />
    <path
       d="m 108.52482,648.24981 0,5.375 14.8125,0 0,44.3438 -14.8125,0 0,5.375 35,0 0,-5.375 -14.8125,0 0,-49.7188 z"
       id="path4347"
       style="font-size:medium;font-style:normal;font-variant:normal;font-weight:normal;font-stretch:normal;text-indent:0;text-align:start;text-decoration:none;line-height:normal;letter-spacing:normal;word-spacing:normal;text-transform:none;direction:ltr;block-progression:tb;writing-mode:lr-tb;text-anchor:start;baseline-shift:baseline;color:#000000;fill:#000000;fill-opacity:1;stroke:none;stroke-width:5.375;marker:none;visibility:visible;display:inline;overflow:visible;enable-background:accumulate;font-family:Sans;-inkscape-font-specification:Sans" />
    <path
       d="m 177.00245,662.12481 c -4.96943,0 -8.02642,1.483 -10.54013,3.5625 l -0.7955,-3.5 -4.5795,0 0,41.0312 5.375,0 0,-26.0312 c 0,-9.136 6.29431,-10.3196 11,-9.625 3.57234,0.5272 5.04029,1.7864 6.125,3.9375 1.08471,2.151 1.5,5.4837 1.5,9.4375 l 0,22.25 5.375,0 0,-22.25 c 0,-4.2753 0.003,-8.8759 -2.5625,-12.7188 -2.56573,-3.8429 -5.92794,-6.0937 -10.89737,-6.0937 z"
       id="path4355"
       style="font-size:medium;font-style:normal;font-variant:normal;font-weight:normal;font-stretch:normal;text-indent:0;text-align:start;text-decoration:none;line-height:normal;letter-spacing:normal;word-spacing:normal;text-transform:none;direction:ltr;block-progression:tb;writing-mode:lr-tb;text-anchor:start;baseline-shift:baseline;color:#000000;fill:#000000;fill-opacity:1;stroke:none;stroke-width:5.375;marker:none;visibility:visible;display:inline;overflow:visible;enable-background:accumulate;font-family:Sans;-inkscape-font-specification:Sans" />
    <path
       d="m 204.27482,662.18731 0,55.9688 5.375,0 0,-19.6563 c 2.67742,2.8976 6.50436,4.9375 11.34375,4.9375 6.01252,0 10.56317,-3.0612 13.15625,-7.125 2.59308,-4.0638 3.53125,-9.0033 3.53125,-13.5 0,-4.5056 -0.99042,-9.4167 -3.59375,-13.4687 -2.60333,-4.052 -7.11793,-7.125 -13.09375,-7.125 -4.84633,0 -8.66213,2.0757 -11.34375,5 l -1.125,-4.9063 z m 16.71875,5.4063 c 4.27852,0 6.76066,1.8031 8.59375,4.6562 1.83309,2.8531 2.71875,6.8761 2.71875,10.5625 0,3.6953 -0.8645,7.7368 -2.6875,10.5938 -1.823,2.8569 -4.30184,4.6562 -8.625,4.6562 -4.32316,0 -7.40292,-1.8004 -9.21875,-4.6562 -1.81583,-2.8559 -2.0625,-6.8951 -2.0625,-10.5938 0,-3.6898 0.26785,-7.7105 2.09375,-10.5625 1.8259,-2.852 4.90898,-4.6562 9.1875,-4.6562 z"
       id="path4361"
       style="font-size:medium;font-style:normal;font-variant:normal;font-weight:normal;font-stretch:normal;text-indent:0;text-align:start;text-decoration:none;line-height:normal;letter-spacing:normal;word-spacing:normal;text-transform:none;direction:ltr;block-progression:tb;writing-mode:lr-tb;text-anchor:start;baseline-shift:baseline;color:#000000;fill:#000000;fill-opacity:1;stroke:none;stroke-width:5.375;marker:none;visibility:visible;display:inline;overflow:visible;enable-background:accumulate;font-family:Sans;-inkscape-font-specification:Sans" />
    <path
       d="m 300.71768,665.67659 c -4.53274,3.81472 -5.25388,8.01612 -3.91161,11.72952 1.22226,3.3813 3.78418,5.56897 7.80974,6.64548 4.02556,1.0765 8.54243,1.20213 13.19026,2.69822 2.13146,0.7108 3.19715,1.4308 3.625,3.1563 0.49824,2.0094 0.13585,3.6953 -1.28125,5.125 -1.4171,1.4297 -4.21623,2.6997 -9.0625,2.7187 -4.88097,0.019 -7.27005,-1.1007 -8.53125,-2.2812 -1.2612,-1.1806 -1.67608,-2.6803 -1.8125,-4.2188 l -4.97725,0.4688 c -0.0189,2.2786 0.59322,5.3076 3.10225,7.6562 2.50903,2.3487 6.46528,3.7726 12.21875,3.75 5.78817,-0.023 10.13526,-1.5484 12.875,-4.3125 2.71616,-2.7403 3.69612,-6.6376 2.6875,-10.0937 -1.00862,-3.4562 -3.15906,-5.96406 -7.125,-7.0625 -3.96594,-1.09844 -9.37312,-1.45681 -13.41345,-2.50314 -4.04034,-1.04634 -5.5938,-5.58269 -3.0553,-8.49656 1.39341,-1.5562 3.76649,-2.8122 6.5625,-2.9688 3.19649,-0.1789 5.61534,0.2104 7.3125,1.0938 1.69716,0.8834 2.89337,2.2297 3.8125,4.7812 l 4.35539,-1.76831 c -0.78159,-3.5192 -2.68775,-5.87247 -6.80047,-8.01289 -4.11272,-2.14042 -13.04807,-1.91954 -17.58081,1.89518 z"
       id="path4373"
       style="font-size:medium;font-style:normal;font-variant:normal;font-weight:normal;font-stretch:normal;text-indent:0;text-align:start;text-decoration:none;line-height:normal;letter-spacing:normal;word-spacing:normal;text-transform:none;direction:ltr;block-progression:tb;writing-mode:lr-tb;text-anchor:start;baseline-shift:baseline;color:#000000;fill:#000000;fill-opacity:1;stroke:none;stroke-width:5.375;marker:none;visibility:visible;display:inline;overflow:visible;enable-background:accumulate;font-family:Sans;-inkscape-font-specification:Sans" />
    <path
       d="m 356.21232,652.97021 0,9.2484 -10.8125,0 0,5.375 10.8125,0 0,35.5937 20.15625,0 0,-5.375 -14.78125,0 0,-30.2187 14.875,0 0,-5.375 -14.875,0 0,-11.2813 z"
       id="path4377"
       style="font-size:medium;font-style:normal;font-variant:normal;font-weight:normal;font-stretch:normal;text-indent:0;text-align:start;text-decoration:none;line-height:normal;letter-spacing:normal;word-spacing:normal;text-transform:none;direction:ltr;block-progression:tb;writing-mode:lr-tb;text-anchor:start;baseline-shift:baseline;color:#000000;fill:#000000;fill-opacity:1;stroke:none;stroke-width:5.375;marker:none;visibility:visible;display:inline;overflow:visible;enable-background:accumulate;font-family:Sans;-inkscape-font-specification:Sans" />
    <path
       d="m 439.05607,662.21861 13.875,40.9687 6.1875,0 13.875,-40.9687 -5.625,0 -11.08025,32.7654 -0.25523,1.4382 -0.25523,-1.4382 -11.09677,-32.7654 z"
       id="path4393"
       style="font-size:medium;font-style:normal;font-variant:normal;font-weight:normal;font-stretch:normal;text-indent:0;text-align:start;text-decoration:none;line-height:normal;letter-spacing:normal;word-spacing:normal;text-transform:none;direction:ltr;block-progression:tb;writing-mode:lr-tb;text-anchor:start;baseline-shift:baseline;color:#000000;fill:#000000;fill-opacity:1;stroke:none;stroke-width:5.375;marker:none;visibility:visible;display:inline;overflow:visible;enable-background:accumulate;font-family:Sans;-inkscape-font-specification:Sans" />
    <path
       d="m 483.61857,662.28111 3.5,40.9062 5.71875,0 8.12673,-21.0937 0.092,-0.4087 0.098,0.4082 8.12071,21.0942 5.71875,0 3.46875,-40.9062 -5.40625,0 -2.59375,30.6562 -6.87944,-17.9687 -5.00942,0 -6.95489,18.0312 -2.5625,-30.7187 z"
       id="path4397"
       style="font-size:medium;font-style:normal;font-variant:normal;font-weight:normal;font-stretch:normal;text-indent:0;text-align:start;text-decoration:none;line-height:normal;letter-spacing:normal;word-spacing:normal;text-transform:none;direction:ltr;block-progression:tb;writing-mode:lr-tb;text-anchor:start;baseline-shift:baseline;color:#000000;fill:#000000;fill-opacity:1;stroke:none;stroke-width:5.375;marker:none;visibility:visible;display:inline;overflow:visible;enable-background:accumulate;font-family:Sans;-inkscape-font-specification:Sans" />
    <path
       d="m 409.67219,703.21851 c 4.96943,0 8.02642,-1.4831 10.54013,-3.5625 l 0.7955,3.5 4.5795,0 0,-41.0312 -5.375,0 0,26.0312 c 0,9.136 -6.29431,10.3196 -11,9.625 -3.57234,-0.5272 -5.04029,-1.7864 -6.125,-3.9375 -1.08471,-2.151 -1.5,-5.4837 -1.5,-9.4375 l 0,-22.25 -5.375,0 0,22.25 c 0,4.2753 -0.003,8.8759 2.5625,12.7188 2.56573,3.8428 5.92794,6.0937 10.89737,6.0937 z"
       id="path4606"
       style="font-size:medium;font-style:normal;font-variant:normal;font-weight:normal;font-stretch:normal;text-indent:0;text-align:start;text-decoration:none;line-height:normal;letter-spacing:normal;word-spacing:normal;text-transform:none;direction:ltr;block-progression:tb;writing-mode:lr-tb;text-anchor:start;baseline-shift:baseline;color:#000000;fill:#000000;fill-opacity:1;stroke:none;stroke-width:5.375;marker:none;visibility:visible;display:inline;overflow:visible;enable-background:accumulate;font-family:Sans;-inkscape-font-specification:Sans" />
    <path
       d="m 530.49357,662.31231 13.78125,20.2188 -14.125,20.75 6.5,0 10.75,-16.0906 0.11049,-0.25 0.029,0 0.11049,0.25 10.78125,16.0906 6.5,0 -14.15625,-20.75 13.8125,-20.2188 -6.5,0 -10.5,15.7162 -0.0508,0.1484 -0.0391,0 -0.0664,-0.1562 -10.4375,-15.7084 z"
       id="path4653"
       style="font-size:medium;font-style:normal;font-variant:normal;font-weight:normal;font-stretch:normal;text-indent:0;text-align:start;text-decoration:none;line-height:normal;letter-spacing:normal;word-spacing:normal;text-transform:none;direction:ltr;block-progression:tb;writing-mode:lr-tb;text-anchor:start;baseline-shift:baseline;color:#000000;fill:#000000;fill-opacity:1;stroke:none;stroke-width:5.37499952;marker:none;visibility:visible;display:inline;overflow:visible;enable-background:accumulate;font-family:Sans;-inkscape-font-specification:Sans" />
    <path
       d="m 579.21232,662.21861 14.3125,38 c 0,0 -2.35985,5.9153 -4.15625,8.375 -2.25462,3.0062 -6.46395,3.732 -7.53125,3.875 l 0,5.375 c 0.9258,-0.046 7.72685,-0.5421 11.84375,-6.0312 1.8225,-2.4303 4.46875,-8.5938 4.46875,-8.5938 l 15,-41 -5.625,0 -11.09375,29.75 -0.25,1.20353 -0.25,-1.20353 -11.09375,-29.75 z"
       id="path4691"
       style="font-size:medium;font-style:normal;font-variant:normal;font-weight:normal;font-stretch:normal;text-indent:0;text-align:start;text-decoration:none;line-height:normal;letter-spacing:normal;word-spacing:normal;text-transform:none;direction:ltr;block-progression:tb;writing-mode:lr-tb;text-anchor:start;baseline-shift:baseline;color:#000000;fill:#000000;fill-opacity:1;stroke:none;stroke-width:5.375;marker:none;visibility:visible;display:inline;overflow:visible;enable-background:accumulate;font-family:Sans;-inkscape-font-specification:Sans" />
    <path
       d="m 625.24357,662.15611 0,5.375 24.21875,0 -24.9062,30.3125 0,5.2812 33.0938,0 0,-5.375 -26.0625,0 24.92185,-30.2812 0,-5.3125 -31.26565,0 z"
       id="path4704"
       style="font-size:medium;font-style:normal;font-variant:normal;font-weight:normal;font-stretch:normal;text-indent:0;text-align:start;text-decoration:none;line-height:normal;letter-spacing:normal;word-spacing:normal;text-transform:none;direction:ltr;block-progression:tb;writing-mode:lr-tb;text-anchor:start;baseline-shift:baseline;color:#000000;fill:#000000;fill-opacity:1;stroke:none;stroke-width:5.375;marker:none;visibility:visible;display:inline;overflow:visible;enable-background:accumulate;font-family:Sans;-inkscape-font-specification:Sans" />
    <path
       d="m 282.55607,662.18731 0,55.9688 -5.375,0 0,-19.6563 c -2.67742,2.8976 -6.50436,4.9375 -11.34375,4.9375 -6.01252,0 -10.56317,-3.0612 -13.15625,-7.125 -2.59308,-4.0638 -3.53125,-9.0033 -3.53125,-13.5 0,-4.5056 0.99042,-9.4167 3.59375,-13.4687 2.60333,-4.052 7.11793,-7.125 13.09375,-7.125 4.84633,0 8.66213,2.0757 11.34375,5 l 1.125,-4.9063 z m -16.71875,5.4063 c -4.27852,0 -6.76066,1.8031 -8.59375,4.6562 -1.83309,2.8531 -2.71875,6.8761 -2.71875,10.5625 0,3.6953 0.8645,7.7368 2.6875,10.5938 1.823,2.8569 4.30184,4.6562 8.625,4.6562 4.32316,0 7.40292,-1.8004 9.21875,-4.6562 1.81583,-2.8559 2.0625,-6.8951 2.0625,-10.5938 0,-3.6898 -0.26785,-7.7105 -2.09375,-10.5625 -1.8259,-2.852 -4.90898,-4.6562 -9.1875,-4.6562 z"
       id="path4730"
       style="font-size:medium;font-style:normal;font-variant:normal;font-weight:normal;font-stretch:normal;text-indent:0;text-align:start;text-decoration:none;line-height:normal;letter-spacing:normal;word-spacing:normal;text-transform:none;direction:ltr;block-progression:tb;writing-mode:lr-tb;text-anchor:start;baseline-shift:baseline;color:#000000;fill:#000000;fill-opacity:1;stroke:none;stroke-width:5.375;marker:none;visibility:visible;display:inline;overflow:visible;enable-background:accumulate;font-family:Sans;-inkscape-font-specification:Sans" />
  </g>
</svg>
