<?xml version="1.0" encoding="UTF-8" standalone="no"?>
<!-- Created with Inkscape (http://www.inkscape.org/) -->

<svg
   xmlns:dc="http://purl.org/dc/elements/1.1/"
   xmlns:cc="http://creativecommons.org/ns#"
   xmlns:rdf="http://www.w3.org/1999/02/22-rdf-syntax-ns#"
   xmlns:svg="http://www.w3.org/2000/svg"
   xmlns="http://www.w3.org/2000/svg"
   xmlns:sodipodi="http://sodipodi.sourceforge.net/DTD/sodipodi-0.dtd"
   xmlns:inkscape="http://www.inkscape.org/namespaces/inkscape"
   width="210mm"
   height="297mm"
   id="svg2"
   version="1.1"
   inkscape:version="0.48.1 r9760"
   sodipodi:docname="Nouveau document 1">
  <defs
     id="defs4" />
  <sodipodi:namedview
     id="base"
     pagecolor="#ffffff"
     bordercolor="#666666"
     borderopacity="1.0"
     inkscape:pageopacity="0.0"
     inkscape:pageshadow="2"
     inkscape:zoom="0.22242293"
     inkscape:cx="769.59768"
     inkscape:cy="266.18104"
     inkscape:document-units="px"
     inkscape:current-layer="text2989"
     showgrid="false"
     inkscape:window-width="1434"
     inkscape:window-height="862"
     inkscape:window-x="0"
     inkscape:window-y="0"
     inkscape:window-maximized="0"
     inkscape:snap-page="false" />
  <metadata
     id="metadata7">
    <rdf:RDF>
      <cc:Work
         rdf:about="">
        <dc:format>image/svg+xml</dc:format>
        <dc:type
           rdf:resource="http://purl.org/dc/dcmitype/StillImage" />
        <dc:title></dc:title>
      </cc:Work>
    </rdf:RDF>
  </metadata>
  <g
     inkscape:label="Calque 1"
     inkscape:groupmode="layer"
     id="layer1">
    <rect
       style="color:#000000;fill:#ffff00;fill-opacity:1;fill-rule:nonzero;stroke:none;stroke-width:10.10000038000000089;marker:none;visibility:visible;display:inline;overflow:visible;enable-background:accumulate"
       id="rect3943"
       width="744.09448"
       height="1052.3622"
       x="2.1316282e-14"
       y="-7.1054274e-14" />
    <g
       transform="matrix(0,-1,1,0,1,20)"
       style="font-size:109.56623077px;font-style:normal;font-variant:normal;font-weight:500;font-stretch:normal;line-height:125%;letter-spacing:0px;word-spacing:0px;fill:#000000;fill-opacity:1;stroke:none;font-family:Whois;-inkscape-font-specification:Whois Medium"
       id="text2989">
      <path
         d="m -816.04258,175.26418 6.95489,0 3.58444,55.7461 8.07837,-26.05408 3.69144,-12.7328 3.69144,12.6258 8.07837,26.16108 3.58445,-55.7461 6.95488,0 -4.49392,71.20735 -8.34587,0 -9.20185,-30.38751 -0.2675,-2.08647 -0.26749,2.08647 -9.14835,30.38751 -8.39937,0 -4.49393,-71.20735"
         style="fill:#000000;font-family:Whois;-inkscape-font-specification:Whois"
         id="path3909"
         inkscape:connector-curvature="0" />
      <path
         d="m -760.61747,175.26418 6.84789,0 0,27.12406 c 0.74897,-2.42525 2.60361,-4.54738 5.56391,-6.3664 2.99593,-1.85458 6.06321,-2.7819 9.20185,-2.78195 3.49525,5e-5 6.3307,0.58854 8.50637,1.76547 2.17559,1.17703 4.19072,2.996 6.0454,5.45691 1.28393,1.67635 2.37175,4.01248 3.26344,7.00839 0.92728,2.99598 1.39094,5.90277 1.39098,8.72036 l 0,30.28051 -7.11538,0 0,-30.28051 c -4e-5,-2.24694 -0.21404,-4.1194 -0.64199,-5.61741 -0.39237,-1.53361 -1.05219,-3.17425 -1.97947,-4.92192 -1.85467,-3.5309 -5.01112,-5.29637 -9.46935,-5.29642 -5.13594,5e-5 -9.0057,2.03301 -11.60931,6.0989 -2.10431,3.31699 -3.15646,7.84658 -3.15645,13.58878 l 0,26.42858 -6.84789,0 0,-26.42858 0,-44.77877"
         style="fill:#000000;font-family:Whois;-inkscape-font-specification:Whois"
         id="path3911"
         inkscape:connector-curvature="0" />
      <path
         d="m -696.8465,195.59385 c 2.99594,-1.67626 6.36638,-2.51441 10.11134,-2.51446 3.74491,5e-5 7.07969,0.8382 10.00434,2.51446 2.96024,1.67635 5.29637,3.88765 7.00839,6.63389 3.17423,5.06463 4.76137,10.86036 4.76142,17.38722 -5e-5,6.70525 -1.58719,12.59015 -4.76142,17.65472 -1.71202,2.74629 -4.06598,4.97542 -7.06189,6.68739 -2.96032,1.6763 -6.31293,2.51446 -10.05784,2.51446 -3.74496,0 -7.1154,-0.83816 -10.11133,-2.51446 -2.9603,-1.71197 -5.29643,-3.9411 -7.00839,-6.68739 -3.03163,-4.81491 -4.54743,-10.69981 -4.54743,-17.65472 0,-6.66952 1.55147,-12.46526 4.65443,-17.38722 1.71196,-2.74624 4.04808,-4.95754 7.00838,-6.63389 m 10.11134,4.44043 c -2.67498,4e-5 -4.88628,0.5172 -6.63389,1.55147 -1.71199,0.9987 -3.19213,2.49667 -4.44043,4.49393 -2.46097,3.85197 -3.69145,8.36373 -3.69144,13.53528 -1e-5,2.49665 0.28532,5.01111 0.85598,7.54338 0.60632,2.53231 1.4623,4.67227 2.56796,6.4199 1.28397,1.99731 2.78194,3.51311 4.49393,4.54742 1.74762,0.99866 3.99458,1.49798 6.74089,1.49798 2.74626,0 4.97539,-0.49932 6.68739,-1.49798 1.74761,-1.03431 3.26341,-2.55011 4.54743,-4.54742 1.14128,-1.78329 2.03293,-3.95892 2.67496,-6.5269 0.67761,-2.56794 1.01644,-5.04673 1.01648,-7.43638 -4e-5,-5.27855 -1.19485,-9.7903 -3.58444,-13.53528 -2.568,-4.03022 -6.31293,-6.04536 -11.23482,-6.0454"
         style="fill:#000000;font-family:Whois;-inkscape-font-specification:Whois"
         id="path3913"
         inkscape:connector-curvature="0" />
      <path
         d="m -652.65622,193.07939 22.84414,0 0,46.27675 18.77819,0 0,7.11539 -44.40428,0 0,-7.11539 18.7782,0 0,-39.32186 -15.99625,0 0,-6.95489 m 24.02112,-22.36264 c 1.28394,1.24839 1.92593,2.79986 1.92597,4.65443 -4e-5,1.8547 -0.64203,3.44184 -1.92597,4.76142 -1.28401,1.31971 -2.83549,1.97953 -4.65443,1.97947 -1.81899,6e-5 -3.37047,-0.65976 -4.65442,-1.97947 -1.284,-1.31958 -1.92599,-2.90672 -1.92597,-4.76142 -2e-5,-1.85457 0.62413,-3.40604 1.87247,-4.65443 1.28395,-1.2839 2.85326,-1.92589 4.70792,-1.92597 1.85461,8e-5 3.40608,0.64207 4.65443,1.92597"
         style="fill:#000000;font-family:Whois;-inkscape-font-specification:Whois"
         id="path3915"
         inkscape:connector-curvature="0" />
      <path
         d="m -593.16517,197.30582 c 1.85462,-1.56926 4.26208,-2.71057 7.22239,-3.42394 2.96026,-0.71327 5.83138,-0.96293 8.61336,-0.74899 2.78192,0.21405 5.08238,0.7847 6.90139,1.71197 2.63925,1.35536 4.63655,2.85334 5.9919,4.49393 1.35527,1.64068 2.28258,3.60232 2.78195,5.8849 l -5.61741,2.35397 c -1.21268,-3.20991 -2.85332,-5.31421 -4.92192,-6.3129 -2.21133,-1.06994 -5.36777,-1.4801 -9.46934,-1.23048 -3.74496,0.28537 -6.56258,1.51585 -8.45287,3.69144 -1.06999,1.24835 -1.62282,2.6215 -1.65847,4.11943 -10e-6,1.46235 0.48148,2.78199 1.44448,3.95894 0.99863,1.17701 2.33611,1.99733 4.01243,2.46096 1.31963,0.35669 4.01241,1.03434 8.07837,2.03296 4.10157,0.99868 7.11535,1.78334 9.04136,2.35397 2.49658,0.71335 4.47605,1.83683 5.9384,3.37044 1.46227,1.53367 2.55008,3.47747 3.26345,5.83141 0.67761,2.24698 0.69544,4.54744 0.0535,6.90139 -0.60637,2.35397 -1.76552,4.44043 -3.47745,6.2594 -3.63798,3.63794 -9.20188,5.45691 -16.69173,5.45691 -7.02624,0 -12.28698,-1.60498 -15.78224,-4.81493 -2.7463,-2.53228 -4.11944,-5.81356 -4.11944,-9.84384 l 6.4734,-0.53499 c 0.32098,2.46098 1.0878,4.24428 2.30046,5.34992 2.21128,1.9973 5.92055,2.99595 11.12782,2.99595 5.67088,0 9.59414,-1.19481 11.76981,-3.58444 1.7476,-1.89029 2.28259,-4.11942 1.60498,-6.6874 -0.24971,-1.06996 -0.7312,-1.89028 -1.44448,-2.46096 -0.71336,-0.6063 -1.78334,-1.15912 -3.20995,-1.65847 -2.247,-0.7133 -7.48991,-2.17561 -15.72874,-4.38693 -6.02759,-1.60495 -9.71902,-4.3869 -11.07433,-8.34586 -2.06864,-5.59954 -0.39233,-10.66412 5.02892,-15.19376"
         style="fill:#000000;font-family:Whois;-inkscape-font-specification:Whois"
         id="path3917"
         inkscape:connector-curvature="0" />
      <path
         d="m -456.42139,175.26418 6.5804,0 0,71.47484 -6.84789,0 0,-56.01359 -16.04974,34.39994 -15.99625,-34.13245 0,55.47861 -6.84788,0 0,-71.20735 6.58039,0 16.15674,33.11596 0.107,0.85599 0.16049,-0.85599 16.15674,-33.11596"
         style="fill:#000000;font-family:Whois;-inkscape-font-specification:Whois"
         id="path3919"
         inkscape:connector-curvature="0" />
      <path
         d="m -429.35081,195.59385 c 2.99593,-1.67626 6.36637,-2.51441 10.11133,-2.51446 3.74491,5e-5 7.07969,0.8382 10.00434,2.51446 2.96025,1.67635 5.29637,3.88765 7.00839,6.63389 3.17423,5.06463 4.76137,10.86036 4.76142,17.38722 -5e-5,6.70525 -1.58719,12.59015 -4.76142,17.65472 -1.71202,2.74629 -4.06598,4.97542 -7.06189,6.68739 -2.96032,1.6763 -6.31293,2.51446 -10.05784,2.51446 -3.74496,0 -7.1154,-0.83816 -10.11133,-2.51446 -2.9603,-1.71197 -5.29643,-3.9411 -7.00839,-6.68739 -3.03162,-4.81491 -4.54743,-10.69981 -4.54743,-17.65472 0,-6.66952 1.55147,-12.46526 4.65443,-17.38722 1.71196,-2.74624 4.04809,-4.95754 7.00839,-6.63389 m 10.11133,4.44043 c -2.67498,4e-5 -4.88627,0.5172 -6.63389,1.55147 -1.71199,0.9987 -3.19213,2.49667 -4.44043,4.49393 -2.46097,3.85197 -3.69145,8.36373 -3.69144,13.53528 -10e-6,2.49665 0.28532,5.01111 0.85599,7.54338 0.60631,2.53231 1.46229,4.67227 2.56796,6.4199 1.28396,1.99731 2.78193,3.51311 4.49392,4.54742 1.74762,0.99866 3.99458,1.49798 6.74089,1.49798 2.74626,0 4.97539,-0.49932 6.6874,-1.49798 1.7476,-1.03431 3.26341,-2.55011 4.54742,-4.54742 1.14128,-1.78329 2.03293,-3.95892 2.67496,-6.5269 0.67761,-2.56794 1.01644,-5.04673 1.01648,-7.43638 -4e-5,-5.27855 -1.19485,-9.7903 -3.58444,-13.53528 -2.56799,-4.03022 -6.31293,-6.04536 -11.23482,-6.0454"
         style="fill:#000000;font-family:Whois;-inkscape-font-specification:Whois"
         id="path3921"
         inkscape:connector-curvature="0" />
      <path
         d="m -364.08186,193.07939 c 5.92054,5e-5 10.57496,2.63934 13.96328,7.91787 1.46226,2.28267 2.38958,4.69013 2.78195,7.22238 0.42795,2.53233 0.64194,5.59961 0.64199,9.20186 l 0,29.05003 -7.00839,0 0,-29.05003 c -4e-5,-5.84921 -0.62419,-9.91514 -1.87247,-12.19781 -0.82035,-1.46226 -1.819,-2.60358 -2.99595,-3.42394 -1.17701,-0.85594 -2.83548,-1.44443 -4.97542,-1.76547 -1.24834,-0.10695 -2.53232,-0.16045 -3.85194,-0.1605 -1.284,-0.0356 -2.55014,0.23188 -3.79843,0.80249 -1.24834,0.53503 -2.37182,1.26619 -3.37045,2.19346 -0.963,0.8917 -1.74765,2.19351 -2.35396,3.90544 -0.57067,1.71201 -0.856,3.70931 -0.85599,5.9919 l 0,33.70446 -7.00838,0 0,-53.39214 6.0454,0 0.96298,4.76142 c 3.78059,-3.17423 8.34584,-4.76137 13.69578,-4.76142"
         style="fill:#000000;font-family:Whois;-inkscape-font-specification:Whois"
         id="path3923"
         inkscape:connector-curvature="0" />
      <path
         d="m -322.35252,195.59385 c 2.99593,-1.67626 6.36637,-2.51441 10.11133,-2.51446 3.74491,5e-5 7.07969,0.8382 10.00434,2.51446 2.96025,1.67635 5.29637,3.88765 7.00839,6.63389 3.17423,5.06463 4.76137,10.86036 4.76142,17.38722 -5e-5,6.70525 -1.58719,12.59015 -4.76142,17.65472 -1.71202,2.74629 -4.06598,4.97542 -7.06189,6.68739 -2.96032,1.6763 -6.31293,2.51446 -10.05784,2.51446 -3.74496,0 -7.1154,-0.83816 -10.11133,-2.51446 -2.9603,-1.71197 -5.29643,-3.9411 -7.00839,-6.68739 -3.03162,-4.81491 -4.54743,-10.69981 -4.54743,-17.65472 0,-6.66952 1.55147,-12.46526 4.65443,-17.38722 1.71196,-2.74624 4.04809,-4.95754 7.00839,-6.63389 m 10.11133,4.44043 c -2.67498,4e-5 -4.88627,0.5172 -6.63389,1.55147 -1.71199,0.9987 -3.19213,2.49667 -4.44043,4.49393 -2.46097,3.85197 -3.69145,8.36373 -3.69144,13.53528 -10e-6,2.49665 0.28532,5.01111 0.85599,7.54338 0.60631,2.53231 1.46229,4.67227 2.56796,6.4199 1.28396,1.99731 2.78193,3.51311 4.49392,4.54742 1.74762,0.99866 3.99458,1.49798 6.74089,1.49798 2.74626,0 4.97539,-0.49932 6.6874,-1.49798 1.7476,-1.03431 3.26341,-2.55011 4.54742,-4.54742 1.14128,-1.78329 2.03293,-3.95892 2.67496,-6.5269 0.67761,-2.56794 1.01644,-5.04673 1.01648,-7.43638 -4e-5,-5.27855 -1.19485,-9.7903 -3.58444,-13.53528 -2.56799,-4.03022 -6.31293,-6.04536 -11.23482,-6.0454"
         style="fill:#000000;font-family:Whois;-inkscape-font-specification:Whois"
         id="path3925"
         inkscape:connector-curvature="0" />
    </g>
    <path
       style="font-size:medium;font-style:normal;font-variant:normal;font-weight:normal;font-stretch:normal;text-indent:0;text-align:start;text-decoration:none;line-height:normal;letter-spacing:normal;word-spacing:normal;text-transform:none;direction:ltr;block-progression:tb;writing-mode:lr-tb;text-anchor:start;baseline-shift:baseline;color:#000000;fill:#000000;fill-opacity:1;stroke:none;stroke-width:10.10000038;marker:none;visibility:visible;display:inline;overflow:visible;enable-background:accumulate;font-family:Sans;-inkscape-font-specification:Sans"
       d="m 118.1875,773.84375 c -35.549144,0.34093 -65.717663,4.31197 -99.90625,3.1875 l -0.3125,10.09375 c 46.870193,1.54157 84.91127,-6.02127 137.15625,-2.03125 l 0.75,-10.0625 c -13.39249,-1.0228 -25.83779,-1.30114 -37.6875,-1.1875 z"
       id="path3011"
       inkscape:connector-curvature="0" />
    <path
       style="font-size:medium;font-style:normal;font-variant:normal;font-weight:normal;font-stretch:normal;text-indent:0;text-align:start;text-decoration:none;line-height:normal;letter-spacing:normal;word-spacing:normal;text-transform:none;direction:ltr;block-progression:tb;writing-mode:lr-tb;text-anchor:start;baseline-shift:baseline;color:#000000;fill:#000000;fill-opacity:1;stroke:none;stroke-width:10.10000038;marker:none;visibility:visible;display:inline;overflow:visible;enable-background:accumulate;font-family:Sans;-inkscape-font-specification:Sans"
       d="m 675.5625,767.59375 c -5.84708,0.15897 -11.99847,0.57793 -18.625,1.40625 -12.04571,1.50571 -19.51678,3.03254 -32.09375,4 -41.07775,3.15983 -89.43719,-3.03125 -131.9375,-3.03125 -54.24024,0 -92.96807,5.0625 -146.46875,5.0625 l -74.75,0 0,10.09375 74.75,0 c 54.13262,0 92.85917,-5.0625 146.46875,-5.0625 41.49807,0 90.05048,6.31342 132.71875,3.03125 13.08829,-1.0068 20.85857,-2.59951 32.5625,-4.0625 25.09198,-3.1365 43.24087,0.0312 66.03125,0.0312 l 0,-10.09375 c -16.3626,0 -31.11502,-1.8519 -48.65625,-1.375 z"
       id="path3013"
       inkscape:connector-curvature="0" />
    <path
       style="font-size:medium;font-style:normal;font-variant:normal;font-weight:normal;font-stretch:normal;text-indent:0;text-align:start;text-decoration:none;line-height:normal;letter-spacing:normal;word-spacing:normal;text-transform:none;direction:ltr;block-progression:tb;writing-mode:lr-tb;text-anchor:start;baseline-shift:baseline;color:#000000;fill:#000000;fill-opacity:1;stroke:none;stroke-width:5.34860992;marker:none;visibility:visible;display:inline;overflow:visible;enable-background:accumulate;font-family:Sans;-inkscape-font-specification:Sans"
       d="m 538.63809,87.394417 c -90.5693,0 -164.1624,37.729293 -164.1624,84.213913 0,46.48462 73.5931,84.2562 164.1624,84.2562 90.56932,0 164.08002,-37.77158 164.08002,-84.2562 0,-46.48462 -73.5107,-84.213913 -164.08002,-84.213913 z m 0,9.229207 c 82.95021,0 153.99484,32.410586 153.99484,74.984706 0,42.57412 -71.04463,75.02699 -153.99484,75.02699 -82.95019,0 -154.07722,-32.45287 -154.07722,-75.02699 0,-42.57412 71.12703,-74.984706 154.07722,-74.984706 z"
       id="path3785"
       inkscape:connector-curvature="0"
       sodipodi:nodetypes="ssssssssss" />
    <path
       style="font-size:medium;font-style:normal;font-variant:normal;font-weight:normal;font-stretch:normal;text-indent:0;text-align:start;text-decoration:none;line-height:normal;letter-spacing:normal;word-spacing:normal;text-transform:none;direction:ltr;block-progression:tb;writing-mode:lr-tb;text-anchor:start;baseline-shift:baseline;color:#000000;fill:#000000;fill-opacity:1;stroke:none;stroke-width:10.10000038;marker:none;visibility:visible;display:inline;overflow:visible;enable-background:accumulate;font-family:Sans;-inkscape-font-specification:Sans"
       d="m 377.57595,218.46403 -99.84375,71.59375 5.90625,8.21875 99.84375,-71.59375 -5.90625,-8.21875 z"
       id="path3787"
       inkscape:connector-curvature="0" />
    <g
       style="font-size:37.07064056px;font-style:normal;font-variant:normal;font-weight:500;font-stretch:normal;line-height:87.99999952%;letter-spacing:0px;word-spacing:0px;fill:#000000;fill-opacity:1;stroke:none;font-family:Whois;-inkscape-font-specification:Whois Medium"
       id="text3789"
       transform="translate(0,20)">
      <path
         d="m 446.29988,127.08869 c 1.01364,-0.56715 2.154,-0.85073 3.42107,-0.85074 1.26705,1e-5 2.39534,0.28359 3.38487,0.85074 1.00156,0.56718 1.79197,1.31535 2.37121,2.24451 1.07397,1.71356 1.61097,3.67449 1.61098,5.88279 -10e-6,2.26865 -0.53701,4.25975 -1.61098,5.9733 -0.57924,0.92918 -1.37568,1.68338 -2.38932,2.26261 -1.00159,0.56716 -2.13591,0.85074 -3.40296,0.85074 -1.26708,0 -2.40743,-0.28358 -3.42107,-0.85074 -1.00159,-0.57923 -1.792,-1.33343 -2.37122,-2.26261 -1.02572,-1.62908 -1.53858,-3.62017 -1.53858,-5.9733 0,-2.25657 0.52493,-4.21749 1.57478,-5.88279 0.57922,-0.92916 1.36963,-1.67733 2.37122,-2.24451 m 3.42107,1.50237 c -0.90506,2e-5 -1.65323,0.17499 -2.24451,0.52493 -0.57924,0.3379 -1.08003,0.84472 -1.50238,1.52047 -0.83264,1.30328 -1.24896,2.82979 -1.24896,4.57953 0,0.84472 0.0965,1.69546 0.28961,2.55223 0.20514,0.85678 0.49476,1.58082 0.86885,2.17211 0.43441,0.67577 0.94124,1.18863 1.52047,1.53857 0.59129,0.33789 1.35153,0.50683 2.28072,0.50683 0.92916,0 1.68337,-0.16894 2.26261,-0.50683 0.59128,-0.34994 1.10414,-0.8628 1.53857,-1.53857 0.38614,-0.60336 0.68782,-1.33946 0.90505,-2.20831 0.22926,-0.86884 0.3439,-1.70751 0.34392,-2.51603 -2e-5,-1.78594 -0.40427,-3.31245 -1.21276,-4.57953 -0.86886,-1.36358 -2.13592,-2.04538 -3.80119,-2.0454"
         style="line-height:87.99999952%;fill:#000000"
         id="path3869"
         inkscape:connector-curvature="0" />
      <path
         d="m 460.50908,126.23795 1.9006,0 0.45252,2.26261 c 1.31533,-1.48426 2.96854,-2.22639 4.95965,-2.22641 1.24291,2e-5 2.36517,0.28963 3.36676,0.86884 1.01364,0.56718 1.81008,1.31535 2.38932,2.24451 1.04984,1.6653 1.57476,3.63829 1.57478,5.919 -2e-5,2.29278 -0.52494,4.27181 -1.57478,5.93709 -0.57924,0.92918 -1.36965,1.68339 -2.37122,2.26261 -0.98952,0.56717 -2.11781,0.85075 -3.38486,0.85075 -2.00318,0 -3.65639,-0.73007 -4.95965,-2.19021 l 0,8.1635 -2.35312,0 0,-24.09229 m 7.31277,2.40742 c -1.79803,10e-6 -3.12543,0.67578 -3.9822,2.0273 -0.65164,1.02573 -0.97745,2.57033 -0.97745,4.63383 0,2.12384 0.30771,3.66845 0.92315,4.63383 0.86883,1.3636 2.21433,2.0454 4.0365,2.0454 1.66527,0 2.93233,-0.6818 3.80118,-2.0454 0.7723,-1.20672 1.15845,-2.75133 1.15846,-4.63383 -1e-5,-1.88249 -0.38616,-3.42709 -1.15846,-4.63383 -0.85678,-1.35152 -2.12384,-2.02729 -3.80118,-2.0273"
         style="line-height:87.99999952%;fill:#000000"
         id="path3871"
         inkscape:connector-curvature="0" />
      <path
         d="m 481.43372,136.24774 c 0.1086,1.7377 0.46459,3.03493 1.06795,3.8917 0.74817,1.11019 1.87646,1.70752 3.38487,1.79199 1.29119,0 2.31087,-0.31978 3.05905,-0.95935 0.56715,-0.48269 0.98347,-1.14639 1.24897,-1.9911 l 2.26261,0.68783 c -0.39824,1.255 -1.074,2.29279 -2.0273,3.11336 -1.17054,1.01365 -2.68498,1.52047 -4.54333,1.52047 l -0.0543,0 c -1.13433,-0.0483 -2.16005,-0.32581 -3.07715,-0.83264 -0.90505,-0.50682 -1.64116,-1.18862 -2.20831,-2.0454 -1.01366,-1.53254 -1.52048,-3.49347 -1.52048,-5.88279 0,-2.61859 0.42839,-4.67002 1.28517,-6.15431 0.53095,-0.91709 1.27309,-1.65923 2.22641,-2.22641 0.9533,-0.56714 2.05142,-0.86279 3.29436,-0.88694 l 0.0543,0 c 2.14796,0.0603 3.78308,0.69388 4.90535,1.90059 1.37565,1.47222 2.03935,3.78914 1.9911,6.95075 l 0,1.12225 -11.34927,0 m 3.65638,-7.51187 c -0.91712,0.14482 -1.71959,0.66371 -2.40742,1.55668 -0.68784,0.88092 -1.07399,2.09368 -1.15845,3.63828 l 8.85134,0 c -0.0483,-1.02571 -0.17499,-1.84628 -0.38012,-2.46172 -0.19309,-0.62749 -0.48271,-1.18258 -0.86885,-1.66529 -0.37409,-0.45854 -0.93522,-0.78435 -1.68338,-0.97745 -0.73611,-0.19306 -1.52048,-0.22322 -2.35312,-0.0905"
         style="line-height:87.99999952%;fill:#000000"
         id="path3873"
         inkscape:connector-curvature="0" />
      <path
         d="m 504.58477,126.23795 c 2.00316,1e-5 3.57793,0.89299 4.72434,2.67893 0.49474,0.77232 0.80849,1.58686 0.94124,2.44362 0.14479,0.85679 0.2172,1.89457 0.21721,3.11335 l 0,9.82879 -2.37121,0 0,-9.82879 c -2e-5,-1.97901 -0.21119,-3.35468 -0.63354,-4.127 -0.27756,-0.49474 -0.61544,-0.8809 -1.01365,-1.15846 -0.39823,-0.2896 -0.95935,-0.48871 -1.68338,-0.59733 -0.42236,-0.0362 -0.85678,-0.0543 -1.30326,-0.0543 -0.43443,-0.012 -0.86282,0.0785 -1.28517,0.27151 -0.42236,0.18103 -0.80248,0.42841 -1.14035,0.74214 -0.32583,0.3017 -0.59131,0.74215 -0.79644,1.32137 -0.19309,0.57924 -0.28962,1.255 -0.28962,2.0273 l 0,11.40356 -2.37122,0 0,-18.06469 2.0454,0 0.32582,1.61098 c 1.27913,-1.07397 2.82373,-1.61097 4.63383,-1.61098"
         style="line-height:87.99999952%;fill:#000000"
         id="path3875"
         inkscape:connector-curvature="0" />
      <path
         d="m 535.68212,127.66792 c 0.62749,-0.53095 1.44203,-0.9171 2.44362,-1.15846 1.00157,-0.24133 1.97299,-0.3258 2.91424,-0.25341 0.94124,0.0724 1.71958,0.26549 2.33502,0.57923 0.89296,0.45857 1.56873,0.96539 2.0273,1.52047 0.45854,0.55511 0.77229,1.21881 0.94124,1.9911 l -1.90059,0.79644 c -0.4103,-1.08604 -0.96539,-1.79801 -1.66528,-2.13591 -0.74818,-0.362 -1.81614,-0.50077 -3.20386,-0.41632 -1.26707,0.0966 -2.22038,0.51288 -2.85994,1.24896 -0.36203,0.42237 -0.54907,0.88696 -0.56113,1.39377 -10e-6,0.49477 0.1629,0.94126 0.48872,1.33947 0.33788,0.39823 0.7904,0.67578 1.35757,0.83264 0.44648,0.12069 1.35756,0.34996 2.73324,0.68784 1.38772,0.33789 2.4074,0.60337 3.05905,0.79644 0.84469,0.24135 1.51443,0.62147 2.0092,1.14035 0.49474,0.5189 0.86279,1.17657 1.10415,1.973 0.22926,0.76024 0.2353,1.53858 0.0181,2.33502 -0.20516,0.79644 -0.59734,1.50237 -1.17656,2.1178 -1.23087,1.23086 -3.11336,1.84629 -5.64748,1.84629 -2.37725,0 -4.15717,-0.54302 -5.33976,-1.62908 -0.92918,-0.85677 -1.39377,-1.96696 -1.39377,-3.33056 l 2.19021,-0.18101 c 0.1086,0.83264 0.36805,1.43601 0.77834,1.81009 0.74816,0.67577 2.00316,1.01365 3.76498,1.01365 1.91869,0 3.24609,-0.40425 3.9822,-1.21276 0.59128,-0.63956 0.77229,-1.39377 0.54303,-2.26261 -0.0845,-0.36202 -0.24739,-0.63956 -0.48873,-0.83265 -0.24135,-0.20513 -0.60337,-0.39218 -1.08605,-0.56112 -0.76025,-0.24134 -2.53413,-0.7361 -5.32166,-1.48428 -2.03938,-0.54302 -3.28834,-1.48426 -3.74689,-2.82374 -0.6999,-1.89455 -0.13274,-3.6081 1.70149,-5.14065"
         style="line-height:87.99999952%;fill:#000000"
         id="path3877"
         inkscape:connector-curvature="0" />
      <path
         d="m 554.90527,127.08869 c 1.01364,-0.56715 2.154,-0.85073 3.42107,-0.85074 1.26705,1e-5 2.39534,0.28359 3.38487,0.85074 1.00157,0.56718 1.79197,1.31535 2.37122,2.24451 1.07397,1.71356 1.61096,3.67449 1.61098,5.88279 -2e-5,2.26865 -0.53701,4.25975 -1.61098,5.9733 -0.57925,0.92918 -1.37569,1.68338 -2.38932,2.26261 -1.0016,0.56716 -2.13592,0.85074 -3.40297,0.85074 -1.26707,0 -2.40743,-0.28358 -3.42107,-0.85074 -1.00159,-0.57923 -1.79199,-1.33343 -2.37122,-2.26261 -1.02572,-1.62908 -1.53858,-3.62017 -1.53858,-5.9733 0,-2.25657 0.52493,-4.21749 1.57478,-5.88279 0.57923,-0.92916 1.36963,-1.67733 2.37122,-2.24451 m 3.42107,1.50237 c -0.90505,2e-5 -1.65322,0.17499 -2.24451,0.52493 -0.57924,0.3379 -1.08003,0.84472 -1.50238,1.52047 -0.83264,1.30328 -1.24896,2.82979 -1.24896,4.57953 0,0.84472 0.0965,1.69546 0.28962,2.55223 0.20513,0.85678 0.49475,1.58082 0.86884,2.17211 0.43441,0.67577 0.94124,1.18863 1.52047,1.53857 0.59129,0.33789 1.35153,0.50683 2.28072,0.50683 0.92917,0 1.68337,-0.16894 2.26261,-0.50683 0.59128,-0.34994 1.10414,-0.8628 1.53858,-1.53857 0.38614,-0.60336 0.68782,-1.33946 0.90504,-2.20831 0.22927,-0.86884 0.3439,-1.70751 0.34392,-2.51603 -2e-5,-1.78594 -0.40427,-3.31245 -1.21276,-4.57953 -0.86886,-1.36358 -2.13592,-2.04538 -3.80119,-2.0454"
         style="line-height:87.99999952%;fill:#000000"
         id="path3879"
         inkscape:connector-curvature="0" />
      <path
         d="m 575.92041,144.35695 c -2.05144,0 -3.65638,-0.89901 -4.81484,-2.69704 -0.26548,-0.41028 -0.48269,-0.83867 -0.65163,-1.28516 -0.15688,-0.44649 -0.26548,-0.93521 -0.32581,-1.46617 -0.0603,-0.53096 -0.10258,-0.97745 -0.12671,-1.33947 -0.0121,-0.36201 -0.0181,-0.85074 -0.0181,-1.46617 l 0,-9.86499 2.37122,0 0,9.86499 c -1e-5,1.9549 0.2172,3.33057 0.65163,4.127 0.27754,0.49476 0.60939,0.88695 0.99555,1.17656 0.39821,0.27755 0.95934,0.47062 1.68338,0.57923 0.42235,0.0362 0.85073,0.0603 1.28517,0.0724 0.44647,0 0.8809,-0.0905 1.30326,-0.27151 0.42234,-0.18101 0.79643,-0.42235 1.12226,-0.72404 0.33787,-0.30168 0.60335,-0.74213 0.79644,-1.32136 0.20513,-0.57923 0.3077,-1.25499 0.30771,-2.0273 l 0,-11.47597 2.37122,0 0,18.06469 -1.9911,0 -0.38012,-1.48427 c -1.23087,1.02572 -2.75738,1.53858 -4.57953,1.53858"
         style="line-height:87.99999952%;fill:#000000"
         id="path3881"
         inkscape:connector-curvature="0" />
      <path
         d="m 588.79015,126.23795 1.9911,0 0.36202,1.61098 c 1.02571,-1.0257 2.41948,-1.5808 4.18131,-1.66529 1.78594,-0.0845 3.17971,0.33187 4.1813,1.24897 0.50681,0.47063 0.91107,0.92919 1.21276,1.37566 0.30167,0.43444 0.62749,1.04987 0.97745,1.8463 l -1.95489,1.10415 c -0.63958,-1.0257 -1.20071,-1.77991 -1.68339,-2.26261 -0.4465,-0.44648 -0.98953,-0.74212 -1.62908,-0.88695 -0.62751,-0.14479 -1.17053,-0.16892 -1.62908,-0.0724 -0.43443,0.0845 -0.79645,0.17499 -1.08605,0.27151 -0.28963,0.0966 -0.60337,0.2655 -0.94125,0.50683 -0.33789,0.24136 -0.60337,0.54304 -0.79644,0.90504 -0.19308,0.34997 -0.35599,0.83869 -0.48872,1.46618 -0.13275,0.61544 -0.19912,1.34551 -0.19911,2.19021 l 0,10.42611 -2.49793,0 0,-18.06469"
         style="line-height:87.99999952%;fill:#000000"
         id="path3883"
         inkscape:connector-curvature="0" />
      <path
         d="m 612.77384,126.23795 c 1.85834,1e-5 3.37278,0.56717 4.54332,1.70148 1.07397,1.0378 1.6894,2.41347 1.84629,4.12701 l -2.31691,0.181 c -0.0965,-1.11017 -0.49477,-1.99108 -1.19466,-2.64273 -0.73612,-0.67575 -1.69546,-1.01363 -2.87804,-1.01365 -0.89299,2e-5 -1.60496,0.16293 -2.13591,0.48873 -0.53097,0.32583 -0.99556,0.82662 -1.39377,1.50237 -0.67577,1.13434 -1.01365,2.69705 -1.01365,4.68813 0,1.82217 0.40425,3.36678 1.21276,4.63383 0.85677,1.35154 2.1178,2.02731 3.78309,2.02731 1.14638,0 2.04539,-0.30772 2.69703,-0.92315 0.57922,-0.55509 0.94727,-1.33946 1.10416,-2.35312 l 2.31691,0.36202 c -0.26549,1.50841 -0.88092,2.72721 -1.84629,3.65638 -1.12227,1.08606 -2.5462,1.62908 -4.27181,1.62908 -1.25501,0 -2.37726,-0.28961 -3.36677,-0.86884 -0.98952,-0.57923 -1.77993,-1.33946 -2.37122,-2.28071 -1.04985,-1.66528 -1.57478,-3.62621 -1.57478,-5.8828 0,-2.41344 0.43442,-4.37437 1.30327,-5.88279 0.54302,-0.92916 1.29723,-1.68336 2.26261,-2.26261 0.96538,-0.59128 2.0635,-0.88693 3.29437,-0.88694"
         style="line-height:87.99999952%;fill:#000000"
         id="path3885"
         inkscape:connector-curvature="0" />
      <path
         d="m 626.24091,136.24774 c 0.1086,1.7377 0.46459,3.03493 1.06795,3.8917 0.74817,1.11019 1.87646,1.70752 3.38487,1.79199 1.29119,0 2.31087,-0.31978 3.05905,-0.95935 0.56715,-0.48269 0.98347,-1.14639 1.24897,-1.9911 l 2.26261,0.68783 c -0.39824,1.255 -1.074,2.29279 -2.0273,3.11336 -1.17054,1.01365 -2.68498,1.52047 -4.54333,1.52047 l -0.0543,0 c -1.13433,-0.0483 -2.16005,-0.32581 -3.07715,-0.83264 -0.90505,-0.50682 -1.64116,-1.18862 -2.20831,-2.0454 -1.01366,-1.53254 -1.52048,-3.49347 -1.52048,-5.88279 0,-2.61859 0.42839,-4.67002 1.28517,-6.15431 0.53095,-0.91709 1.27309,-1.65923 2.22641,-2.22641 0.9533,-0.56714 2.05142,-0.86279 3.29436,-0.88694 l 0.0543,0 c 2.14796,0.0603 3.78308,0.69388 4.90535,1.90059 1.37565,1.47222 2.03935,3.78914 1.9911,6.95075 l 0,1.12225 -11.34927,0 m 3.65638,-7.51187 c -0.91712,0.14482 -1.71959,0.66371 -2.40742,1.55668 -0.68784,0.88092 -1.07399,2.09368 -1.15845,3.63828 l 8.85134,0 c -0.0483,-1.02571 -0.17499,-1.84628 -0.38012,-2.46172 -0.19309,-0.62749 -0.48271,-1.18258 -0.86885,-1.66529 -0.37409,-0.45854 -0.93522,-0.78435 -1.68338,-0.97745 -0.73611,-0.19306 -1.52048,-0.22322 -2.35312,-0.0905"
         style="line-height:87.99999952%;fill:#000000"
         id="path3887"
         inkscape:connector-curvature="0" />
      <path
         d="m 441.99186,158.86011 1.9006,0 0.45252,1.33947 c 0.45855,-0.45854 0.89297,-0.80246 1.30326,-1.03176 0.41029,-0.22926 0.91711,-0.33183 1.52048,-0.30771 1.07398,0.0483 1.97299,0.66372 2.69703,1.84629 0.92917,-1.23084 2.08763,-1.84627 3.47538,-1.84629 0.79642,2e-5 1.51442,0.25946 2.154,0.77834 0.63955,0.50684 1.11018,1.08003 1.41187,1.71958 0.37407,0.78439 0.56111,1.6472 0.56113,2.58843 l 0,12.97835 -2.40742,0 0,-12.97835 c -10e-6,-0.78436 -0.0664,-1.32135 -0.19911,-1.61098 -0.31376,-0.68782 -0.80852,-1.0619 -1.48427,-1.12225 -0.65165,-0.0845 -1.26708,0.16292 -1.84629,0.74213 -0.14482,0.14483 -0.27153,0.356 -0.38012,0.63353 -0.0965,0.2655 -0.15689,0.49478 -0.18101,0.68784 l -0.0362,0.30771 0,13.34037 -2.40742,0 0,-12.97835 c -1e-5,-0.78436 -0.0664,-1.32135 -0.19911,-1.61098 -0.31376,-0.68782 -0.80852,-1.0619 -1.48428,-1.12225 -0.33789,-0.0483 -0.69387,1e-5 -1.06795,0.1448 -0.36202,0.14483 -0.66974,0.34394 -0.92314,0.59733 -0.33789,0.3741 -0.50683,0.82059 -0.50683,1.33947 l 0,13.62998 -2.35312,0 0,-18.0647"
         style="line-height:87.99999952%;fill:#000000"
         id="path3889"
         inkscape:connector-curvature="0" />
      <path
         d="m 464.40078,159.71085 c 1.01364,-0.56714 2.154,-0.85072 3.42107,-0.85074 1.26705,2e-5 2.39534,0.2836 3.38486,0.85074 1.00157,0.56718 1.79198,1.31535 2.37122,2.24451 1.07397,1.71357 1.61097,3.6745 1.61098,5.8828 -1e-5,2.26865 -0.53701,4.25974 -1.61098,5.97329 -0.57924,0.92918 -1.37568,1.68339 -2.38932,2.26261 -1.00159,0.56717 -2.13591,0.85075 -3.40297,0.85075 -1.26707,0 -2.40742,-0.28358 -3.42107,-0.85075 -1.00158,-0.57922 -1.79199,-1.33343 -2.37121,-2.26261 -1.02572,-1.62907 -1.53858,-3.62017 -1.53858,-5.97329 0,-2.25657 0.52492,-4.2175 1.57478,-5.8828 0.57922,-0.92916 1.36963,-1.67733 2.37122,-2.24451 m 3.42107,1.50238 c -0.90506,1e-5 -1.65323,0.17499 -2.24452,0.52492 -0.57923,0.3379 -1.08002,0.84473 -1.50237,1.52048 -0.83265,1.30327 -1.24897,2.82978 -1.24896,4.57953 -1e-5,0.84471 0.0965,1.69545 0.28961,2.55222 0.20514,0.85678 0.49476,1.58082 0.86885,2.17211 0.43441,0.67577 0.94124,1.18863 1.52047,1.53858 0.59129,0.33788 1.35153,0.50682 2.28071,0.50682 0.92917,0 1.68338,-0.16894 2.26262,-0.50682 0.59128,-0.34995 1.10414,-0.86281 1.53857,-1.53858 0.38614,-0.60336 0.68782,-1.33946 0.90505,-2.20831 0.22926,-0.86884 0.3439,-1.70751 0.34391,-2.51602 -10e-6,-1.78595 -0.40426,-3.31246 -1.21276,-4.57953 -0.86885,-1.36359 -2.13591,-2.04539 -3.80118,-2.0454"
         style="line-height:87.99999952%;fill:#000000"
         id="path3891"
         inkscape:connector-curvature="0" />
      <path
         d="m 486.48387,158.86011 c 2.00316,2e-5 3.57793,0.89299 4.72434,2.67893 0.49474,0.77232 0.80849,1.58686 0.94124,2.44362 0.1448,0.85679 0.2172,1.89458 0.21721,3.11336 l 0,9.82879 -2.37121,0 0,-9.82879 c -2e-5,-1.97902 -0.21119,-3.35469 -0.63353,-4.12701 -0.27756,-0.49474 -0.61545,-0.88089 -1.01365,-1.15845 -0.39824,-0.2896 -0.95936,-0.48871 -1.68339,-0.59733 -0.42236,-0.0362 -0.85678,-0.0543 -1.30326,-0.0543 -0.43443,-0.012 -0.86282,0.0785 -1.28517,0.27152 -0.42236,0.18102 -0.80248,0.4284 -1.14035,0.74213 -0.32583,0.3017 -0.59131,0.74215 -0.79644,1.32137 -0.19308,0.57924 -0.28962,1.25501 -0.28962,2.0273 l 0,11.40357 -2.37122,0 0,-18.0647 2.04541,0 0.32581,1.61098 c 1.27913,-1.07397 2.82373,-1.61096 4.63383,-1.61098"
         style="line-height:87.99999952%;fill:#000000"
         id="path3893"
         inkscape:connector-curvature="0" />
      <path
         d="m 500.60257,159.71085 c 1.01365,-0.56714 2.154,-0.85072 3.42107,-0.85074 1.26706,2e-5 2.39534,0.2836 3.38487,0.85074 1.00157,0.56718 1.79198,1.31535 2.37122,2.24451 1.07397,1.71357 1.61096,3.6745 1.61098,5.8828 -2e-5,2.26865 -0.53701,4.25974 -1.61098,5.97329 -0.57924,0.92918 -1.37568,1.68339 -2.38932,2.26261 -1.00159,0.56717 -2.13592,0.85075 -3.40297,0.85075 -1.26707,0 -2.40742,-0.28358 -3.42107,-0.85075 -1.00159,-0.57922 -1.79199,-1.33343 -2.37122,-2.26261 -1.02572,-1.62907 -1.53857,-3.62017 -1.53857,-5.97329 0,-2.25657 0.52492,-4.2175 1.57478,-5.8828 0.57922,-0.92916 1.36963,-1.67733 2.37121,-2.24451 m 3.42107,1.50238 c -0.90505,1e-5 -1.65322,0.17499 -2.24451,0.52492 -0.57923,0.3379 -1.08002,0.84473 -1.50237,1.52048 -0.83265,1.30327 -1.24897,2.82978 -1.24896,4.57953 -1e-5,0.84471 0.0965,1.69545 0.28961,2.55222 0.20514,0.85678 0.49475,1.58082 0.86884,2.17211 0.43442,0.67577 0.94124,1.18863 1.52048,1.53858 0.59129,0.33788 1.35152,0.50682 2.28071,0.50682 0.92917,0 1.68337,-0.16894 2.26261,-0.50682 0.59129,-0.34995 1.10415,-0.86281 1.53858,-1.53858 0.38614,-0.60336 0.68782,-1.33946 0.90505,-2.20831 0.22926,-0.86884 0.3439,-1.70751 0.34391,-2.51602 -1e-5,-1.78595 -0.40426,-3.31246 -1.21276,-4.57953 -0.86885,-1.36359 -2.13591,-2.04539 -3.80119,-2.0454"
         style="line-height:87.99999952%;fill:#000000"
         id="path3895"
         inkscape:connector-curvature="0" />
      <path
         d="m 517.58122,160.29008 c 0.62749,-0.53094 1.44203,-0.91709 2.44362,-1.15846 1.00157,-0.24132 1.97299,-0.3258 2.91424,-0.25341 0.94124,0.0724 1.71958,0.2655 2.33502,0.57923 0.89296,0.45857 1.56873,0.9654 2.0273,1.52047 0.45854,0.55511 0.77229,1.21881 0.94125,1.9911 l -1.9006,0.79644 c -0.4103,-1.08604 -0.96539,-1.798 -1.66528,-2.1359 -0.74818,-0.36201 -1.81613,-0.50078 -3.20386,-0.41632 -1.26707,0.0965 -2.22038,0.51287 -2.85994,1.24896 -0.36203,0.42237 -0.54907,0.88696 -0.56113,1.39377 -10e-6,0.49477 0.1629,0.94126 0.48872,1.33946 0.33788,0.39824 0.7904,0.67578 1.35757,0.83265 0.44648,0.12068 1.35756,0.34996 2.73324,0.68783 1.38772,0.33789 2.4074,0.60337 3.05905,0.79644 0.84469,0.24135 1.51443,0.62147 2.0092,1.14036 0.49474,0.5189 0.86279,1.17656 1.10415,1.97299 0.22927,0.76025 0.2353,1.53858 0.0181,2.33502 -0.20515,0.79644 -0.59734,1.50238 -1.17655,2.1178 -1.23088,1.23087 -3.11337,1.8463 -5.64748,1.8463 -2.37726,0 -4.15718,-0.54303 -5.33977,-1.62908 -0.92918,-0.85678 -1.39377,-1.96697 -1.39377,-3.33057 l 2.19021,-0.18101 c 0.1086,0.83265 0.36805,1.43601 0.77834,1.81009 0.74816,0.67577 2.00316,1.01365 3.76499,1.01365 1.91868,0 3.24608,-0.40425 3.98219,-1.21276 0.59129,-0.63956 0.77229,-1.39376 0.54303,-2.26261 -0.0845,-0.36201 -0.24739,-0.63956 -0.48872,-0.83264 -0.24136,-0.20514 -0.60338,-0.39218 -1.08606,-0.56113 -0.76025,-0.24134 -2.53413,-0.7361 -5.32166,-1.48427 -2.03937,-0.54302 -3.28834,-1.48427 -3.74689,-2.82374 -0.6999,-1.89455 -0.13274,-3.6081 1.70149,-5.14066"
         style="line-height:87.99999952%;fill:#000000"
         id="path3897"
         inkscape:connector-curvature="0" />
      <path
         d="m 532.91268,158.86011 1.90059,0 0.45252,2.26261 c 1.31533,-1.48425 2.96854,-2.22639 4.95965,-2.22641 1.24292,2e-5 2.36517,0.28963 3.36677,0.86884 1.01363,0.56718 1.81007,1.31535 2.38932,2.24452 1.04983,1.66529 1.57476,3.63829 1.57477,5.91899 -10e-6,2.29279 -0.52494,4.27182 -1.57477,5.93709 -0.57925,0.92919 -1.36965,1.68339 -2.37122,2.26262 -0.98953,0.56716 -2.11782,0.85074 -3.38487,0.85074 -2.00317,0 -3.65639,-0.73007 -4.95965,-2.19021 l 0,8.16351 -2.35311,0 0,-24.0923 m 7.31276,2.40742 c -1.79803,1e-5 -3.12543,0.67578 -3.9822,2.0273 -0.65163,1.02573 -0.97745,2.57034 -0.97745,4.63383 0,2.12385 0.30772,3.66845 0.92315,4.63383 0.86884,1.3636 2.21434,2.0454 4.0365,2.0454 1.66527,0 2.93233,-0.6818 3.80119,-2.0454 0.77229,-1.20672 1.15844,-2.75133 1.15846,-4.63383 -2e-5,-1.88248 -0.38617,-3.42709 -1.15846,-4.63383 -0.85679,-1.35152 -2.12385,-2.02729 -3.80119,-2.0273"
         style="line-height:87.99999952%;fill:#000000"
         id="path3899"
         inkscape:connector-curvature="0" />
      <path
         d="m 553.00468,160.79691 c 1.07398,-1.29118 2.73926,-1.93678 4.99584,-1.9368 2.38931,2e-5 4.06063,0.81456 5.01395,2.44362 0.0845,0.15689 0.1629,0.33187 0.23531,0.52493 0.0724,0.19309 0.13273,0.38013 0.18101,0.56112 0.0483,0.16896 0.0845,0.3922 0.10861,0.66974 0.0362,0.26549 0.0603,0.4827 0.0724,0.65163 0.0241,0.15689 0.0362,0.40427 0.0362,0.74214 0.0121,0.32583 0.0181,0.5551 0.0181,0.68783 -10e-6,0.12069 -10e-6,0.36806 0,0.74214 -10e-6,0.36203 -10e-6,0.58527 0,0.66973 l 0,5.41217 c -0.0362,0.86885 0.0241,1.47221 0.18101,1.81009 0.0965,0.21721 0.18703,0.38616 0.27152,0.50683 0.0844,0.1086 0.24736,0.22928 0.48872,0.36201 0.24133,0.13275 0.54301,0.22928 0.90505,0.28962 l 0,2.0454 c -0.72406,-0.0483 -1.36362,-0.20514 -1.9187,-0.47062 -0.54304,-0.27755 -0.90506,-0.537 -1.08605,-0.77834 l -0.28962,-0.38012 -0.0905,0 c -0.0483,0.0483 -0.12069,0.10861 -0.21721,0.18101 -0.0845,0.0603 -0.28963,0.18101 -0.61543,0.36202 -0.32583,0.181 -0.67578,0.34391 -1.04986,0.48872 -0.37409,0.13274 -0.86885,0.25945 -1.48427,0.38012 -0.61544,0.1086 -1.255,0.16291 -1.91869,0.16291 -1.2188,0 -2.26866,-0.27755 -3.14956,-0.83264 -0.88091,-0.5551 -1.52651,-1.24896 -1.9368,-2.08161 -0.63956,-1.32739 -0.7361,-2.65479 -0.28961,-3.9822 0.34995,-0.9895 0.89901,-1.76784 1.64718,-2.33501 0.76023,-0.57922 1.61701,-0.95934 2.57033,-1.14036 0.61542,-0.0965 1.55667,-0.1448 2.82374,-0.14481 0.2896,1e-5 0.74816,0.006 1.37567,0.0181 0.62748,0.0121 1.09811,0.0181 1.41187,0.0181 -2e-5,-0.0965 -2e-5,-0.24134 0,-0.43443 -2e-5,-0.68782 -0.006,-1.20068 -0.0181,-1.53857 -2e-5,-0.34994 -0.0241,-0.72402 -0.0724,-1.12226 -0.0483,-0.41027 -0.12672,-0.70592 -0.23531,-0.88694 -0.25342,-0.43441 -0.59131,-0.74816 -1.01365,-0.94125 -0.4103,-0.20513 -1.06193,-0.3077 -1.9549,-0.30771 -1.44808,1e-5 -2.50999,0.3741 -3.18575,1.12225 -0.4103,0.45857 -0.67578,1.12227 -0.79644,1.9911 l -2.17211,-0.38012 c 0,-1.17051 0.38615,-2.22036 1.15846,-3.14955 m 7.60237,12.88784 c 0.32581,-0.26548 0.55509,-0.62146 0.68784,-1.06796 l 0,-3.80119 c -0.34997,1e-5 -0.89903,-0.0121 -1.64718,-0.0362 -0.73612,-0.0241 -1.38775,-0.0302 -1.9549,-0.0181 -0.56717,1e-5 -1.1102,0.0362 -1.62908,0.10861 -0.73611,0.13274 -1.28517,0.32582 -1.64718,0.57923 -0.34996,0.24135 -0.60337,0.69387 -0.76024,1.35756 -0.0724,0.14482 -0.0905,0.47063 -0.0543,0.97745 0.0362,0.49476 0.14481,0.92918 0.32582,1.30327 0.45855,0.96538 1.44807,1.4722 2.96855,1.52047 1.73768,0.0483 2.97457,-0.25944 3.71068,-0.92314"
         style="line-height:87.99999952%;fill:#000000"
         id="path3901"
         inkscape:connector-curvature="0" />
      <path
         d="m 576.57205,158.86011 c 1.85834,2e-5 3.37278,0.56718 4.54332,1.70148 1.07397,1.0378 1.6894,2.41347 1.84629,4.12701 l -2.31691,0.18101 c -0.0966,-1.11018 -0.49477,-1.99109 -1.19466,-2.64273 -0.73612,-0.67575 -1.69546,-1.01364 -2.87804,-1.01365 -0.89299,1e-5 -1.60496,0.16292 -2.13591,0.48872 -0.53097,0.32583 -0.99556,0.82662 -1.39377,1.50238 -0.67577,1.13433 -1.01365,2.69704 -1.01365,4.68813 0,1.82216 0.40425,3.36677 1.21276,4.63383 0.85677,1.35153 2.1178,2.0273 3.78309,2.0273 1.14638,0 2.04539,-0.30771 2.69703,-0.92315 0.57922,-0.55509 0.94727,-1.33946 1.10416,-2.35311 l 2.31691,0.36201 c -0.26549,1.50842 -0.88092,2.72721 -1.84629,3.65639 -1.12227,1.08605 -2.5462,1.62908 -4.27181,1.62908 -1.25501,0 -2.37726,-0.28962 -3.36677,-0.86885 -0.98952,-0.57922 -1.77993,-1.33946 -2.37122,-2.28071 -1.04985,-1.66528 -1.57478,-3.62621 -1.57478,-5.88279 0,-2.41344 0.43442,-4.37437 1.30327,-5.88279 0.54302,-0.92917 1.29723,-1.68337 2.26261,-2.26262 0.96538,-0.59127 2.0635,-0.88692 3.29437,-0.88694"
         style="line-height:87.99999952%;fill:#000000"
         id="path3903"
         inkscape:connector-curvature="0" />
      <path
         d="m 590.03911,168.86991 c 0.1086,1.73769 0.46459,3.03492 1.06796,3.89169 0.74816,1.11019 1.87645,1.70752 3.38487,1.79199 1.29118,0 2.31087,-0.31978 3.05905,-0.95935 0.56715,-0.48269 0.98347,-1.14638 1.24896,-1.9911 l 2.26261,0.68784 c -0.39823,1.255 -1.074,2.29278 -2.0273,3.11335 -1.17054,1.01365 -2.68498,1.52048 -4.54332,1.52048 l -0.0543,0 c -1.13433,-0.0483 -2.16004,-0.32582 -3.07715,-0.83264 -0.90505,-0.50683 -1.64115,-1.18863 -2.20831,-2.04541 -1.01365,-1.53253 -1.52048,-3.49346 -1.52048,-5.88279 0,-2.61858 0.42839,-4.67002 1.28517,-6.1543 0.53095,-0.9171 1.27309,-1.65924 2.22641,-2.22641 0.95331,-0.56715 2.05143,-0.8628 3.29436,-0.88695 l 0.0543,0 c 2.14796,0.0604 3.78307,0.69389 4.90534,1.9006 1.37565,1.47222 2.03935,3.78913 1.9911,6.95074 l 0,1.12226 -11.34927,0 m 3.65639,-7.51188 c -0.91712,0.14483 -1.7196,0.66372 -2.40742,1.55668 -0.68784,0.88092 -1.074,2.09368 -1.15846,3.63828 l 8.85134,0 c -0.0483,-1.0257 -0.17499,-1.84628 -0.38012,-2.46172 -0.19309,-0.62749 -0.4827,-1.18258 -0.86884,-1.66528 -0.3741,-0.45854 -0.93523,-0.78436 -1.68339,-0.97745 -0.73611,-0.19306 -1.52048,-0.22323 -2.35311,-0.0905"
         style="line-height:87.99999952%;fill:#000000"
         id="path3905"
         inkscape:connector-curvature="0" />
    </g>
    <g
       style="font-size:37.07064056px;font-style:normal;font-variant:normal;font-weight:500;font-stretch:normal;line-height:87.99999952%;letter-spacing:0px;word-spacing:0px;fill:#000000;fill-opacity:1;stroke:none;font-family:Whois;-inkscape-font-specification:Whois Medium"
       id="text3814"
       transform="translate(0,22)">
      <path
         d="m 444.7432,567.16868 c 0.6275,-0.53094 1.44204,-0.91709 2.44363,-1.15846 1.00157,-0.24132 1.97298,-0.3258 2.91424,-0.25341 0.94124,0.0724 1.71957,0.2655 2.33502,0.57923 0.89296,0.45857 1.56873,0.9654 2.0273,1.52047 0.45854,0.55511 0.77229,1.21881 0.94124,1.9911 l -1.90059,0.79644 c -0.4103,-1.08604 -0.96539,-1.79801 -1.66528,-2.1359 -0.74819,-0.36201 -1.81614,-0.50078 -3.20386,-0.41632 -1.26707,0.0966 -2.22039,0.51287 -2.85994,1.24896 -0.36203,0.42237 -0.54907,0.88696 -0.56113,1.39377 -10e-6,0.49477 0.1629,0.94126 0.48872,1.33946 0.33788,0.39823 0.7904,0.67578 1.35757,0.83264 0.44648,0.12069 1.35756,0.34997 2.73323,0.68784 1.38773,0.33789 2.40741,0.60337 3.05906,0.79644 0.84469,0.24135 1.51442,0.62147 2.0092,1.14036 0.49474,0.5189 0.86279,1.17656 1.10415,1.97299 0.22926,0.76025 0.2353,1.53858 0.0181,2.33502 -0.20516,0.79644 -0.59734,1.50238 -1.17656,2.1178 -1.23087,1.23087 -3.11336,1.8463 -5.64748,1.8463 -2.37725,0 -4.15717,-0.54303 -5.33976,-1.62909 -0.92918,-0.85677 -1.39377,-1.96696 -1.39377,-3.33056 l 2.19021,-0.18101 c 0.1086,0.83265 0.36804,1.43601 0.77834,1.81009 0.74816,0.67577 2.00316,1.01365 3.76498,1.01365 1.91869,0 3.24609,-0.40425 3.9822,-1.21276 0.59128,-0.63956 0.77229,-1.39376 0.54303,-2.26261 -0.0845,-0.36201 -0.24739,-0.63956 -0.48873,-0.83264 -0.24135,-0.20514 -0.60337,-0.39218 -1.08605,-0.56113 -0.76025,-0.24134 -2.53414,-0.7361 -5.32166,-1.48427 -2.03938,-0.54302 -3.28834,-1.48427 -3.74689,-2.82374 -0.6999,-1.89455 -0.13274,-3.6081 1.70148,-5.14066"
         style="line-height:87.99999952%;fill:#000000"
         id="path3862"
         inkscape:connector-curvature="0" />
      <path
         d="m 460.02036,559.71111 2.37122,0 0,16.34511 9.59348,-10.28131 1.70148,1.57478 -6.42582,6.95074 7.49377,9.26766 0,0.23532 -2.91424,0 -6.26291,-7.74719 -3.18576,3.43917 0,4.30802 -2.37122,0 0,-24.0923"
         style="line-height:87.99999952%;fill:#000000"
         id="path3864"
         inkscape:connector-curvature="0" />
      <path
         d="m 478.03076,565.73871 2.49792,0 4.92345,13.01455 0.0905,0.50682 0.0905,-0.50682 4.81484,-13.01455 2.49793,0 -6.57063,17.97419 c -0.77231,1.76182 -1.42394,2.99871 -1.9549,3.71069 -1.11019,1.48426 -2.83581,2.37724 -5.17685,2.67893 l 0,-2.35312 c 1.60494,-0.31375 2.71513,-0.88695 3.33056,-1.71958 0.24134,-0.31375 0.50682,-0.77834 0.79644,-1.39377 0.28961,-0.60337 0.51889,-1.13433 0.68784,-1.59288 l 0.27151,-0.66974 -6.29911,-16.63472"
         style="line-height:87.99999952%;fill:#000000"
         id="path3866"
         inkscape:connector-curvature="0" />
    </g>
    <g
       style="font-size:37.07064056000000107px;font-style:normal;font-variant:normal;font-weight:500;font-stretch:normal;line-height:87.99999952000000292%;letter-spacing:0px;word-spacing:0px;fill:#000000;fill-opacity:1;stroke:none;font-family:Whois;-inkscape-font-specification:Whois Medium"
       id="text3822">
      <path
         d="m 444.7432,907.1392 c 0.6275,-0.53094 1.44204,-0.91709 2.44363,-1.15846 1.00157,-0.24132 1.97298,-0.3258 2.91424,-0.25341 0.94124,0.0724 1.71957,0.2655 2.33502,0.57923 0.89296,0.45857 1.56873,0.9654 2.0273,1.52047 0.45854,0.55511 0.77229,1.21881 0.94124,1.9911 l -1.90059,0.79644 c -0.4103,-1.08604 -0.96539,-1.79801 -1.66528,-2.1359 -0.74819,-0.36201 -1.81614,-0.50078 -3.20386,-0.41632 -1.26707,0.0965 -2.22039,0.51287 -2.85994,1.24896 -0.36203,0.42237 -0.54907,0.88696 -0.56113,1.39377 -10e-6,0.49477 0.1629,0.94126 0.48872,1.33946 0.33788,0.39823 0.7904,0.67578 1.35757,0.83264 0.44648,0.12069 1.35756,0.34997 2.73323,0.68784 1.38773,0.33789 2.40741,0.60337 3.05906,0.79644 0.84469,0.24135 1.51442,0.62147 2.0092,1.14036 0.49474,0.5189 0.86279,1.17656 1.10415,1.97299 0.22926,0.76025 0.2353,1.53858 0.0181,2.33502 -0.20516,0.79644 -0.59734,1.50238 -1.17656,2.1178 -1.23087,1.23087 -3.11336,1.8463 -5.64748,1.8463 -2.37725,0 -4.15717,-0.54303 -5.33976,-1.62909 -0.92918,-0.85677 -1.39377,-1.96696 -1.39377,-3.33056 l 2.19021,-0.18101 c 0.1086,0.83265 0.36804,1.43601 0.77834,1.81009 0.74816,0.67577 2.00316,1.01365 3.76498,1.01365 1.91869,0 3.24609,-0.40425 3.9822,-1.21276 0.59128,-0.63956 0.77229,-1.39376 0.54303,-2.26261 -0.0845,-0.36201 -0.24739,-0.63956 -0.48873,-0.83264 -0.24135,-0.20514 -0.60337,-0.39218 -1.08605,-0.56113 -0.76025,-0.24134 -2.53414,-0.7361 -5.32166,-1.48427 -2.03938,-0.54302 -3.28834,-1.48427 -3.74689,-2.82374 -0.6999,-1.89455 -0.13274,-3.6081 1.70148,-5.14066"
         style="line-height:87.99999952000000292%;fill:#000000"
         id="path3853" />
      <path
         d="m 462.06576,907.64603 c 1.07399,-1.29118 2.73927,-1.93678 4.99585,-1.9368 2.38931,2e-5 4.06062,0.81456 5.01395,2.44362 0.0845,0.15689 0.1629,0.33187 0.23531,0.52493 0.0724,0.19309 0.13273,0.38013 0.18101,0.56112 0.0483,0.16896 0.0845,0.3922 0.10861,0.66974 0.0362,0.26549 0.0603,0.4827 0.0724,0.65163 0.0241,0.15689 0.0362,0.40427 0.0362,0.74214 0.0121,0.32582 0.0181,0.5551 0.0181,0.68783 -1e-5,0.12069 -1e-5,0.36806 0,0.74214 -1e-5,0.36203 -1e-5,0.58527 0,0.66973 l 0,5.41217 c -0.0362,0.86885 0.0241,1.47221 0.18101,1.81009 0.0965,0.21721 0.18703,0.38615 0.27152,0.50682 0.0845,0.10861 0.24736,0.22929 0.48872,0.36202 0.24133,0.13274 0.54301,0.22928 0.90504,0.28962 l 0,2.0454 c -0.72405,-0.0483 -1.36361,-0.20514 -1.91869,-0.47062 -0.54304,-0.27755 -0.90506,-0.537 -1.08605,-0.77834 l -0.28962,-0.38012 -0.0905,0 c -0.0483,0.0483 -0.12069,0.1086 -0.21721,0.18101 -0.0845,0.0603 -0.28963,0.18101 -0.61543,0.36201 -0.32583,0.18101 -0.67578,0.34392 -1.04986,0.48873 -0.37409,0.13274 -0.86885,0.25945 -1.48427,0.38012 -0.61544,0.1086 -1.255,0.16291 -1.9187,0.16291 -1.2188,0 -2.26865,-0.27755 -3.14955,-0.83265 -0.88092,-0.55509 -1.52651,-1.24896 -1.9368,-2.0816 -0.63957,-1.32739 -0.7361,-2.65479 -0.28961,-3.9822 0.34995,-0.9895 0.89901,-1.76784 1.64718,-2.33501 0.76023,-0.57922 1.61701,-0.95934 2.57033,-1.14036 0.61542,-0.0965 1.55667,-0.1448 2.82374,-0.14481 0.2896,10e-6 0.74816,0.006 1.37567,0.0181 0.62748,0.0121 1.0981,0.0181 1.41187,0.0181 -2e-5,-0.0965 -2e-5,-0.24134 0,-0.43443 -2e-5,-0.68782 -0.006,-1.20068 -0.0181,-1.53857 -1e-5,-0.34994 -0.0241,-0.72403 -0.0724,-1.12226 -0.0483,-0.41027 -0.12672,-0.70592 -0.23531,-0.88694 -0.25342,-0.43441 -0.59131,-0.74816 -1.01365,-0.94125 -0.4103,-0.20513 -1.06193,-0.3077 -1.9549,-0.30771 -1.44808,10e-6 -2.51,0.3741 -3.18576,1.12225 -0.41029,0.45857 -0.67577,1.12227 -0.79644,1.9911 l -2.1721,-0.38012 c -10e-6,-1.17051 0.38615,-2.22036 1.15845,-3.14955 m 7.60238,12.88783 c 0.32581,-0.26547 0.55508,-0.62146 0.68784,-1.06795 l 0,-3.80119 c -0.34997,10e-6 -0.89903,-0.0121 -1.64719,-0.0362 -0.73611,-0.0241 -1.38774,-0.0302 -1.95489,-0.0181 -0.56717,10e-6 -1.1102,0.0362 -1.62908,0.10861 -0.73611,0.13274 -1.28517,0.32582 -1.64719,0.57922 -0.34995,0.24136 -0.60336,0.69388 -0.76023,1.35757 -0.0724,0.14482 -0.0905,0.47063 -0.0543,0.97745 0.0362,0.49476 0.14481,0.92918 0.32582,1.30327 0.45855,0.96538 1.44807,1.4722 2.96855,1.52047 1.73767,0.0483 2.97457,-0.25944 3.71068,-0.92315"
         style="line-height:87.99999952000000292%;fill:#000000"
         id="path3855" />
      <path
         d="m 486.04945,905.70923 c 2.00316,2e-5 3.57794,0.89299 4.72434,2.67893 0.49474,0.77232 0.80849,1.58686 0.94125,2.44362 0.14479,0.85679 0.21719,1.89457 0.21721,3.11336 l 0,9.82879 -2.37122,0 0,-9.82879 c -1e-5,-1.97902 -0.21119,-3.35469 -0.63353,-4.12701 -0.27756,-0.49474 -0.61544,-0.88089 -1.01365,-1.15845 -0.39823,-0.2896 -0.95936,-0.48871 -1.68339,-0.59733 -0.42236,-0.0362 -0.85678,-0.0543 -1.30326,-0.0543 -0.43443,-0.0121 -0.86282,0.0785 -1.28516,0.27152 -0.42237,0.18102 -0.80248,0.4284 -1.14036,0.74213 -0.32582,0.3017 -0.5913,0.74215 -0.79644,1.32137 -0.19308,0.57924 -0.28962,1.25501 -0.28962,2.0273 l 0,11.40357 -2.37121,0 0,-18.0647 2.0454,0 0.32581,1.61098 c 1.27913,-1.07397 2.82374,-1.61096 4.63383,-1.61098"
         style="line-height:87.99999952000000292%;fill:#000000"
         id="path3857" />
      <path
         d="m 508.60317,899.68163 2.31692,0 0,24.0923 -1.90059,0 -0.41633,-2.13591 c -1.31534,1.42394 -2.98665,2.13591 -5.01394,2.13591 -1.25501,0 -2.37726,-0.28962 -3.36677,-0.86885 -0.98952,-0.57922 -1.77993,-1.33946 -2.37122,-2.28071 -1.04985,-1.66528 -1.57478,-3.62621 -1.57478,-5.88279 0,-2.25657 0.52493,-4.2175 1.57478,-5.88279 0.57923,-0.92917 1.36963,-1.68337 2.37122,-2.26262 1.00157,-0.59128 2.12383,-0.88692 3.36677,-0.88694 2.08762,2e-5 3.75894,0.70595 5.01394,2.1178 l 0,-8.1454 m -2.76943,8.90564 c -0.59131,-0.34993 -1.33948,-0.52491 -2.24451,-0.52492 -0.90506,10e-6 -1.65323,0.17499 -2.24452,0.52492 -0.57923,0.3379 -1.08002,0.84472 -1.50237,1.52048 -0.80851,1.26707 -1.21276,2.81168 -1.21276,4.63383 0,1.8825 0.38615,3.42711 1.15846,4.63383 0.85677,1.35153 2.12383,2.0273 3.80119,2.0273 1.6532,0 2.90819,-0.67577 3.76498,-2.0273 0.83263,-1.30326 1.24895,-2.84787 1.24896,-4.63383 -10e-6,-1.78595 -0.41633,-3.33056 -1.24896,-4.63383 -0.42236,-0.66369 -0.92919,-1.17051 -1.52047,-1.52048"
         style="line-height:87.99999952000000292%;fill:#000000"
         id="path3859" />
    </g>
  </g>
</svg>
